<svg width="103" height="28" viewBox="0 0 103 28" fill="none" xmlns="http://www.w3.org/2000/svg">
<path d="M15.125 10.625H12.875V8.375H15.125M15.125 19.625H12.875V12.875H15.125M14 2.75C12.5226 2.75 11.0597 3.04099 9.69481 3.60636C8.3299 4.17172 7.08971 5.00039 6.04505 6.04505C3.93526 8.15483 2.75 11.0163 2.75 14C2.75 16.9837 3.93526 19.8452 6.04505 21.955C7.08971 22.9996 8.3299 23.8283 9.69481 24.3936C11.0597 24.959 12.5226 25.25 14 25.25C16.9837 25.25 19.8452 24.0647 21.955 21.955C24.0647 19.8452 25.25 16.9837 25.25 14C25.25 12.5226 24.959 11.0597 24.3936 9.69481C23.8283 8.3299 22.9996 7.08971 21.955 6.04505C20.9103 5.00039 19.6701 4.17172 18.3052 3.60636C16.9403 3.04099 15.4774 2.75 14 2.75Z" fill="#6B8929"/>
<path d="M32.4648 21V19.2188C32.8867 19.1953 33.2031 19.168 33.4141 19.1367C33.6328 19.0977 33.7969 19.0156 33.9062 18.8906C34.0156 18.7578 34.1289 18.5391 34.2461 18.2344C34.3008 18.1094 34.4062 17.8438 34.5625 17.4375C34.7266 17.0234 34.9258 16.5156 35.1602 15.9141C35.3945 15.3125 35.6445 14.6641 35.9102 13.9688C36.1836 13.2734 36.4531 12.5781 36.7188 11.8828C36.9922 11.1875 37.2461 10.5391 37.4805 9.9375C37.7148 9.33594 37.9141 8.82812 38.0781 8.41406C38.2422 7.99219 38.3477 7.71484 38.3945 7.58203L38.9102 5.74219H42.8359C42.8359 5.74219 42.9062 5.9375 43.0469 6.32812C43.1953 6.71094 43.3867 7.22266 43.6211 7.86328C43.8633 8.50391 44.1289 9.21094 44.418 9.98438C44.7148 10.7578 45.0117 11.543 45.3086 12.3398C45.6055 13.1289 45.8789 13.8672 46.1289 14.5547C46.3867 15.2422 46.6016 15.8203 46.7734 16.2891C46.9531 16.75 47.0625 17.0312 47.1016 17.1328C47.2812 17.6172 47.4219 18 47.5234 18.2812C47.6328 18.5547 47.75 18.7617 47.875 18.9023C48.0078 19.0352 48.1836 19.125 48.4023 19.1719C48.6211 19.2109 48.9336 19.2305 49.3398 19.2305V21C48.8945 21 48.4531 20.9961 48.0156 20.9883C47.5859 20.9805 47.1016 20.9766 46.5625 20.9766C45.9531 20.9766 45.3516 20.9805 44.7578 20.9883C44.1719 20.9883 43.5156 20.9922 42.7891 21V19.3359C42.8906 19.3359 43.0117 19.3359 43.1523 19.3359C43.3008 19.3359 43.4102 19.332 43.4805 19.3242C43.8477 19.3086 44.0977 19.2734 44.2305 19.2188C44.3711 19.1562 44.4414 19.0586 44.4414 18.9258C44.4414 18.8477 44.4258 18.7539 44.3945 18.6445C44.3633 18.5273 44.3203 18.3984 44.2656 18.2578L43.3516 15.5391H37.7148C37.6914 15.5859 37.6445 15.7109 37.5742 15.9141C37.5117 16.1094 37.4336 16.3438 37.3398 16.6172C37.2461 16.8828 37.1523 17.1523 37.0586 17.4258C36.9648 17.6914 36.8867 17.9219 36.8242 18.1172C36.7617 18.3047 36.7266 18.418 36.7188 18.457C36.6406 18.6836 36.6016 18.8438 36.6016 18.9375C36.6016 19.1016 36.6641 19.2109 36.7891 19.2656C36.9141 19.3125 37.1211 19.3359 37.4102 19.3359C37.4805 19.3438 37.6133 19.3477 37.8086 19.3477C38.0117 19.3477 38.1602 19.3477 38.2539 19.3477V21C37.793 21 37.3242 20.9961 36.8477 20.9883C36.3789 20.9805 35.8867 20.9766 35.3711 20.9766C34.8477 20.9766 34.3711 20.9805 33.9414 20.9883C33.5195 20.9883 33.0273 20.9922 32.4648 21ZM38.2188 14.1211H42.8477L40.5742 7.58203L38.2188 14.1211ZM58.2344 21.2578C57.3438 21.2578 56.5781 21.1055 55.9375 20.8008C55.3047 20.4883 54.7617 20.0234 54.3086 19.4062L54.2969 21.0352C53.8828 21.0273 53.4531 21.0195 53.0078 21.0117C52.5625 21.0117 52.1211 21.0078 51.6836 21C51.5117 20.9922 51.2812 20.9883 50.9922 20.9883C50.7031 20.9883 50.4414 20.9922 50.207 21C49.9727 21 49.8398 21 49.8086 21V19.4062C49.8711 19.4062 49.9688 19.4062 50.1016 19.4062C50.2422 19.4062 50.3398 19.4062 50.3945 19.4062C50.7227 19.3984 50.9531 19.3359 51.0859 19.2188C51.2188 19.1016 51.3008 18.9727 51.332 18.832C51.3633 18.6836 51.3789 18.5625 51.3789 18.4688V8.15625C51.3789 7.77344 51.2461 7.54297 50.9805 7.46484C50.7227 7.38672 50.3203 7.34375 49.7734 7.33594V5.73047C50.1328 5.73828 50.5 5.73828 50.875 5.73047C51.2578 5.72266 51.6289 5.71875 51.9883 5.71875C52.418 5.71094 52.8359 5.70313 53.2422 5.69531C53.6562 5.6875 54.0547 5.67969 54.4375 5.67188V11.7305C55.3438 10.6523 56.582 10.1133 58.1523 10.1133C59.2148 10.1133 60.1445 10.3398 60.9414 10.793C61.7461 11.2461 62.3711 11.8906 62.8164 12.7266C63.2695 13.5625 63.4961 14.5586 63.4961 15.7148C63.4961 16.7773 63.2812 17.7305 62.8516 18.5742C62.4219 19.4102 61.8125 20.0664 61.0234 20.543C60.2422 21.0195 59.3125 21.2578 58.2344 21.2578ZM57.3789 19.4648C58.3164 19.4648 59.0508 19.1328 59.582 18.4688C60.1211 17.7969 60.3906 16.8594 60.3906 15.6562C60.3906 14.4766 60.1172 13.5469 59.5703 12.8672C59.0312 12.1875 58.2969 11.8477 57.3672 11.8477C56.3984 11.8477 55.6484 12.1914 55.1172 12.8789C54.5859 13.5664 54.3203 14.5078 54.3203 15.7031C54.3203 16.8828 54.5859 17.8047 55.1172 18.4688C55.6562 19.1328 56.4102 19.4648 57.3789 19.4648ZM71.6055 21.3398C70.4336 21.3398 69.3828 21.1172 68.4531 20.6719C67.5312 20.2266 66.8008 19.5859 66.2617 18.75C65.7227 17.9062 65.4531 16.8945 65.4531 15.7148C65.4531 14.543 65.7188 13.5391 66.25 12.7031C66.7891 11.8594 67.5195 11.2148 68.4414 10.7695C69.3711 10.3164 70.4258 10.0898 71.6055 10.0898C72.7461 10.0898 73.7812 10.3086 74.7109 10.7461C75.6406 11.1836 76.3789 11.8203 76.9258 12.6562C77.4805 13.4922 77.7578 14.5117 77.7578 15.7148C77.7578 16.8867 77.4883 17.8945 76.9492 18.7383C76.4102 19.5742 75.6758 20.2188 74.7461 20.6719C73.8164 21.1172 72.7695 21.3398 71.6055 21.3398ZM71.5938 19.6289C72.5312 19.6289 73.2734 19.2773 73.8203 18.5742C74.3672 17.8633 74.6406 16.8945 74.6406 15.668C74.6406 14.4648 74.3711 13.5156 73.832 12.8203C73.293 12.125 72.5547 11.7773 71.6172 11.7773C70.6641 11.7773 69.918 12.125 69.3789 12.8203C68.8398 13.5156 68.5703 14.4766 68.5703 15.7031C68.5703 16.9141 68.8359 17.8711 69.3672 18.5742C69.9062 19.2773 70.6484 19.6289 71.5938 19.6289ZM84.2617 21.2461C83.3477 21.2461 82.6328 21.0508 82.1172 20.6602C81.6016 20.2695 81.2422 19.6875 81.0391 18.9141C80.8359 18.1328 80.7344 17.1602 80.7344 15.9961V12.8555C80.7344 12.5664 80.6953 12.3672 80.6172 12.2578C80.5391 12.1406 80.3867 12.0742 80.1602 12.0586C79.9414 12.0352 79.6172 12.0234 79.1875 12.0234V10.4297C79.3828 10.4297 79.6094 10.4297 79.8672 10.4297C80.1328 10.4297 80.3867 10.4297 80.6289 10.4297C80.8711 10.4297 81.0469 10.4297 81.1562 10.4297C81.5938 10.4219 82.0234 10.4141 82.4453 10.4062C82.875 10.3984 83.3203 10.3867 83.7812 10.3711V16.4414C83.7812 17.043 83.8281 17.5586 83.9219 17.9883C84.0234 18.418 84.2109 18.75 84.4844 18.9844C84.7578 19.2109 85.1523 19.3242 85.668 19.3242C86.3945 19.3242 86.9922 19.1992 87.4609 18.9492C87.9375 18.6992 88.293 18.3789 88.5273 17.9883C88.5898 17.7305 88.625 17.4648 88.6328 17.1914C88.6406 16.9102 88.6445 16.6172 88.6445 16.3125V13.0195C88.6445 12.6836 88.6016 12.4492 88.5156 12.3164C88.4375 12.1758 88.2812 12.0938 88.0469 12.0703C87.8125 12.0391 87.4609 12.0234 86.9922 12.0234V10.4297C87.3438 10.4297 87.6914 10.4297 88.0352 10.4297C88.3867 10.4297 88.7695 10.4297 89.1836 10.4297C89.6133 10.4219 90.0312 10.4141 90.4375 10.4062C90.8516 10.3984 91.2656 10.3867 91.6797 10.3711V18.7148C91.6797 19.0195 91.7773 19.2109 91.9727 19.2891C92.1758 19.3672 92.5859 19.4062 93.2031 19.4062V21C92.8906 20.9922 92.6016 20.9883 92.3359 20.9883C92.0703 20.9883 91.8047 20.9922 91.5391 21C91.0625 21 90.5898 21.0039 90.1211 21.0117C89.6523 21.0195 89.1914 21.0273 88.7383 21.0352C88.7383 20.8555 88.7383 20.6562 88.7383 20.4375C88.7383 20.2188 88.7383 20.0156 88.7383 19.8281C88.7383 19.6406 88.7383 19.5039 88.7383 19.418C88.207 20.0352 87.5547 20.4961 86.7812 20.8008C86.0156 21.0977 85.1758 21.2461 84.2617 21.2461ZM98.8398 21.3164C98.0664 21.3164 97.4453 21.168 96.9766 20.8711C96.5078 20.5742 96.168 20.1484 95.957 19.5938C95.7539 19.0391 95.6523 18.3711 95.6523 17.5898V12.0117H93.8242V10.5352C93.9883 10.5273 94.2344 10.5117 94.5625 10.4883C94.8984 10.4648 95.2031 10.4414 95.4766 10.418C95.75 10.3945 95.8867 10.3828 95.8867 10.3828C95.8867 10.3281 95.9062 10.1758 95.9453 9.92578C95.9844 9.66797 96.0234 9.37891 96.0625 9.05859C96.1094 8.73828 96.1484 8.45312 96.1797 8.20312C96.2188 7.94531 96.2383 7.79297 96.2383 7.74609L98.6875 7.27734V10.4062H101.535V12.0117H98.6992V17.1328C98.6992 17.8516 98.75 18.4023 98.8516 18.7852C98.9609 19.168 99.2539 19.3594 99.7305 19.3594C99.9883 19.3594 100.188 19.2695 100.328 19.0898C100.477 18.9023 100.551 18.6094 100.551 18.2109L101.77 18.0703C101.77 19.1562 101.504 19.9688 100.973 20.5078C100.441 21.0469 99.7305 21.3164 98.8398 21.3164Z" fill="#6B8929"/>
</svg>
