<svg width="215" height="30" viewBox="0 0 215 30" fill="none" xmlns="http://www.w3.org/2000/svg">
<g clip-path="url(#clip0_10_127)">
<path d="M3.16867e-06 21.0001V12.3646C-0.00020083 12.3261 0.0094484 12.2883 0.0280297 12.2546C0.0466111 12.221 0.073505 12.1926 0.106146 12.1723C0.138788 12.152 0.176088 12.1404 0.214488 12.1386C0.252889 12.1368 0.291109 12.1449 0.325503 12.1621L9.987 16.9936C10.612 17.3062 11.3012 17.4689 12 17.4689C12.6988 17.4689 13.388 17.3062 14.013 16.9936L23.673 12.1636C23.7073 12.1461 23.7456 12.1377 23.7841 12.1393C23.8226 12.1408 23.86 12.1523 23.8928 12.1724C23.9256 12.1926 23.9527 12.2209 23.9715 12.2545C23.9903 12.2881 24.0001 12.326 24 12.3646V21.0001C24 21.7957 23.6839 22.5588 23.1213 23.1214C22.5587 23.684 21.7957 24.0001 21 24.0001H3C2.20435 24.0001 1.44129 23.684 0.878683 23.1214C0.316074 22.5588 3.16867e-06 21.7957 3.16867e-06 21.0001Z" fill="#C5C5C5"/>
<path d="M0 9V10.3605C5.71051e-05 10.4023 0.011733 10.4432 0.0337207 10.4787C0.0557085 10.5142 0.0871409 10.5428 0.1245 10.5615L9.987 15.4935C10.612 15.8061 11.3012 15.9688 12 15.9688C12.6988 15.9688 13.388 15.8061 14.013 15.4935L23.8755 10.5615C23.9129 10.5428 23.9443 10.5142 23.9663 10.4787C23.9883 10.4432 23.9999 10.4023 24 10.3605V9C24 8.20435 23.6839 7.44129 23.1213 6.87868C22.5587 6.31607 21.7956 6 21 6H3C2.20435 6 1.44129 6.31607 0.87868 6.87868C0.31607 7.44129 0 8.20435 0 9Z" fill="white"/>
</g>
<path d="M37.0796 13.2051C36.3911 13.2051 35.7856 13.061 35.2632 12.7729C34.7407 12.4849 34.3306 12.082 34.0327 11.5645C33.7397 11.042 33.5933 10.4292 33.5933 9.72607C33.5933 9.02295 33.7397 8.41016 34.0327 7.8877C34.3306 7.36523 34.7407 6.9624 35.2632 6.6792C35.7905 6.39111 36.396 6.24707 37.0796 6.24707C37.7681 6.24707 38.3735 6.39111 38.896 6.6792C39.4233 6.9624 39.8359 7.36523 40.1338 7.8877C40.4316 8.40527 40.5806 9.01807 40.5806 9.72607C40.5806 10.4243 40.4316 11.0347 40.1338 11.5571C39.8408 12.0796 39.4307 12.4849 38.9033 12.7729C38.3809 13.061 37.7729 13.2051 37.0796 13.2051ZM37.0796 12.4434C37.7534 12.4434 38.293 12.1968 38.6982 11.7036C39.1035 11.2104 39.3062 10.5488 39.3062 9.71875C39.3062 8.88379 39.1035 8.22217 38.6982 7.73389C38.2979 7.24561 37.7583 7.00146 37.0796 7.00146C36.4009 7.00146 35.8613 7.24561 35.4609 7.73389C35.0605 8.21729 34.8604 8.87891 34.8604 9.71875C34.8604 10.5488 35.0605 11.2104 35.4609 11.7036C35.8613 12.1968 36.4009 12.4434 37.0796 12.4434ZM41.4961 13C41.4961 12.9609 41.4961 12.9121 41.4961 12.8535C41.4961 12.7949 41.4961 12.7339 41.4961 12.6704C41.4961 12.6021 41.4961 12.5386 41.4961 12.48C41.4961 12.4214 41.4961 12.3726 41.4961 12.3335C41.8623 12.3335 42.1235 12.3237 42.2798 12.3042C42.436 12.2847 42.5312 12.248 42.5654 12.1943C42.6045 12.1357 42.624 12.0552 42.624 11.9526V7.33838C42.624 7.21631 42.5508 7.14551 42.4043 7.12598C42.2627 7.10645 41.9746 7.09668 41.54 7.09668C41.54 7.04297 41.54 6.97461 41.54 6.8916C41.54 6.80859 41.5376 6.72559 41.5327 6.64258C41.5327 6.55957 41.5327 6.49365 41.5327 6.44482C41.6987 6.44482 41.8574 6.44482 42.0088 6.44482C42.165 6.44482 42.3164 6.44238 42.4629 6.4375C42.7021 6.4375 42.9316 6.43506 43.1514 6.43018C43.376 6.42041 43.5957 6.41309 43.8105 6.4082V7.44092C44.1426 7.07959 44.5259 6.80127 44.9604 6.60596C45.395 6.40576 45.854 6.30566 46.3374 6.30566C47.0503 6.30566 47.5972 6.49854 47.978 6.88428C48.3589 7.26514 48.5493 7.86328 48.5493 8.67871V12.0332C48.5493 12.1846 48.625 12.27 48.7764 12.2896C48.9277 12.3091 49.1938 12.3237 49.5747 12.3335V13C49.3354 13 49.0986 13 48.8643 13C48.6348 12.9951 48.3491 12.9902 48.0073 12.9854C47.6509 12.9854 47.3311 12.9878 47.0479 12.9927C46.7646 12.9976 46.4814 13 46.1982 13V12.3335C46.5693 12.3335 46.8306 12.3237 46.9819 12.3042C47.1382 12.2847 47.231 12.2505 47.2603 12.2017C47.2944 12.1528 47.3115 12.0845 47.3115 11.9966V9.10352C47.3115 8.44434 47.2261 7.95361 47.0552 7.63135C46.8843 7.30908 46.5229 7.14795 45.9712 7.14795C45.439 7.14795 45.002 7.27002 44.6602 7.51416C44.3184 7.7583 44.0547 7.99756 43.8691 8.23193C43.8643 8.4126 43.8594 8.5957 43.8545 8.78125C43.8496 8.96191 43.8472 9.1499 43.8472 9.34521V11.9893C43.8472 12.1602 43.9326 12.2603 44.1035 12.2896C44.2793 12.3188 44.5649 12.3335 44.9604 12.3335V13C44.7065 13 44.4551 13 44.2061 13C43.9619 12.9951 43.6616 12.9902 43.3052 12.9854C42.939 12.9854 42.6143 12.9878 42.3311 12.9927C42.0479 12.9976 41.7695 13 41.4961 13ZM53.9692 13.2051C53.2319 13.2051 52.5972 13.061 52.0649 12.7729C51.5376 12.4849 51.1323 12.082 50.8491 11.5645C50.5659 11.042 50.4243 10.4341 50.4243 9.74072C50.4243 9.0376 50.5684 8.4248 50.8564 7.90234C51.1445 7.37988 51.5498 6.97461 52.0723 6.68652C52.5947 6.39355 53.2026 6.24707 53.896 6.24707C54.5991 6.24707 55.2046 6.39111 55.7124 6.6792C56.2202 6.9624 56.6108 7.375 56.8843 7.91699C57.1626 8.4541 57.3042 9.10107 57.3091 9.85791L56.8696 9.98975H51.6841C51.6938 10.771 51.9209 11.3838 52.3652 11.8281C52.8145 12.2725 53.4053 12.4946 54.1377 12.4946C54.6455 12.4946 55.0898 12.3945 55.4707 12.1943C55.8516 11.9893 56.1323 11.6523 56.313 11.1836H57.1992C57.0039 11.8525 56.6206 12.3579 56.0493 12.6997C55.478 13.0366 54.7847 13.2051 53.9692 13.2051ZM51.6914 9.35254H56.1226C56.064 8.60547 55.8418 8.01953 55.4561 7.59473C55.0752 7.16992 54.5601 6.95752 53.9106 6.95752C53.2905 6.95752 52.7852 7.17236 52.3945 7.60205C52.0088 8.03174 51.7744 8.61523 51.6914 9.35254ZM61.4106 13.1538C60.9077 13.1538 60.4854 13.0928 60.1436 12.9707C59.8066 12.8438 59.5308 12.6509 59.3159 12.3921L59.2427 12.9414C59.1353 12.9414 59.0278 12.9414 58.9204 12.9414C58.8179 12.9365 58.7104 12.9341 58.5981 12.9341V10.8247H59.3086C59.3184 11.3765 59.4917 11.7988 59.8286 12.0918C60.1655 12.3799 60.6367 12.5239 61.2422 12.5239C61.7402 12.5239 62.1455 12.4238 62.458 12.2236C62.7705 12.0186 62.9268 11.7427 62.9268 11.396C62.9268 11.1372 62.8291 10.9321 62.6338 10.7808C62.4385 10.6245 62.1797 10.4927 61.8574 10.3853C61.54 10.2778 61.1909 10.1704 60.8101 10.063C60.3511 9.92139 59.9653 9.77002 59.6528 9.60889C59.3403 9.44775 59.106 9.25 58.9497 9.01562C58.7935 8.78125 58.7153 8.48828 58.7153 8.13672C58.7153 7.62402 58.9277 7.19189 59.3525 6.84033C59.7822 6.48389 60.356 6.30566 61.0737 6.30566C61.4741 6.30566 61.8525 6.35938 62.209 6.4668C62.5654 6.56934 62.8535 6.73535 63.0732 6.96484C63.0781 6.95508 63.0928 6.91113 63.1172 6.83301C63.1416 6.75 63.166 6.66943 63.1904 6.59131C63.2148 6.5083 63.2271 6.4668 63.2271 6.4668C63.2271 6.4668 63.2686 6.46924 63.3516 6.47412C63.4346 6.47412 63.52 6.47412 63.6079 6.47412C63.7007 6.47412 63.7568 6.47656 63.7764 6.48145V8.47363H63.0879C63.0684 7.98535 62.9048 7.60938 62.5972 7.3457C62.2896 7.07715 61.8501 6.94287 61.2788 6.94287C60.7905 6.94287 60.4268 7.05029 60.1875 7.26514C59.9482 7.47998 59.8286 7.72656 59.8286 8.00488C59.8286 8.30762 59.9824 8.54199 60.29 8.70801C60.5977 8.86914 60.9956 9.01318 61.4839 9.14014C62.0112 9.27686 62.4678 9.42578 62.8535 9.58691C63.2441 9.74316 63.5444 9.94824 63.7544 10.2021C63.9644 10.4561 64.0693 10.7954 64.0693 11.2202C64.0693 11.6353 63.9595 11.9868 63.7397 12.2749C63.52 12.563 63.21 12.7827 62.8096 12.9341C62.4141 13.0806 61.9478 13.1538 61.4106 13.1538ZM67.6875 13.1538C66.9893 13.1538 66.4302 12.9658 66.0103 12.5898C65.5903 12.2139 65.3804 11.7354 65.3804 11.1543C65.3804 10.5293 65.6294 10.0264 66.1274 9.64551C66.6255 9.26465 67.3213 9.07422 68.2148 9.07422C68.5176 9.07422 68.8252 9.09863 69.1377 9.14746C69.4551 9.19141 69.7749 9.25488 70.0972 9.33789V8.25391C70.0972 7.81445 69.9482 7.47754 69.6504 7.24316C69.3574 7.00391 68.9058 6.88428 68.2954 6.88428C67.2944 6.88428 66.6987 7.28955 66.5083 8.1001L65.8345 8.01953L65.9297 6.73047C66.2422 6.58887 66.6084 6.47412 67.0283 6.38623C67.4482 6.29346 67.917 6.24707 68.4346 6.24707C69.4697 6.24707 70.2095 6.43506 70.6538 6.81104C71.103 7.18701 71.3276 7.77783 71.3276 8.5835V11.3594C71.3276 11.6963 71.3447 11.9331 71.3789 12.0698C71.4131 12.2065 71.479 12.2871 71.5767 12.3115C71.6743 12.3359 71.8208 12.3481 72.0161 12.3481H72.3457V13C72.2676 12.9951 72.1895 12.9927 72.1113 12.9927C72.0332 12.9927 71.9551 12.9951 71.877 13C71.7988 13 71.7207 13 71.6426 13C71.3789 13.0049 71.1201 13.0098 70.8662 13.0146C70.6123 13.0195 70.3706 13.0244 70.1411 13.0293V12.0259C69.8481 12.397 69.499 12.6777 69.0938 12.8682C68.6934 13.0586 68.2246 13.1538 67.6875 13.1538ZM68.061 12.4507C68.3784 12.4507 68.6934 12.3848 69.0059 12.2529C69.3184 12.1162 69.5771 11.916 69.7822 11.6523C69.9922 11.3887 70.0972 11.0591 70.0972 10.6636V9.9458C69.8042 9.86279 69.5259 9.79932 69.2622 9.75537C68.9985 9.71143 68.7422 9.68945 68.4932 9.68945C67.9072 9.68945 67.4434 9.81641 67.1016 10.0703C66.7646 10.3193 66.5962 10.6685 66.5962 11.1177C66.5962 11.5181 66.7329 11.8403 67.0063 12.0845C67.2798 12.3286 67.6313 12.4507 68.061 12.4507ZM73.0488 13V12.3335C73.4053 12.3335 73.6592 12.3188 73.8105 12.2896C73.9619 12.2603 74.0522 12.2163 74.0815 12.1577C74.1157 12.0942 74.1328 12.0161 74.1328 11.9233V7.43359C74.1328 7.27246 74.0547 7.17725 73.8984 7.14795C73.7422 7.11377 73.4712 7.09668 73.0854 7.09668V6.44482C73.1831 6.44482 73.2783 6.44727 73.3711 6.45215C73.4688 6.45215 73.5859 6.45215 73.7227 6.45215C73.9814 6.45215 74.2427 6.44727 74.5063 6.4375C74.77 6.42773 75.0337 6.42041 75.2974 6.41553V7.49951C75.6245 7.11377 76.0054 6.81836 76.4399 6.61328C76.8794 6.40332 77.3579 6.29834 77.8755 6.29834C78.3101 6.29834 78.6958 6.40332 79.0327 6.61328C79.3745 6.82324 79.6309 7.13086 79.8018 7.53613C80.1582 7.13574 80.5562 6.83057 80.9956 6.62061C81.4351 6.41064 81.8989 6.30566 82.3872 6.30566C82.9829 6.30566 83.4297 6.43018 83.7275 6.6792C84.0303 6.92822 84.2305 7.27979 84.3281 7.73389C84.4307 8.18311 84.4819 8.71289 84.4819 9.32324V12.0112C84.4819 12.1724 84.5552 12.2651 84.7017 12.2896C84.8481 12.3091 85.1216 12.3237 85.522 12.3335V13C85.2534 13 84.9824 12.9976 84.709 12.9927C84.4355 12.9878 84.123 12.9854 83.7715 12.9854C83.4346 12.9854 83.144 12.9878 82.8999 12.9927C82.6558 12.9976 82.4067 13 82.1528 13V12.3335C82.5728 12.3237 82.8608 12.3018 83.0171 12.2676C83.1733 12.2285 83.2515 12.1138 83.2515 11.9233V9.09619C83.2515 8.44189 83.1709 7.95117 83.0098 7.62402C82.8486 7.29688 82.4922 7.1333 81.9404 7.1333C81.4863 7.1333 81.1006 7.23828 80.7832 7.44824C80.4707 7.6582 80.1997 7.91699 79.9702 8.22461C79.9604 8.40039 79.9531 8.57861 79.9482 8.75928C79.9434 8.93994 79.9409 9.12549 79.9409 9.31592V11.9746C79.9409 12.1504 80.0093 12.2529 80.146 12.2822C80.2876 12.3066 80.5635 12.3237 80.9736 12.3335V13C80.7295 13 80.4878 13 80.2485 13C80.0142 12.9951 79.7261 12.9902 79.3843 12.9854C79.0278 12.9854 78.7129 12.9878 78.4395 12.9927C78.166 12.9976 77.8926 13 77.6191 13V12.3335C78.0342 12.3237 78.3174 12.2993 78.4688 12.2603C78.625 12.2212 78.7031 12.1113 78.7031 11.9307V9.09619C78.7031 8.45654 78.625 7.96338 78.4688 7.6167C78.3125 7.27002 77.9561 7.09668 77.3994 7.09668C76.9355 7.09668 76.5547 7.19922 76.2568 7.4043C75.959 7.60938 75.6733 7.87793 75.3999 8.20996C75.395 8.21484 75.3901 8.28076 75.3853 8.40771C75.3804 8.53467 75.3755 8.69824 75.3706 8.89844C75.3706 9.06934 75.3682 9.25732 75.3633 9.4624C75.3633 9.66748 75.3608 9.87744 75.356 10.0923C75.356 10.3071 75.356 10.5171 75.356 10.7222C75.356 10.9272 75.356 11.1128 75.356 11.2788C75.356 11.6499 75.3657 11.9087 75.3853 12.0552C75.4097 12.2017 75.4976 12.2847 75.6489 12.3042C75.8052 12.3237 76.0786 12.3335 76.4692 12.3335V13C76.2153 13 75.9639 13 75.7148 13C75.4707 12.9951 75.1704 12.9902 74.814 12.9854C74.4575 12.9854 74.1426 12.9878 73.8691 12.9927C73.5957 12.9976 73.3223 13 73.0488 13ZM88.752 13.1538C88.0537 13.1538 87.4946 12.9658 87.0747 12.5898C86.6548 12.2139 86.4448 11.7354 86.4448 11.1543C86.4448 10.5293 86.6938 10.0264 87.1919 9.64551C87.6899 9.26465 88.3857 9.07422 89.2793 9.07422C89.582 9.07422 89.8896 9.09863 90.2021 9.14746C90.5195 9.19141 90.8394 9.25488 91.1616 9.33789V8.25391C91.1616 7.81445 91.0127 7.47754 90.7148 7.24316C90.4219 7.00391 89.9702 6.88428 89.3599 6.88428C88.3589 6.88428 87.7632 7.28955 87.5728 8.1001L86.8989 8.01953L86.9941 6.73047C87.3066 6.58887 87.6729 6.47412 88.0928 6.38623C88.5127 6.29346 88.9814 6.24707 89.499 6.24707C90.5342 6.24707 91.2739 6.43506 91.7183 6.81104C92.1675 7.18701 92.3921 7.77783 92.3921 8.5835V11.3594C92.3921 11.6963 92.4092 11.9331 92.4434 12.0698C92.4775 12.2065 92.5435 12.2871 92.6411 12.3115C92.7388 12.3359 92.8853 12.3481 93.0806 12.3481H93.4102V13C93.332 12.9951 93.2539 12.9927 93.1758 12.9927C93.0977 12.9927 93.0195 12.9951 92.9414 13C92.8633 13 92.7852 13 92.707 13C92.4434 13.0049 92.1846 13.0098 91.9307 13.0146C91.6768 13.0195 91.4351 13.0244 91.2056 13.0293V12.0259C90.9126 12.397 90.5635 12.6777 90.1582 12.8682C89.7578 13.0586 89.2891 13.1538 88.752 13.1538ZM89.1255 12.4507C89.4429 12.4507 89.7578 12.3848 90.0703 12.2529C90.3828 12.1162 90.6416 11.916 90.8467 11.6523C91.0566 11.3887 91.1616 11.0591 91.1616 10.6636V9.9458C90.8687 9.86279 90.5903 9.79932 90.3267 9.75537C90.063 9.71143 89.8066 9.68945 89.5576 9.68945C88.9717 9.68945 88.5078 9.81641 88.166 10.0703C87.8291 10.3193 87.6606 10.6685 87.6606 11.1177C87.6606 11.5181 87.7974 11.8403 88.0708 12.0845C88.3442 12.3286 88.6958 12.4507 89.1255 12.4507ZM94.1133 13C94.1133 12.9609 94.1133 12.9121 94.1133 12.8535C94.1133 12.7949 94.1133 12.7339 94.1133 12.6704C94.1133 12.6021 94.1133 12.5386 94.1133 12.48C94.1133 12.4214 94.1133 12.3726 94.1133 12.3335C94.4795 12.3335 94.7407 12.3237 94.897 12.3042C95.0532 12.2847 95.1484 12.248 95.1826 12.1943C95.2217 12.1357 95.2412 12.0552 95.2412 11.9526V7.33838C95.2412 7.21631 95.168 7.14551 95.0215 7.12598C94.8799 7.10645 94.5918 7.09668 94.1572 7.09668C94.1572 7.04297 94.1572 6.97461 94.1572 6.8916C94.1572 6.80859 94.1548 6.72559 94.1499 6.64258C94.1499 6.55957 94.1499 6.49365 94.1499 6.44482C94.3159 6.44482 94.4746 6.44482 94.626 6.44482C94.7822 6.44482 94.9336 6.44238 95.0801 6.4375C95.3193 6.4375 95.5488 6.43506 95.7686 6.43018C95.9932 6.42041 96.2129 6.41309 96.4277 6.4082V7.44092C96.7598 7.07959 97.1431 6.80127 97.5776 6.60596C98.0122 6.40576 98.4712 6.30566 98.9546 6.30566C99.6675 6.30566 100.214 6.49854 100.595 6.88428C100.976 7.26514 101.167 7.86328 101.167 8.67871V12.0332C101.167 12.1846 101.242 12.27 101.394 12.2896C101.545 12.3091 101.811 12.3237 102.192 12.3335V13C101.953 13 101.716 13 101.481 13C101.252 12.9951 100.966 12.9902 100.625 12.9854C100.268 12.9854 99.9482 12.9878 99.665 12.9927C99.3818 12.9976 99.0986 13 98.8154 13V12.3335C99.1865 12.3335 99.4478 12.3237 99.5991 12.3042C99.7554 12.2847 99.8481 12.2505 99.8774 12.2017C99.9116 12.1528 99.9287 12.0845 99.9287 11.9966V9.10352C99.9287 8.44434 99.8433 7.95361 99.6724 7.63135C99.5015 7.30908 99.1401 7.14795 98.5884 7.14795C98.0562 7.14795 97.6191 7.27002 97.2773 7.51416C96.9355 7.7583 96.6719 7.99756 96.4863 8.23193C96.4814 8.4126 96.4766 8.5957 96.4717 8.78125C96.4668 8.96191 96.4644 9.1499 96.4644 9.34521V11.9893C96.4644 12.1602 96.5498 12.2603 96.7207 12.2896C96.8965 12.3188 97.1821 12.3335 97.5776 12.3335V13C97.3237 13 97.0723 13 96.8232 13C96.5791 12.9951 96.2788 12.9902 95.9224 12.9854C95.5562 12.9854 95.2314 12.9878 94.9482 12.9927C94.665 12.9976 94.3867 13 94.1133 13ZM102.866 13V12.3335C103.222 12.3335 103.474 12.3213 103.62 12.2969C103.771 12.2676 103.864 12.2188 103.898 12.1504C103.933 12.082 103.95 11.9844 103.95 11.8574V7.36768C103.95 7.23096 103.872 7.15283 103.715 7.1333C103.559 7.11377 103.288 7.10156 102.902 7.09668C102.902 6.98438 102.902 6.87451 102.902 6.76709C102.902 6.65967 102.902 6.55225 102.902 6.44482C103.103 6.44482 103.298 6.44482 103.488 6.44482C103.679 6.44482 103.864 6.44238 104.045 6.4375C104.24 6.43262 104.431 6.42773 104.616 6.42285C104.802 6.41797 104.99 6.41309 105.18 6.4082V11.8867C105.18 12.1064 105.263 12.2358 105.429 12.2749C105.6 12.314 105.883 12.3335 106.279 12.3335V13C106.152 13 105.981 13 105.766 13C105.556 12.9951 105.339 12.9927 105.114 12.9927C104.895 12.9927 104.704 12.9927 104.543 12.9927C104.382 12.9878 104.287 12.9854 104.257 12.9854C103.984 12.9854 103.74 12.9878 103.525 12.9927C103.31 12.9976 103.09 13 102.866 13ZM104.506 5.00195C104.292 5.00195 104.118 4.93848 103.986 4.81152C103.859 4.68457 103.796 4.51855 103.796 4.31348C103.796 4.1084 103.859 3.94482 103.986 3.82275C104.118 3.70068 104.289 3.63965 104.499 3.63965C104.714 3.63965 104.885 3.70068 105.012 3.82275C105.139 3.94482 105.202 4.11084 105.202 4.3208C105.202 4.521 105.139 4.68457 105.012 4.81152C104.885 4.93848 104.716 5.00195 104.506 5.00195ZM109.523 13.1538C108.825 13.1538 108.266 12.9658 107.846 12.5898C107.426 12.2139 107.216 11.7354 107.216 11.1543C107.216 10.5293 107.465 10.0264 107.963 9.64551C108.461 9.26465 109.157 9.07422 110.051 9.07422C110.354 9.07422 110.661 9.09863 110.974 9.14746C111.291 9.19141 111.611 9.25488 111.933 9.33789V8.25391C111.933 7.81445 111.784 7.47754 111.486 7.24316C111.193 7.00391 110.742 6.88428 110.131 6.88428C109.13 6.88428 108.535 7.28955 108.344 8.1001L107.67 8.01953L107.766 6.73047C108.078 6.58887 108.444 6.47412 108.864 6.38623C109.284 6.29346 109.753 6.24707 110.271 6.24707C111.306 6.24707 112.045 6.43506 112.49 6.81104C112.939 7.18701 113.164 7.77783 113.164 8.5835V11.3594C113.164 11.6963 113.181 11.9331 113.215 12.0698C113.249 12.2065 113.315 12.2871 113.413 12.3115C113.51 12.3359 113.657 12.3481 113.852 12.3481H114.182V13C114.104 12.9951 114.025 12.9927 113.947 12.9927C113.869 12.9927 113.791 12.9951 113.713 13C113.635 13 113.557 13 113.479 13C113.215 13.0049 112.956 13.0098 112.702 13.0146C112.448 13.0195 112.207 13.0244 111.977 13.0293V12.0259C111.684 12.397 111.335 12.6777 110.93 12.8682C110.529 13.0586 110.061 13.1538 109.523 13.1538ZM109.897 12.4507C110.214 12.4507 110.529 12.3848 110.842 12.2529C111.154 12.1162 111.413 11.916 111.618 11.6523C111.828 11.3887 111.933 11.0591 111.933 10.6636V9.9458C111.64 9.86279 111.362 9.79932 111.098 9.75537C110.834 9.71143 110.578 9.68945 110.329 9.68945C109.743 9.68945 109.279 9.81641 108.938 10.0703C108.601 10.3193 108.432 10.6685 108.432 11.1177C108.432 11.5181 108.569 11.8403 108.842 12.0845C109.116 12.3286 109.467 12.4507 109.897 12.4507ZM114.885 13C114.885 12.9609 114.885 12.9121 114.885 12.8535C114.885 12.7949 114.885 12.7339 114.885 12.6704C114.885 12.6021 114.885 12.5386 114.885 12.48C114.885 12.4214 114.885 12.3726 114.885 12.3335C115.251 12.3335 115.512 12.3237 115.668 12.3042C115.825 12.2847 115.92 12.248 115.954 12.1943C115.993 12.1357 116.013 12.0552 116.013 11.9526V7.33838C116.013 7.21631 115.939 7.14551 115.793 7.12598C115.651 7.10645 115.363 7.09668 114.929 7.09668C114.929 7.04297 114.929 6.97461 114.929 6.8916C114.929 6.80859 114.926 6.72559 114.921 6.64258C114.921 6.55957 114.921 6.49365 114.921 6.44482C115.087 6.44482 115.246 6.44482 115.397 6.44482C115.554 6.44482 115.705 6.44238 115.852 6.4375C116.091 6.4375 116.32 6.43506 116.54 6.43018C116.765 6.42041 116.984 6.41309 117.199 6.4082V7.44092C117.531 7.07959 117.915 6.80127 118.349 6.60596C118.784 6.40576 119.243 6.30566 119.726 6.30566C120.439 6.30566 120.986 6.49854 121.367 6.88428C121.748 7.26514 121.938 7.86328 121.938 8.67871V12.0332C121.938 12.1846 122.014 12.27 122.165 12.2896C122.316 12.3091 122.583 12.3237 122.963 12.3335V13C122.724 13 122.487 13 122.253 13C122.023 12.9951 121.738 12.9902 121.396 12.9854C121.04 12.9854 120.72 12.9878 120.437 12.9927C120.153 12.9976 119.87 13 119.587 13V12.3335C119.958 12.3335 120.219 12.3237 120.371 12.3042C120.527 12.2847 120.62 12.2505 120.649 12.2017C120.683 12.1528 120.7 12.0845 120.7 11.9966V9.10352C120.7 8.44434 120.615 7.95361 120.444 7.63135C120.273 7.30908 119.912 7.14795 119.36 7.14795C118.828 7.14795 118.391 7.27002 118.049 7.51416C117.707 7.7583 117.443 7.99756 117.258 8.23193C117.253 8.4126 117.248 8.5957 117.243 8.78125C117.238 8.96191 117.236 9.1499 117.236 9.34521V11.9893C117.236 12.1602 117.321 12.2603 117.492 12.2896C117.668 12.3188 117.954 12.3335 118.349 12.3335V13C118.095 13 117.844 13 117.595 13C117.351 12.9951 117.05 12.9902 116.694 12.9854C116.328 12.9854 116.003 12.9878 115.72 12.9927C115.437 12.9976 115.158 13 114.885 13ZM126.713 13.1538C126.21 13.1538 125.788 13.0928 125.446 12.9707C125.109 12.8438 124.833 12.6509 124.619 12.3921L124.545 12.9414C124.438 12.9414 124.331 12.9414 124.223 12.9414C124.121 12.9365 124.013 12.9341 123.901 12.9341V10.8247H124.611C124.621 11.3765 124.794 11.7988 125.131 12.0918C125.468 12.3799 125.939 12.5239 126.545 12.5239C127.043 12.5239 127.448 12.4238 127.761 12.2236C128.073 12.0186 128.229 11.7427 128.229 11.396C128.229 11.1372 128.132 10.9321 127.937 10.7808C127.741 10.6245 127.482 10.4927 127.16 10.3853C126.843 10.2778 126.494 10.1704 126.113 10.063C125.654 9.92139 125.268 9.77002 124.956 9.60889C124.643 9.44775 124.409 9.25 124.252 9.01562C124.096 8.78125 124.018 8.48828 124.018 8.13672C124.018 7.62402 124.23 7.19189 124.655 6.84033C125.085 6.48389 125.659 6.30566 126.376 6.30566C126.777 6.30566 127.155 6.35938 127.512 6.4668C127.868 6.56934 128.156 6.73535 128.376 6.96484C128.381 6.95508 128.396 6.91113 128.42 6.83301C128.444 6.75 128.469 6.66943 128.493 6.59131C128.518 6.5083 128.53 6.4668 128.53 6.4668C128.53 6.4668 128.571 6.46924 128.654 6.47412C128.737 6.47412 128.823 6.47412 128.911 6.47412C129.003 6.47412 129.06 6.47656 129.079 6.48145V8.47363H128.391C128.371 7.98535 128.208 7.60938 127.9 7.3457C127.592 7.07715 127.153 6.94287 126.582 6.94287C126.093 6.94287 125.729 7.05029 125.49 7.26514C125.251 7.47998 125.131 7.72656 125.131 8.00488C125.131 8.30762 125.285 8.54199 125.593 8.70801C125.9 8.86914 126.298 9.01318 126.787 9.14014C127.314 9.27686 127.771 9.42578 128.156 9.58691C128.547 9.74316 128.847 9.94824 129.057 10.2021C129.267 10.4561 129.372 10.7954 129.372 11.2202C129.372 11.6353 129.262 11.9868 129.042 12.2749C128.823 12.563 128.513 12.7827 128.112 12.9341C127.717 13.0806 127.25 13.1538 126.713 13.1538ZM137.019 15.2339C136.037 15.2339 135.148 15.0874 134.353 14.7944C133.557 14.5015 132.871 14.0864 132.294 13.5493C131.723 13.0171 131.284 12.3872 130.976 11.6597C130.668 10.9272 130.515 10.1265 130.515 9.25732C130.515 8.40771 130.668 7.59961 130.976 6.83301C131.289 6.06152 131.735 5.37793 132.316 4.78223C132.902 4.18164 133.605 3.71045 134.426 3.36865C135.251 3.02197 136.174 2.84863 137.194 2.84863C138.098 2.84863 138.891 2.98291 139.575 3.25146C140.258 3.52002 140.83 3.88867 141.289 4.35742C141.748 4.82617 142.094 5.36328 142.329 5.96875C142.563 6.57422 142.68 7.21631 142.68 7.89502C142.68 8.5542 142.573 9.16699 142.358 9.7334C142.148 10.2998 141.865 10.7954 141.508 11.2202C141.157 11.6401 140.766 11.9697 140.336 12.209C139.912 12.4434 139.482 12.5605 139.047 12.5605C138.632 12.5605 138.322 12.4531 138.117 12.2383C137.912 12.0186 137.829 11.6646 137.868 11.1763C137.863 11.1763 137.858 11.1763 137.854 11.1763C137.854 11.1714 137.851 11.1689 137.846 11.1689C137.519 11.6328 137.163 11.9795 136.777 12.209C136.391 12.4385 135.976 12.5532 135.532 12.5532C135.087 12.5532 134.694 12.4385 134.353 12.209C134.011 11.9795 133.742 11.6621 133.547 11.2568C133.356 10.8467 133.261 10.3779 133.261 9.85059C133.261 9.4209 133.342 8.9668 133.503 8.48828C133.664 8.00977 133.898 7.56055 134.206 7.14062C134.519 6.7207 134.897 6.37891 135.341 6.11523C135.786 5.85156 136.289 5.71973 136.85 5.71973C137.314 5.71973 137.702 5.82715 138.015 6.04199C138.327 6.25195 138.571 6.58887 138.747 7.05273L139.055 5.83691H140.065L138.945 10.4292C138.911 10.605 138.869 10.7881 138.82 10.9785C138.776 11.1689 138.754 11.3276 138.754 11.4546C138.754 11.8452 138.925 12.0405 139.267 12.0405C139.619 12.0405 140.009 11.8818 140.439 11.5645C140.947 11.1885 141.359 10.6831 141.677 10.0483C141.994 9.40869 142.153 8.66162 142.153 7.80713C142.153 7.23096 142.05 6.67676 141.845 6.14453C141.645 5.6123 141.342 5.13623 140.937 4.71631C140.532 4.29639 140.024 3.96436 139.414 3.72021C138.803 3.47607 138.088 3.354 137.268 3.354C136.379 3.354 135.568 3.50537 134.836 3.80811C134.104 4.10596 133.471 4.52588 132.939 5.06787C132.412 5.60986 132.004 6.24707 131.716 6.97949C131.433 7.70703 131.291 8.50293 131.291 9.36719C131.291 10.4365 131.535 11.374 132.023 12.1797C132.517 12.9805 133.195 13.6055 134.06 14.0547C134.929 14.5039 135.93 14.7285 137.062 14.7285C137.922 14.7285 138.74 14.5869 139.516 14.3037C140.292 14.0254 141.013 13.5688 141.677 12.9341L142.219 13.0732C141.589 13.7373 140.832 14.2622 139.948 14.6479C139.064 15.0386 138.088 15.2339 137.019 15.2339ZM135.751 11.9966C136.127 11.9966 136.477 11.8623 136.799 11.5938C137.121 11.3203 137.399 10.9712 137.634 10.5464C137.873 10.1216 138.059 9.6748 138.19 9.20605C138.322 8.73242 138.388 8.29541 138.388 7.89502C138.388 7.40674 138.251 7.00146 137.978 6.6792C137.705 6.35693 137.351 6.1958 136.916 6.1958C136.521 6.1958 136.162 6.33496 135.839 6.61328C135.522 6.88672 135.249 7.23584 135.019 7.66064C134.79 8.08057 134.614 8.51758 134.492 8.97168C134.37 9.4209 134.309 9.81885 134.309 10.1655C134.309 10.7368 134.438 11.186 134.697 11.5132C134.96 11.8354 135.312 11.9966 135.751 11.9966ZM147.236 16.1201C146.723 16.1201 146.264 16.0518 145.859 15.915C145.458 15.7783 145.058 15.5977 144.658 15.373L144.716 13.6592C144.721 13.6592 144.78 13.6592 144.892 13.6592C145.004 13.6592 145.114 13.6592 145.222 13.6592C145.334 13.6592 145.39 13.6592 145.39 13.6592C145.473 14.2402 145.688 14.6797 146.035 14.9775C146.381 15.2803 146.843 15.4316 147.419 15.4316C148.039 15.4316 148.549 15.2559 148.95 14.9043C149.355 14.5527 149.56 13.9692 149.565 13.1538C149.565 13.1489 149.565 13.0757 149.565 12.9341C149.565 12.7925 149.565 12.6289 149.565 12.4434C149.565 12.2578 149.565 12.0942 149.565 11.9526C149.565 11.8062 149.565 11.7329 149.565 11.7329C149.296 12.1479 148.947 12.4629 148.518 12.6777C148.088 12.8877 147.609 12.9927 147.082 12.9927C146.442 12.9927 145.881 12.856 145.397 12.5825C144.914 12.3091 144.538 11.9258 144.27 11.4326C144.006 10.9346 143.874 10.3535 143.874 9.68945C143.874 9.02051 144.011 8.43213 144.284 7.92432C144.558 7.41162 144.936 7.01123 145.419 6.72314C145.908 6.43506 146.469 6.29102 147.104 6.29102C147.651 6.29102 148.137 6.41797 148.562 6.67188C148.991 6.92578 149.355 7.26514 149.653 7.68994V6.41553C149.873 6.42529 150.09 6.43506 150.305 6.44482C150.524 6.44971 150.742 6.45215 150.957 6.45215C151.147 6.45215 151.313 6.45215 151.455 6.45215C151.601 6.44727 151.745 6.44482 151.887 6.44482V7.104C151.809 7.104 151.735 7.104 151.667 7.104C151.599 7.104 151.535 7.10645 151.477 7.11133C151.14 7.12598 150.939 7.1748 150.876 7.25781C150.812 7.33594 150.781 7.47021 150.781 7.66064V12.5459C150.781 13.459 150.637 14.1743 150.349 14.6919C150.065 15.2144 149.66 15.583 149.133 15.7979C148.605 16.0127 147.973 16.1201 147.236 16.1201ZM147.375 12.2676C148.044 12.2676 148.581 12.0259 148.986 11.5425C149.396 11.0591 149.602 10.4243 149.602 9.63818C149.602 8.87646 149.396 8.26123 148.986 7.79248C148.576 7.31885 148.034 7.08203 147.36 7.08203C146.696 7.08203 146.162 7.32129 145.756 7.7998C145.351 8.27832 145.148 8.91064 145.148 9.69678C145.148 10.4829 145.349 11.1079 145.749 11.5718C146.154 12.0356 146.696 12.2676 147.375 12.2676ZM152.443 13V12.3335C152.8 12.3335 153.054 12.3188 153.205 12.2896C153.356 12.2603 153.447 12.2163 153.476 12.1577C153.51 12.0942 153.527 12.0161 153.527 11.9233V7.43359C153.527 7.27246 153.449 7.17725 153.293 7.14795C153.137 7.11377 152.866 7.09668 152.48 7.09668V6.44482C152.578 6.44482 152.673 6.44727 152.766 6.45215C152.863 6.45215 152.98 6.45215 153.117 6.45215C153.376 6.45215 153.637 6.44727 153.901 6.4375C154.165 6.42773 154.428 6.42041 154.692 6.41553V7.49951C155.019 7.11377 155.4 6.81836 155.834 6.61328C156.274 6.40332 156.752 6.29834 157.27 6.29834C157.705 6.29834 158.09 6.40332 158.427 6.61328C158.769 6.82324 159.025 7.13086 159.196 7.53613C159.553 7.13574 159.951 6.83057 160.39 6.62061C160.83 6.41064 161.293 6.30566 161.782 6.30566C162.377 6.30566 162.824 6.43018 163.122 6.6792C163.425 6.92822 163.625 7.27979 163.723 7.73389C163.825 8.18311 163.876 8.71289 163.876 9.32324V12.0112C163.876 12.1724 163.95 12.2651 164.096 12.2896C164.243 12.3091 164.516 12.3237 164.917 12.3335V13C164.648 13 164.377 12.9976 164.104 12.9927C163.83 12.9878 163.518 12.9854 163.166 12.9854C162.829 12.9854 162.539 12.9878 162.294 12.9927C162.05 12.9976 161.801 13 161.547 13V12.3335C161.967 12.3237 162.255 12.3018 162.412 12.2676C162.568 12.2285 162.646 12.1138 162.646 11.9233V9.09619C162.646 8.44189 162.565 7.95117 162.404 7.62402C162.243 7.29688 161.887 7.1333 161.335 7.1333C160.881 7.1333 160.495 7.23828 160.178 7.44824C159.865 7.6582 159.594 7.91699 159.365 8.22461C159.355 8.40039 159.348 8.57861 159.343 8.75928C159.338 8.93994 159.335 9.12549 159.335 9.31592V11.9746C159.335 12.1504 159.404 12.2529 159.541 12.2822C159.682 12.3066 159.958 12.3237 160.368 12.3335V13C160.124 13 159.882 13 159.643 13C159.409 12.9951 159.121 12.9902 158.779 12.9854C158.422 12.9854 158.107 12.9878 157.834 12.9927C157.561 12.9976 157.287 13 157.014 13V12.3335C157.429 12.3237 157.712 12.2993 157.863 12.2603C158.02 12.2212 158.098 12.1113 158.098 11.9307V9.09619C158.098 8.45654 158.02 7.96338 157.863 7.6167C157.707 7.27002 157.351 7.09668 156.794 7.09668C156.33 7.09668 155.949 7.19922 155.651 7.4043C155.354 7.60938 155.068 7.87793 154.794 8.20996C154.79 8.21484 154.785 8.28076 154.78 8.40771C154.775 8.53467 154.77 8.69824 154.765 8.89844C154.765 9.06934 154.763 9.25732 154.758 9.4624C154.758 9.66748 154.755 9.87744 154.75 10.0923C154.75 10.3071 154.75 10.5171 154.75 10.7222C154.75 10.9272 154.75 11.1128 154.75 11.2788C154.75 11.6499 154.76 11.9087 154.78 12.0552C154.804 12.2017 154.892 12.2847 155.043 12.3042C155.2 12.3237 155.473 12.3335 155.864 12.3335V13C155.61 13 155.358 13 155.109 13C154.865 12.9951 154.565 12.9902 154.208 12.9854C153.852 12.9854 153.537 12.9878 153.264 12.9927C152.99 12.9976 152.717 13 152.443 13ZM168.146 13.1538C167.448 13.1538 166.889 12.9658 166.469 12.5898C166.049 12.2139 165.839 11.7354 165.839 11.1543C165.839 10.5293 166.088 10.0264 166.586 9.64551C167.084 9.26465 167.78 9.07422 168.674 9.07422C168.977 9.07422 169.284 9.09863 169.597 9.14746C169.914 9.19141 170.234 9.25488 170.556 9.33789V8.25391C170.556 7.81445 170.407 7.47754 170.109 7.24316C169.816 7.00391 169.365 6.88428 168.754 6.88428C167.753 6.88428 167.158 7.28955 166.967 8.1001L166.293 8.01953L166.389 6.73047C166.701 6.58887 167.067 6.47412 167.487 6.38623C167.907 6.29346 168.376 6.24707 168.894 6.24707C169.929 6.24707 170.668 6.43506 171.113 6.81104C171.562 7.18701 171.787 7.77783 171.787 8.5835V11.3594C171.787 11.6963 171.804 11.9331 171.838 12.0698C171.872 12.2065 171.938 12.2871 172.036 12.3115C172.133 12.3359 172.28 12.3481 172.475 12.3481H172.805V13C172.727 12.9951 172.648 12.9927 172.57 12.9927C172.492 12.9927 172.414 12.9951 172.336 13C172.258 13 172.18 13 172.102 13C171.838 13.0049 171.579 13.0098 171.325 13.0146C171.071 13.0195 170.83 13.0244 170.6 13.0293V12.0259C170.307 12.397 169.958 12.6777 169.553 12.8682C169.152 13.0586 168.684 13.1538 168.146 13.1538ZM168.52 12.4507C168.837 12.4507 169.152 12.3848 169.465 12.2529C169.777 12.1162 170.036 11.916 170.241 11.6523C170.451 11.3887 170.556 11.0591 170.556 10.6636V9.9458C170.263 9.86279 169.985 9.79932 169.721 9.75537C169.458 9.71143 169.201 9.68945 168.952 9.68945C168.366 9.68945 167.902 9.81641 167.561 10.0703C167.224 10.3193 167.055 10.6685 167.055 11.1177C167.055 11.5181 167.192 11.8403 167.465 12.0845C167.739 12.3286 168.09 12.4507 168.52 12.4507ZM173.603 13V12.3335C173.959 12.3335 174.211 12.3213 174.357 12.2969C174.509 12.2676 174.602 12.2188 174.636 12.1504C174.67 12.082 174.687 11.9844 174.687 11.8574V7.36768C174.687 7.23096 174.609 7.15283 174.453 7.1333C174.296 7.11377 174.025 7.10156 173.64 7.09668C173.64 6.98438 173.64 6.87451 173.64 6.76709C173.64 6.65967 173.64 6.55225 173.64 6.44482C173.84 6.44482 174.035 6.44482 174.226 6.44482C174.416 6.44482 174.602 6.44238 174.782 6.4375C174.978 6.43262 175.168 6.42773 175.354 6.42285C175.539 6.41797 175.727 6.41309 175.917 6.4082V11.8867C175.917 12.1064 176 12.2358 176.167 12.2749C176.337 12.314 176.621 12.3335 177.016 12.3335V13C176.889 13 176.718 13 176.503 13C176.293 12.9951 176.076 12.9927 175.852 12.9927C175.632 12.9927 175.441 12.9927 175.28 12.9927C175.119 12.9878 175.024 12.9854 174.995 12.9854C174.721 12.9854 174.477 12.9878 174.262 12.9927C174.047 12.9976 173.828 13 173.603 13ZM175.244 5.00195C175.029 5.00195 174.855 4.93848 174.724 4.81152C174.597 4.68457 174.533 4.51855 174.533 4.31348C174.533 4.1084 174.597 3.94482 174.724 3.82275C174.855 3.70068 175.026 3.63965 175.236 3.63965C175.451 3.63965 175.622 3.70068 175.749 3.82275C175.876 3.94482 175.939 4.11084 175.939 4.3208C175.939 4.521 175.876 4.68457 175.749 4.81152C175.622 4.93848 175.454 5.00195 175.244 5.00195ZM177.587 13C177.587 12.9609 177.587 12.9121 177.587 12.8535C177.587 12.7949 177.585 12.7339 177.58 12.6704C177.58 12.6021 177.58 12.5386 177.58 12.48C177.58 12.4214 177.58 12.3726 177.58 12.3335C177.951 12.3335 178.212 12.3115 178.364 12.2676C178.515 12.2236 178.605 12.1577 178.635 12.0698C178.669 11.9819 178.686 11.8721 178.686 11.7402V4.5625C178.686 4.38184 178.593 4.27686 178.408 4.24756C178.222 4.21826 177.958 4.20117 177.617 4.19629V3.53711C177.749 3.53711 177.875 3.53711 177.998 3.53711C178.12 3.53223 178.242 3.52979 178.364 3.52979C178.491 3.52979 178.615 3.52979 178.737 3.52979C178.923 3.5249 179.111 3.52246 179.301 3.52246C179.497 3.51758 179.699 3.5127 179.909 3.50781V11.8208C179.909 12.0601 180.002 12.2065 180.188 12.2603C180.378 12.3091 180.661 12.3335 181.037 12.3335V13C180.769 13 180.5 13 180.231 13C179.968 12.9951 179.655 12.9902 179.294 12.9854C178.938 12.9854 178.63 12.9878 178.371 12.9927C178.112 12.9976 177.851 13 177.587 13ZM183.608 13.0659C183.325 13.0659 183.127 12.9878 183.015 12.8315C182.902 12.6753 182.846 12.5068 182.846 12.3262C182.846 12.1553 182.902 11.9917 183.015 11.8354C183.132 11.6743 183.33 11.5938 183.608 11.5938C183.886 11.5938 184.084 11.6743 184.201 11.8354C184.318 11.9917 184.377 12.1553 184.377 12.3262C184.377 12.502 184.318 12.6704 184.201 12.8315C184.089 12.9878 183.891 13.0659 183.608 13.0659ZM189.577 13.2051C188.898 13.2051 188.305 13.0635 187.797 12.7803C187.29 12.4922 186.896 12.0918 186.618 11.5791C186.34 11.0615 186.201 10.4585 186.201 9.77002C186.201 9.11572 186.337 8.52979 186.611 8.01221C186.884 7.48975 187.263 7.07715 187.746 6.77441C188.229 6.47168 188.789 6.32031 189.423 6.32031C189.819 6.32031 190.192 6.37158 190.544 6.47412C190.9 6.57666 191.196 6.77197 191.43 7.06006L191.613 6.48145C191.638 6.48145 191.699 6.48389 191.796 6.48877C191.899 6.48877 191.999 6.48877 192.097 6.48877C192.199 6.48877 192.263 6.49121 192.287 6.49609V8.78125H191.569C191.55 8.19531 191.374 7.7583 191.042 7.47021C190.715 7.18213 190.268 7.03809 189.702 7.03809C189.008 7.03809 188.466 7.27734 188.076 7.75586C187.69 8.23438 187.497 8.88867 187.497 9.71875C187.497 10.5586 187.697 11.2251 188.098 11.7183C188.498 12.2065 189.038 12.4507 189.716 12.4507C190.205 12.4507 190.612 12.3213 190.939 12.0625C191.271 11.7988 191.503 11.4277 191.635 10.9492L192.492 11.0957C192.341 11.7646 192.009 12.2847 191.496 12.6558C190.988 13.022 190.349 13.2051 189.577 13.2051ZM197.099 13.2051C196.411 13.2051 195.805 13.061 195.283 12.7729C194.76 12.4849 194.35 12.082 194.052 11.5645C193.759 11.042 193.613 10.4292 193.613 9.72607C193.613 9.02295 193.759 8.41016 194.052 7.8877C194.35 7.36523 194.76 6.9624 195.283 6.6792C195.81 6.39111 196.416 6.24707 197.099 6.24707C197.788 6.24707 198.393 6.39111 198.916 6.6792C199.443 6.9624 199.855 7.36523 200.153 7.8877C200.451 8.40527 200.6 9.01807 200.6 9.72607C200.6 10.4243 200.451 11.0347 200.153 11.5571C199.86 12.0796 199.45 12.4849 198.923 12.7729C198.4 13.061 197.792 13.2051 197.099 13.2051ZM197.099 12.4434C197.773 12.4434 198.312 12.1968 198.718 11.7036C199.123 11.2104 199.326 10.5488 199.326 9.71875C199.326 8.88379 199.123 8.22217 198.718 7.73389C198.317 7.24561 197.778 7.00146 197.099 7.00146C196.42 7.00146 195.881 7.24561 195.48 7.73389C195.08 8.21729 194.88 8.87891 194.88 9.71875C194.88 10.5488 195.08 11.2104 195.48 11.7036C195.881 12.1968 196.42 12.4434 197.099 12.4434ZM201.516 13V12.3335C201.872 12.3335 202.126 12.3188 202.277 12.2896C202.429 12.2603 202.519 12.2163 202.548 12.1577C202.583 12.0942 202.6 12.0161 202.6 11.9233V7.43359C202.6 7.27246 202.521 7.17725 202.365 7.14795C202.209 7.11377 201.938 7.09668 201.552 7.09668V6.44482C201.65 6.44482 201.745 6.44727 201.838 6.45215C201.936 6.45215 202.053 6.45215 202.189 6.45215C202.448 6.45215 202.709 6.44727 202.973 6.4375C203.237 6.42773 203.5 6.42041 203.764 6.41553V7.49951C204.091 7.11377 204.472 6.81836 204.907 6.61328C205.346 6.40332 205.825 6.29834 206.342 6.29834C206.777 6.29834 207.163 6.40332 207.5 6.61328C207.841 6.82324 208.098 7.13086 208.269 7.53613C208.625 7.13574 209.023 6.83057 209.462 6.62061C209.902 6.41064 210.366 6.30566 210.854 6.30566C211.45 6.30566 211.896 6.43018 212.194 6.6792C212.497 6.92822 212.697 7.27979 212.795 7.73389C212.897 8.18311 212.949 8.71289 212.949 9.32324V12.0112C212.949 12.1724 213.022 12.2651 213.168 12.2896C213.315 12.3091 213.588 12.3237 213.989 12.3335V13C213.72 13 213.449 12.9976 213.176 12.9927C212.902 12.9878 212.59 12.9854 212.238 12.9854C211.901 12.9854 211.611 12.9878 211.367 12.9927C211.123 12.9976 210.874 13 210.62 13V12.3335C211.04 12.3237 211.328 12.3018 211.484 12.2676C211.64 12.2285 211.718 12.1138 211.718 11.9233V9.09619C211.718 8.44189 211.638 7.95117 211.477 7.62402C211.315 7.29688 210.959 7.1333 210.407 7.1333C209.953 7.1333 209.567 7.23828 209.25 7.44824C208.938 7.6582 208.667 7.91699 208.437 8.22461C208.427 8.40039 208.42 8.57861 208.415 8.75928C208.41 8.93994 208.408 9.12549 208.408 9.31592V11.9746C208.408 12.1504 208.476 12.2529 208.613 12.2822C208.754 12.3066 209.03 12.3237 209.44 12.3335V13C209.196 13 208.955 13 208.715 13C208.481 12.9951 208.193 12.9902 207.851 12.9854C207.495 12.9854 207.18 12.9878 206.906 12.9927C206.633 12.9976 206.359 13 206.086 13V12.3335C206.501 12.3237 206.784 12.2993 206.936 12.2603C207.092 12.2212 207.17 12.1113 207.17 11.9307V9.09619C207.17 8.45654 207.092 7.96338 206.936 7.6167C206.779 7.27002 206.423 7.09668 205.866 7.09668C205.402 7.09668 205.021 7.19922 204.724 7.4043C204.426 7.60938 204.14 7.87793 203.867 8.20996C203.862 8.21484 203.857 8.28076 203.852 8.40771C203.847 8.53467 203.842 8.69824 203.837 8.89844C203.837 9.06934 203.835 9.25732 203.83 9.4624C203.83 9.66748 203.828 9.87744 203.823 10.0923C203.823 10.3071 203.823 10.5171 203.823 10.7222C203.823 10.9272 203.823 11.1128 203.823 11.2788C203.823 11.6499 203.833 11.9087 203.852 12.0552C203.876 12.2017 203.964 12.2847 204.116 12.3042C204.272 12.3237 204.545 12.3335 204.936 12.3335V13C204.682 13 204.431 13 204.182 13C203.938 12.9951 203.637 12.9902 203.281 12.9854C202.924 12.9854 202.609 12.9878 202.336 12.9927C202.062 12.9976 201.789 13 201.516 13ZM36.0132 27.8154C35.4725 27.4717 35.0428 27.0599 34.7241 26.5801C34.4054 26.1038 34.1763 25.5972 34.0366 25.0601C33.9006 24.5194 33.8325 23.9858 33.8325 23.4595C33.8325 22.8866 33.9023 22.3226 34.042 21.7676C34.1852 21.209 34.4162 20.6916 34.7349 20.2153C35.0571 19.7391 35.4868 19.3363 36.0239 19.0068L36.4375 19.3022C35.8646 19.7964 35.4403 20.38 35.1646 21.0532C34.8888 21.7264 34.751 22.5106 34.751 23.4058C34.751 24.3009 34.8853 25.0815 35.1538 25.7476C35.4224 26.4136 35.8467 27.0062 36.4268 27.5254L36.0132 27.8154ZM39.8267 26.1235C38.9959 26.1235 38.3621 25.821 37.9253 25.2158C37.492 24.6107 37.2754 23.7155 37.2754 22.5303C37.2754 21.3558 37.492 20.4642 37.9253 19.8555C38.3586 19.2432 38.9924 18.937 39.8267 18.937C40.6574 18.937 41.2894 19.2414 41.7227 19.8501C42.1559 20.4552 42.3726 21.3486 42.3726 22.5303C42.3726 23.3252 42.2741 23.9894 42.0771 24.5229C41.8838 25.0529 41.5973 25.4521 41.2178 25.7207C40.8382 25.9893 40.3745 26.1235 39.8267 26.1235ZM39.8267 25.5596C40.3996 25.5596 40.8167 25.3 41.0781 24.7808C41.3431 24.2616 41.4756 23.5096 41.4756 22.5249C41.4756 21.5008 41.3377 20.7381 41.062 20.2368C40.7899 19.7319 40.3781 19.4795 39.8267 19.4795C39.2752 19.4795 38.8617 19.7319 38.5859 20.2368C38.3138 20.7381 38.1777 21.4972 38.1777 22.5142C38.1777 23.5096 38.3066 24.2669 38.5645 24.7861C38.8223 25.3018 39.243 25.5596 39.8267 25.5596ZM44.8164 25.9946C44.9059 25.3537 45.0617 24.6715 45.2837 23.9482C45.5093 23.2249 45.8101 22.4998 46.186 21.7729C46.562 21.0425 47.0203 20.3496 47.561 19.6943H45.2085C44.922 19.6943 44.7161 19.7033 44.5908 19.7212C44.4655 19.7355 44.3885 19.7642 44.3599 19.8071C44.3348 19.8465 44.3223 19.9056 44.3223 19.9844V20.8652H43.7314V19.0713H48.3237V19.8071C47.8188 20.4839 47.3892 21.175 47.0347 21.8804C46.6838 22.5858 46.4027 23.2876 46.1914 23.9858C45.9801 24.6805 45.8333 25.3501 45.751 25.9946H44.8164ZM49.7256 26C49.722 25.9642 49.7202 25.9266 49.7202 25.8872C49.7202 25.8478 49.7202 25.8084 49.7202 25.769C49.7202 25.2856 49.79 24.8703 49.9297 24.5229C50.0693 24.172 50.2627 23.8641 50.5098 23.5991C50.7568 23.3306 51.0415 23.0817 51.3638 22.8525C51.686 22.6234 52.0316 22.387 52.4004 22.1436C52.626 21.9932 52.8122 21.8481 52.959 21.7085C53.1058 21.5688 53.215 21.4185 53.2866 21.2573C53.3618 21.0926 53.3994 20.9064 53.3994 20.6987C53.3994 20.3263 53.2687 20.0309 53.0073 19.8125C52.7495 19.5905 52.4147 19.4795 52.0029 19.4795C51.4229 19.4795 51.0272 19.6048 50.8159 19.8555C50.6047 20.1061 50.4972 20.4588 50.4937 20.9136L49.8813 20.8975V19.5815C50.1463 19.3703 50.4578 19.2109 50.8159 19.1035C51.1776 18.9961 51.6234 18.9424 52.1533 18.9424C52.8265 18.9424 53.3475 19.1053 53.7163 19.4312C54.0887 19.7534 54.2749 20.2064 54.2749 20.79C54.2749 21.1481 54.1979 21.4471 54.0439 21.687C53.8936 21.9233 53.6644 22.1525 53.3564 22.3745C53.0485 22.5965 52.66 22.8633 52.1909 23.1748C51.7612 23.4613 51.4264 23.7334 51.1865 23.9912C50.9502 24.2454 50.7855 24.4889 50.6924 24.7217C50.5993 24.9508 50.5527 25.1711 50.5527 25.3823H53.3457C53.4639 25.3823 53.548 25.3483 53.5981 25.2803C53.6483 25.2122 53.6787 25.0762 53.6895 24.8721C53.7038 24.6644 53.7109 24.3582 53.7109 23.9536H54.2749V26H49.7256ZM55.8862 27.8154L55.4673 27.5254C56.0545 27.0169 56.4842 26.4243 56.7563 25.7476C57.0321 25.0672 57.1699 24.2741 57.1699 23.3682C57.1699 22.4801 57.0321 21.7013 56.7563 21.0317C56.4842 20.3621 56.0545 19.7677 55.4673 19.2485C55.5496 19.2091 55.6302 19.1698 55.709 19.1304C55.7913 19.0874 55.8737 19.0462 55.9561 19.0068C56.4717 19.3649 56.8853 19.7803 57.1968 20.2529C57.5083 20.722 57.7339 21.2215 57.8735 21.7515C58.0168 22.2778 58.0884 22.8114 58.0884 23.3521C58.0884 23.9106 58.0186 24.4674 57.8789 25.0225C57.7428 25.5739 57.5137 26.0895 57.1914 26.5693C56.8727 27.0527 56.4377 27.4681 55.8862 27.8154ZM64.2275 26.1182C63.6904 26.1182 63.2357 25.9982 62.8633 25.7583C62.4945 25.5148 62.2152 25.1424 62.0254 24.6411C61.8356 24.1398 61.7407 23.5024 61.7407 22.729C61.7407 22.0057 61.8249 21.3594 61.9932 20.79C62.165 20.2171 62.4461 19.766 62.8364 19.4365C63.2303 19.1035 63.7585 18.937 64.4209 18.937C64.9079 18.937 65.3125 18.9961 65.6348 19.1143C65.957 19.2324 66.2274 19.3703 66.4458 19.5278V20.5806H65.9141C65.9069 20.201 65.7887 19.9199 65.5596 19.7373C65.3304 19.5511 64.9526 19.458 64.4263 19.458C63.7746 19.458 63.3109 19.7087 63.0352 20.21C62.7594 20.7077 62.6198 21.4202 62.6162 22.3477C62.8525 22.0684 63.1265 21.8589 63.438 21.7192C63.7495 21.576 64.0843 21.5044 64.4424 21.5044C64.89 21.5044 65.2785 21.5993 65.6079 21.7891C65.9409 21.9753 66.1987 22.2349 66.3813 22.5679C66.564 22.9009 66.6553 23.2894 66.6553 23.7334C66.6553 24.2132 66.555 24.6322 66.3545 24.9902C66.1576 25.3483 65.8783 25.6258 65.5166 25.8228C65.1549 26.0197 64.7253 26.1182 64.2275 26.1182ZM64.249 25.5757C64.7109 25.5757 65.0798 25.4217 65.3555 25.1138C65.6348 24.8058 65.7744 24.3726 65.7744 23.814C65.7744 23.3127 65.6491 22.8991 65.3984 22.5732C65.1478 22.2438 64.7682 22.0791 64.2598 22.0791C63.9948 22.0791 63.737 22.1418 63.4863 22.2671C63.2393 22.3888 63.0208 22.5607 62.8311 22.7827C62.7093 23.0369 62.6484 23.3306 62.6484 23.6636C62.6484 24.258 62.7935 24.7253 63.0835 25.0654C63.3735 25.4056 63.762 25.5757 64.249 25.5757ZM70.2324 26.1235C69.4447 26.1235 68.827 25.9463 68.3794 25.5918C67.9354 25.2373 67.7134 24.7575 67.7134 24.1523C67.7134 23.6976 67.8512 23.3162 68.127 23.0083C68.4027 22.7004 68.8037 22.4766 69.3301 22.3369C68.8896 22.2223 68.5495 22.0218 68.3096 21.7354C68.0697 21.4489 67.9497 21.1087 67.9497 20.7148C67.9497 20.1598 68.1556 19.7248 68.5674 19.4097C68.9827 19.0946 69.5413 18.937 70.2432 18.937C70.9629 18.937 71.5304 19.0946 71.9458 19.4097C72.3647 19.7248 72.5742 20.1545 72.5742 20.6987C72.5742 21.5187 72.0998 22.0594 71.1509 22.3208C71.6987 22.4533 72.1105 22.6753 72.3862 22.9868C72.6619 23.2983 72.7998 23.6833 72.7998 24.1416C72.7998 24.5426 72.6995 24.8918 72.499 25.189C72.2985 25.4862 72.0067 25.7171 71.6235 25.8818C71.244 26.043 70.7803 26.1235 70.2324 26.1235ZM70.2754 25.5596C70.6048 25.5596 70.8984 25.5041 71.1562 25.3931C71.4176 25.2821 71.6217 25.1209 71.7686 24.9097C71.9189 24.6948 71.9941 24.4388 71.9941 24.1416C71.9941 23.7907 71.8563 23.4738 71.5806 23.1909C71.3049 22.9045 70.859 22.7093 70.2432 22.6055C69.1188 22.7881 68.5566 23.2948 68.5566 24.1255C68.5566 24.5588 68.7052 24.9061 69.0024 25.1675C69.3032 25.4289 69.7275 25.5596 70.2754 25.5596ZM70.2754 22.0361C70.7552 21.943 71.1204 21.7819 71.3711 21.5527C71.6217 21.3236 71.7471 21.0317 71.7471 20.6772C71.7471 20.3872 71.6755 20.1545 71.5322 19.979C71.389 19.8035 71.2046 19.6764 70.979 19.5977C70.757 19.5153 70.5225 19.4741 70.2754 19.4741C69.8242 19.4741 69.459 19.5798 69.1797 19.791C68.904 19.9987 68.7661 20.2869 68.7661 20.6558C68.7661 21.0138 68.895 21.311 69.1528 21.5474C69.4142 21.7837 69.7884 21.9466 70.2754 22.0361ZM76.1782 26.1235C75.745 26.1235 75.3636 26.0662 75.0342 25.9517C74.7083 25.8335 74.4469 25.6652 74.25 25.4468V24.4907H74.8784C74.8999 24.881 75.0002 25.1639 75.1792 25.3394C75.3582 25.5112 75.6733 25.5972 76.1245 25.5972C76.7977 25.5972 77.2686 25.3501 77.5371 24.856C77.8057 24.3618 77.9399 23.6493 77.9399 22.7183C77.7179 22.9904 77.4494 23.1981 77.1343 23.3413C76.8192 23.481 76.4772 23.5508 76.1084 23.5508C75.6608 23.5508 75.2705 23.4577 74.9375 23.2715C74.6081 23.0853 74.3521 22.8257 74.1694 22.4927C73.9904 22.1561 73.9009 21.7658 73.9009 21.3218C73.9009 20.8312 73.9993 20.4069 74.1963 20.0488C74.3932 19.6908 74.6725 19.415 75.0342 19.2217C75.3958 19.0283 75.8219 18.9316 76.3125 18.9316C76.8496 18.9316 77.3026 19.0534 77.6714 19.2969C78.0402 19.5404 78.3195 19.9146 78.5093 20.4194C78.6991 20.9207 78.7939 21.5617 78.7939 22.3423C78.7939 23.0584 78.7098 23.703 78.5415 24.2759C78.3768 24.8452 78.1029 25.2964 77.7197 25.6294C77.3366 25.9588 76.8228 26.1235 76.1782 26.1235ZM76.2695 22.9761C76.6634 22.9761 77.0054 22.8597 77.2954 22.627C77.589 22.3942 77.7931 22.0612 77.9077 21.6279C77.9077 21.3737 77.8898 21.1499 77.854 20.9565C77.7716 20.4946 77.5998 20.1348 77.3384 19.877C77.077 19.6156 76.7297 19.4849 76.2964 19.4849C75.8309 19.4849 75.4603 19.6406 75.1846 19.9521C74.9089 20.2637 74.771 20.7059 74.771 21.2788C74.771 21.755 74.8963 22.1579 75.147 22.4873C75.4012 22.8132 75.7754 22.9761 76.2695 22.9761ZM84.7666 26.1182C84.2295 26.1182 83.7747 25.9982 83.4023 25.7583C83.0335 25.5148 82.7542 25.1424 82.5645 24.6411C82.3747 24.1398 82.2798 23.5024 82.2798 22.729C82.2798 22.0057 82.3639 21.3594 82.5322 20.79C82.7041 20.2171 82.9852 19.766 83.3755 19.4365C83.7694 19.1035 84.2975 18.937 84.96 18.937C85.4469 18.937 85.8516 18.9961 86.1738 19.1143C86.4961 19.2324 86.7664 19.3703 86.9849 19.5278V20.5806H86.4531C86.446 20.201 86.3278 19.9199 86.0986 19.7373C85.8695 19.5511 85.4917 19.458 84.9653 19.458C84.3136 19.458 83.8499 19.7087 83.5742 20.21C83.2985 20.7077 83.1589 21.4202 83.1553 22.3477C83.3916 22.0684 83.6655 21.8589 83.9771 21.7192C84.2886 21.576 84.6234 21.5044 84.9814 21.5044C85.429 21.5044 85.8175 21.5993 86.147 21.7891C86.48 21.9753 86.7378 22.2349 86.9204 22.5679C87.103 22.9009 87.1943 23.2894 87.1943 23.7334C87.1943 24.2132 87.0941 24.6322 86.8936 24.9902C86.6966 25.3483 86.4173 25.6258 86.0557 25.8228C85.694 26.0197 85.2643 26.1182 84.7666 26.1182ZM84.7881 25.5757C85.25 25.5757 85.6188 25.4217 85.8945 25.1138C86.1738 24.8058 86.3135 24.3726 86.3135 23.814C86.3135 23.3127 86.1882 22.8991 85.9375 22.5732C85.6868 22.2438 85.3073 22.0791 84.7988 22.0791C84.5339 22.0791 84.276 22.1418 84.0254 22.2671C83.7783 22.3888 83.5599 22.5607 83.3701 22.7827C83.2484 23.0369 83.1875 23.3306 83.1875 23.6636C83.1875 24.258 83.3325 24.7253 83.6226 25.0654C83.9126 25.4056 84.3011 25.5757 84.7881 25.5757ZM90.5566 26.1235C90.2415 26.1235 89.9354 26.0841 89.6382 26.0054C89.3446 25.9266 89.0706 25.8138 88.8164 25.667L88.7036 24.2866H89.2568C89.2926 24.7091 89.4233 25.0314 89.6489 25.2534C89.8745 25.4718 90.2272 25.5811 90.707 25.5811C91.1761 25.5811 91.5575 25.4289 91.8511 25.1245C92.1483 24.8166 92.2969 24.3761 92.2969 23.8032C92.2969 23.284 92.1554 22.874 91.8726 22.5732C91.5933 22.2725 91.2137 22.1221 90.7339 22.1221C90.408 22.1221 90.1234 22.1865 89.8799 22.3154C89.6364 22.4408 89.4233 22.6305 89.2407 22.8848L88.8218 22.7451V19.0713H92.8394V20.3335H92.2861V20.1187C92.2861 19.9074 92.2808 19.7856 92.27 19.7534C92.2593 19.7176 92.2217 19.6997 92.1572 19.6997H89.5469L89.4395 22.0415C89.8656 21.7013 90.3651 21.5312 90.938 21.5312C91.3927 21.5312 91.7884 21.6243 92.125 21.8105C92.4616 21.9932 92.723 22.2528 92.9092 22.5894C93.0954 22.9259 93.1885 23.3216 93.1885 23.7764C93.1885 24.3099 93.0703 24.7503 92.834 25.0977C92.5977 25.445 92.2808 25.7028 91.8833 25.8711C91.4858 26.0394 91.0436 26.1235 90.5566 26.1235ZM96.7173 26.1235C96.284 26.1235 95.9027 26.0662 95.5732 25.9517C95.2474 25.8335 94.986 25.6652 94.7891 25.4468V24.4907H95.4175C95.439 24.881 95.5392 25.1639 95.7183 25.3394C95.8973 25.5112 96.2124 25.5972 96.6636 25.5972C97.3368 25.5972 97.8076 25.3501 98.0762 24.856C98.3447 24.3618 98.479 23.6493 98.479 22.7183C98.257 22.9904 97.9884 23.1981 97.6733 23.3413C97.3582 23.481 97.0163 23.5508 96.6475 23.5508C96.1999 23.5508 95.8096 23.4577 95.4766 23.2715C95.1471 23.0853 94.8911 22.8257 94.7085 22.4927C94.5295 22.1561 94.4399 21.7658 94.4399 21.3218C94.4399 20.8312 94.5384 20.4069 94.7354 20.0488C94.9323 19.6908 95.2116 19.415 95.5732 19.2217C95.9349 19.0283 96.361 18.9316 96.8516 18.9316C97.3887 18.9316 97.8416 19.0534 98.2104 19.2969C98.5793 19.5404 98.8586 19.9146 99.0483 20.4194C99.2381 20.9207 99.333 21.5617 99.333 22.3423C99.333 23.0584 99.2489 23.703 99.0806 24.2759C98.9159 24.8452 98.6419 25.2964 98.2588 25.6294C97.8757 25.9588 97.3618 26.1235 96.7173 26.1235ZM96.8086 22.9761C97.2025 22.9761 97.5444 22.8597 97.8345 22.627C98.1281 22.3942 98.3322 22.0612 98.4468 21.6279C98.4468 21.3737 98.4289 21.1499 98.3931 20.9565C98.3107 20.4946 98.1388 20.1348 97.8774 19.877C97.616 19.6156 97.2687 19.4849 96.8354 19.4849C96.37 19.4849 95.9993 19.6406 95.7236 19.9521C95.4479 20.2637 95.3101 20.7059 95.3101 21.2788C95.3101 21.755 95.4354 22.1579 95.686 22.4873C95.9403 22.8132 96.3145 22.9761 96.8086 22.9761ZM103.039 26.1235C102.251 26.1235 101.634 25.9463 101.186 25.5918C100.742 25.2373 100.52 24.7575 100.52 24.1523C100.52 23.6976 100.658 23.3162 100.934 23.0083C101.209 22.7004 101.61 22.4766 102.137 22.3369C101.696 22.2223 101.356 22.0218 101.116 21.7354C100.876 21.4489 100.756 21.1087 100.756 20.7148C100.756 20.1598 100.962 19.7248 101.374 19.4097C101.789 19.0946 102.348 18.937 103.05 18.937C103.77 18.937 104.337 19.0946 104.752 19.4097C105.171 19.7248 105.381 20.1545 105.381 20.6987C105.381 21.5187 104.906 22.0594 103.958 22.3208C104.505 22.4533 104.917 22.6753 105.193 22.9868C105.469 23.2983 105.606 23.6833 105.606 24.1416C105.606 24.5426 105.506 24.8918 105.306 25.189C105.105 25.4862 104.813 25.7171 104.43 25.8818C104.051 26.043 103.587 26.1235 103.039 26.1235ZM103.082 25.5596C103.411 25.5596 103.705 25.5041 103.963 25.3931C104.224 25.2821 104.428 25.1209 104.575 24.9097C104.726 24.6948 104.801 24.4388 104.801 24.1416C104.801 23.7907 104.663 23.4738 104.387 23.1909C104.111 22.9045 103.666 22.7093 103.05 22.6055C101.925 22.7881 101.363 23.2948 101.363 24.1255C101.363 24.5588 101.512 24.9061 101.809 25.1675C102.11 25.4289 102.534 25.5596 103.082 25.5596ZM103.082 22.0361C103.562 21.943 103.927 21.7819 104.178 21.5527C104.428 21.3236 104.554 21.0317 104.554 20.6772C104.554 20.3872 104.482 20.1545 104.339 19.979C104.196 19.8035 104.011 19.6764 103.786 19.5977C103.564 19.5153 103.329 19.4741 103.082 19.4741C102.631 19.4741 102.266 19.5798 101.986 19.791C101.711 19.9987 101.573 20.2869 101.573 20.6558C101.573 21.0138 101.702 21.311 101.959 21.5474C102.221 21.7837 102.595 21.9466 103.082 22.0361Z" fill="white"/>
<defs>
<clipPath id="clip0_10_127">
<rect width="24" height="24" fill="white" transform="translate(0 3)"/>
</clipPath>
</defs>
</svg>
