<svg width="25" height="24" viewBox="0 0 25 24" fill="none" xmlns="http://www.w3.org/2000/svg">
<path opacity="0.16" d="M17.5 21H7.5C6.96957 21 6.46086 20.7893 6.08579 20.4142C5.71071 20.0391 5.5 19.5304 5.5 19V10L12.5 3L19.5 10V19C19.5 19.5304 19.2893 20.0391 18.9142 20.4142C18.5391 20.7893 18.0304 21 17.5 21Z" fill="#6B8929"/>
<path d="M20.5 10C20.5 9.73478 20.3946 9.48043 20.2071 9.29289C20.0196 9.10536 19.7652 9 19.5 9C19.2348 9 18.9804 9.10536 18.7929 9.29289C18.6053 9.48043 18.5 9.73478 18.5 10H20.5ZM6.49999 10C6.49999 9.73478 6.39463 9.48043 6.2071 9.29289C6.01956 9.10536 5.76521 9 5.49999 9C5.23477 9 4.98042 9.10536 4.79288 9.29289C4.60535 9.48043 4.49999 9.73478 4.49999 10H6.49999ZM20.793 12.707C20.9816 12.8892 21.2342 12.99 21.4964 12.9877C21.7586 12.9854 22.0094 12.8802 22.1948 12.6948C22.3802 12.5094 22.4854 12.2586 22.4877 11.9964C22.4899 11.7342 22.3891 11.4816 22.207 11.293L20.793 12.707ZM12.5 3L13.207 2.293C13.0195 2.10553 12.7652 2.00021 12.5 2.00021C12.2348 2.00021 11.9805 2.10553 11.793 2.293L12.5 3ZM2.79299 11.293C2.69748 11.3852 2.6213 11.4956 2.56889 11.6176C2.51648 11.7396 2.48889 11.8708 2.48774 12.0036C2.48659 12.1364 2.51189 12.2681 2.56217 12.391C2.61245 12.5139 2.6867 12.6255 2.78059 12.7194C2.87449 12.8133 2.98614 12.8875 3.10904 12.9378C3.23193 12.9881 3.36361 13.0134 3.49639 13.0123C3.62917 13.0111 3.76039 12.9835 3.88239 12.9311C4.0044 12.8787 4.11474 12.8025 4.20699 12.707L2.79299 11.293ZM7.49999 22H17.5V20H7.49999V22ZM20.5 19V10H18.5V19H20.5ZM6.49999 19V10H4.49999V19H6.49999ZM22.207 11.293L13.207 2.293L11.793 3.707L20.793 12.707L22.207 11.293ZM11.793 2.293L2.79299 11.293L4.20699 12.707L13.207 3.707L11.793 2.293ZM17.5 22C18.2956 22 19.0587 21.6839 19.6213 21.1213C20.1839 20.5587 20.5 19.7956 20.5 19H18.5C18.5 19.2652 18.3946 19.5196 18.2071 19.7071C18.0196 19.8946 17.7652 20 17.5 20V22ZM7.49999 20C7.23477 20 6.98042 19.8946 6.79288 19.7071C6.60535 19.5196 6.49999 19.2652 6.49999 19H4.49999C4.49999 19.7956 4.81606 20.5587 5.37867 21.1213C5.94128 21.6839 6.70434 22 7.49999 22V20Z" fill="#6B8929"/>
</svg>
