<svg width="25" height="24" viewBox="0 0 25 24" fill="none" xmlns="http://www.w3.org/2000/svg">
<path opacity="0.16" d="M17.5 21H7.5C6.96957 21 6.46086 20.7893 6.08579 20.4142C5.71071 20.0391 5.5 19.5304 5.5 19V10L12.5 3L19.5 10V19C19.5 19.5304 19.2893 20.0391 18.9142 20.4142C18.5391 20.7893 18.0304 21 17.5 21Z" fill="#6B8929"/>
<path d="M20.4996 10C20.4996 9.73481 20.3942 9.48046 20.2067 9.29292C20.0192 9.10539 19.7648 9.00003 19.4996 9.00003C19.2344 9.00003 18.98 9.10539 18.7925 9.29292C18.6049 9.48046 18.4996 9.73481 18.4996 10H20.4996ZM6.49959 10C6.49959 9.73481 6.39424 9.48046 6.2067 9.29292C6.01916 9.10539 5.76481 9.00003 5.49959 9.00003C5.23438 9.00003 4.98002 9.10539 4.79249 9.29292C4.60495 9.48046 4.49959 9.73481 4.49959 10H6.49959ZM20.7926 12.707C20.9812 12.8892 21.2338 12.99 21.496 12.9877C21.7582 12.9854 22.009 12.8803 22.1944 12.6948C22.3798 12.5094 22.485 12.2586 22.4873 11.9964C22.4895 11.7342 22.3888 11.4816 22.2066 11.293L20.7926 12.707ZM12.4996 3.00003L13.2066 2.29303C13.0191 2.10556 12.7648 2.00024 12.4996 2.00024C12.2344 2.00024 11.9801 2.10556 11.7926 2.29303L12.4996 3.00003ZM2.79259 11.293C2.69708 11.3853 2.6209 11.4956 2.56849 11.6176C2.51608 11.7396 2.4885 11.8709 2.48734 12.0036C2.48619 12.1364 2.51149 12.2681 2.56177 12.391C2.61205 12.5139 2.68631 12.6255 2.7802 12.7194C2.87409 12.8133 2.98574 12.8876 3.10864 12.9379C3.23154 12.9881 3.36321 13.0134 3.49599 13.0123C3.62877 13.0111 3.75999 12.9835 3.882 12.9311C4.004 12.8787 4.11435 12.8025 4.20659 12.707L2.79259 11.293ZM7.49959 22H17.4996V20H7.49959V22ZM20.4996 19V10H18.4996V19H20.4996ZM6.49959 19V10H4.49959V19H6.49959ZM22.2066 11.293L13.2066 2.29303L11.7926 3.70703L20.7926 12.707L22.2066 11.293ZM11.7926 2.29303L2.79259 11.293L4.20659 12.707L13.2066 3.70703L11.7926 2.29303ZM17.4996 22C18.2952 22 19.0583 21.684 19.6209 21.1214C20.1835 20.5587 20.4996 19.7957 20.4996 19H18.4996C18.4996 19.2652 18.3942 19.5196 18.2067 19.7071C18.0192 19.8947 17.7648 20 17.4996 20V22ZM7.49959 20C7.23438 20 6.98002 19.8947 6.79249 19.7071C6.60495 19.5196 6.49959 19.2652 6.49959 19H4.49959C4.49959 19.7957 4.81566 20.5587 5.37827 21.1214C5.94088 21.684 6.70394 22 7.49959 22V20Z" fill="#6B8929"/>
</svg>
