<svg width="105" height="28" viewBox="0 0 105 28" fill="none" xmlns="http://www.w3.org/2000/svg">
<path opacity="0.16" d="M17.5 21H7.5C6.96957 21 6.46086 20.7893 6.08579 20.4142C5.71071 20.0391 5.5 19.5304 5.5 19V10L12.5 3L19.5 10V19C19.5 19.5304 19.2893 20.0391 18.9142 20.4142C18.5391 20.7893 18.0304 21 17.5 21Z" fill="#6B8929"/>
<path d="M20.5 10C20.5 9.73478 20.3946 9.48043 20.2071 9.29289C20.0196 9.10536 19.7652 9 19.5 9C19.2348 9 18.9804 9.10536 18.7929 9.29289C18.6053 9.48043 18.5 9.73478 18.5 10H20.5ZM6.49999 10C6.49999 9.73478 6.39463 9.48043 6.2071 9.29289C6.01956 9.10536 5.76521 9 5.49999 9C5.23477 9 4.98042 9.10536 4.79288 9.29289C4.60535 9.48043 4.49999 9.73478 4.49999 10H6.49999ZM20.793 12.707C20.9816 12.8892 21.2342 12.99 21.4964 12.9877C21.7586 12.9854 22.0094 12.8802 22.1948 12.6948C22.3802 12.5094 22.4854 12.2586 22.4877 11.9964C22.4899 11.7342 22.3891 11.4816 22.207 11.293L20.793 12.707ZM12.5 3L13.207 2.293C13.0195 2.10553 12.7652 2.00021 12.5 2.00021C12.2348 2.00021 11.9805 2.10553 11.793 2.293L12.5 3ZM2.79299 11.293C2.69748 11.3852 2.6213 11.4956 2.56889 11.6176C2.51648 11.7396 2.48889 11.8708 2.48774 12.0036C2.48659 12.1364 2.51189 12.2681 2.56217 12.391C2.61245 12.5139 2.6867 12.6255 2.78059 12.7194C2.87449 12.8133 2.98614 12.8875 3.10904 12.9378C3.23193 12.9881 3.36361 13.0134 3.49639 13.0123C3.62917 13.0111 3.76039 12.9835 3.88239 12.9311C4.0044 12.8787 4.11474 12.8025 4.20699 12.707L2.79299 11.293ZM7.49999 22H17.5V20H7.49999V22ZM20.5 19V10H18.5V19H20.5ZM6.49999 19V10H4.49999V19H6.49999ZM22.207 11.293L13.207 2.293L11.793 3.707L20.793 12.707L22.207 11.293ZM11.793 2.293L2.79299 11.293L4.20699 12.707L13.207 3.707L11.793 2.293ZM17.5 22C18.2956 22 19.0587 21.6839 19.6213 21.1213C20.1839 20.5587 20.5 19.7956 20.5 19H18.5C18.5 19.2652 18.3946 19.5196 18.2071 19.7071C18.0196 19.8946 17.7652 20 17.5 20V22ZM7.49999 20C7.23477 20 6.98042 19.8946 6.79288 19.7071C6.60535 19.5196 6.49999 19.2652 6.49999 19H4.49999C4.49999 19.7956 4.81606 20.5587 5.37867 21.1213C5.94128 21.6839 6.70434 22 7.49999 22V20Z" fill="#6B8929"/>
<path d="M31.3203 21V19.2188H31.8125C32.2422 19.2188 32.5469 19.1758 32.7266 19.0898C32.9062 18.9961 33.0117 18.8633 33.043 18.6914C33.082 18.5117 33.1016 18.2969 33.1016 18.0469V8.66016C33.1016 8.39453 33.082 8.17969 33.043 8.01562C33.0039 7.84375 32.8945 7.71875 32.7148 7.64062C32.5352 7.5625 32.2344 7.52344 31.8125 7.52344H31.3203V5.74219C31.9609 5.75 32.5469 5.75781 33.0781 5.76562C33.6094 5.76562 34.1172 5.76562 34.6016 5.76562C35.0391 5.76562 35.4609 5.76562 35.8672 5.76562C36.2812 5.76562 36.6797 5.76562 37.0625 5.76562C37.4453 5.75781 37.8125 5.75 38.1641 5.74219V7.52344H37.6484C37.2422 7.52344 36.9492 7.5625 36.7695 7.64062C36.5898 7.71875 36.4766 7.83594 36.4297 7.99219C36.3906 8.14062 36.3711 8.32422 36.3711 8.54297V12.2695H43.0977V8.67188C43.0977 8.24219 43.0273 7.94531 42.8867 7.78125C42.7539 7.60937 42.3945 7.52344 41.8086 7.52344H41.3047V5.74219C41.9609 5.75 42.543 5.75781 43.0508 5.76562C43.5586 5.76562 44.0469 5.76562 44.5156 5.76562C44.9453 5.76562 45.3672 5.76562 45.7812 5.76562C46.2031 5.76562 46.6133 5.76562 47.0117 5.76562C47.4102 5.75781 47.7891 5.75 48.1484 5.74219V7.52344H47.6445C47.2383 7.52344 46.9453 7.5625 46.7656 7.64062C46.5859 7.71094 46.4727 7.82031 46.4258 7.96875C46.3867 8.11719 46.3672 8.30078 46.3672 8.51953V18.1875C46.3672 18.4453 46.3789 18.6484 46.4023 18.7969C46.4336 18.9453 46.5352 19.0547 46.707 19.125C46.8867 19.1875 47.1992 19.2188 47.6445 19.2188H48.1484V21C47.5938 21 47.0508 20.9961 46.5195 20.9883C45.9961 20.9805 45.3594 20.9766 44.6094 20.9766C43.9297 20.9766 43.3359 20.9805 42.8281 20.9883C42.3203 20.9961 41.8125 21 41.3047 21V19.2188H41.8086C42.2383 19.2188 42.5391 19.1758 42.7109 19.0898C42.8906 18.9961 43 18.8633 43.0391 18.6914C43.0781 18.5117 43.0977 18.293 43.0977 18.0352V14.0273H36.3711V18.2227C36.3711 18.6523 36.4375 18.9258 36.5703 19.043C36.7031 19.1602 37.0625 19.2188 37.6484 19.2188H38.1641V21C37.6328 21 37.1172 20.9961 36.6172 20.9883C36.125 20.9805 35.5195 20.9766 34.8008 20.9766C34.082 20.9766 33.457 20.9805 32.9258 20.9883C32.3945 20.9961 31.8594 21 31.3203 21ZM56.0586 21.3398C54.8867 21.3398 53.8359 21.1172 52.9062 20.6719C51.9844 20.2266 51.2539 19.5859 50.7148 18.75C50.1758 17.9062 49.9062 16.8945 49.9062 15.7148C49.9062 14.543 50.1719 13.5391 50.7031 12.7031C51.2422 11.8594 51.9727 11.2148 52.8945 10.7695C53.8242 10.3164 54.8789 10.0898 56.0586 10.0898C57.1992 10.0898 58.2344 10.3086 59.1641 10.7461C60.0938 11.1836 60.832 11.8203 61.3789 12.6562C61.9336 13.4922 62.2109 14.5117 62.2109 15.7148C62.2109 16.8867 61.9414 17.8945 61.4023 18.7383C60.8633 19.5742 60.1289 20.2188 59.1992 20.6719C58.2695 21.1172 57.2227 21.3398 56.0586 21.3398ZM56.0469 19.6289C56.9844 19.6289 57.7266 19.2773 58.2734 18.5742C58.8203 17.8633 59.0938 16.8945 59.0938 15.668C59.0938 14.4648 58.8242 13.5156 58.2852 12.8203C57.7461 12.125 57.0078 11.7773 56.0703 11.7773C55.1172 11.7773 54.3711 12.125 53.832 12.8203C53.293 13.5156 53.0234 14.4766 53.0234 15.7031C53.0234 16.9141 53.2891 17.8711 53.8203 18.5742C54.3594 19.2773 55.1016 19.6289 56.0469 19.6289ZM63.7227 21V19.3828C64.207 19.3828 64.5586 19.3594 64.7773 19.3125C65.0039 19.2656 65.1484 19.1836 65.2109 19.0664C65.2734 18.9414 65.3047 18.7656 65.3047 18.5391V12.6328C65.3047 12.3438 65.1797 12.168 64.9297 12.1055C64.6875 12.043 64.3047 12.0117 63.7812 12.0117V10.4062C63.9844 10.4062 64.1797 10.4102 64.3672 10.418C64.5547 10.4258 64.7578 10.4297 64.9766 10.4297C65.5156 10.4297 66.0508 10.4258 66.582 10.418C67.1211 10.4023 67.6719 10.3867 68.2344 10.3711V12.1875C68.6797 11.6094 69.2656 11.1289 69.9922 10.7461C70.7266 10.3633 71.5703 10.1719 72.5234 10.1719C73.2969 10.1719 73.9688 10.3477 74.5391 10.6992C75.1172 11.0508 75.5469 11.5664 75.8281 12.2461C76.4219 11.5898 77.082 11.082 77.8086 10.7227C78.543 10.3633 79.3203 10.1836 80.1406 10.1836C81.0938 10.1836 81.8281 10.3789 82.3438 10.7695C82.8672 11.1602 83.2305 11.7266 83.4336 12.4688C83.6367 13.2109 83.7383 14.1094 83.7383 15.1641V18.7383C83.7383 19.0508 83.8477 19.2344 84.0664 19.2891C84.293 19.3359 84.6875 19.3672 85.25 19.3828V21C84.7734 21 84.2969 20.9961 83.8203 20.9883C83.3516 20.9805 82.8164 20.9766 82.2148 20.9766C81.6367 20.9766 81.1055 20.9805 80.6211 20.9883C80.1445 20.9961 79.6602 21 79.168 21V19.3828C79.7617 19.3672 80.1641 19.3047 80.375 19.1953C80.5859 19.0781 80.6914 18.8281 80.6914 18.4453V14.7773C80.6914 13.8945 80.5625 13.2305 80.3047 12.7852C80.0469 12.332 79.543 12.1055 78.793 12.1055C78.1992 12.1055 77.6953 12.2344 77.2812 12.4922C76.8672 12.7422 76.5156 13.0625 76.2266 13.4531C76.1719 13.7109 76.1289 13.9844 76.0977 14.2734C76.0742 14.5625 76.0625 14.8711 76.0625 15.1992V18.6914C76.0625 19.0039 76.1641 19.1953 76.3672 19.2656C76.5781 19.3281 76.9688 19.3672 77.5391 19.3828V21C77.0625 21 76.5977 21 76.1445 21C75.6992 20.9922 75.1484 20.9844 74.4922 20.9766C73.8906 20.9766 73.3633 20.9805 72.9102 20.9883C72.4648 20.9961 72.0117 21 71.5508 21V19.3828C72.1133 19.3672 72.4961 19.2969 72.6992 19.1719C72.9023 19.0391 73.0039 18.8164 73.0039 18.5039V14.7773C73.0039 13.832 72.8789 13.1211 72.6289 12.6445C72.3789 12.1602 71.8789 11.918 71.1289 11.918C70.5664 11.918 70.082 12.0391 69.6758 12.2812C69.2773 12.5234 68.9062 12.8672 68.5625 13.3125C68.5 13.3984 68.4492 13.5898 68.4102 13.8867C68.3711 14.1836 68.3516 14.5547 68.3516 15C68.3516 15.2188 68.3477 15.4883 68.3398 15.8086C68.3398 16.1289 68.3398 16.4531 68.3398 16.7812C68.3398 17.1094 68.3398 17.4023 68.3398 17.6602C68.3398 17.918 68.3398 18.0898 68.3398 18.1758C68.3398 18.582 68.3789 18.8711 68.457 19.043C68.5352 19.207 68.6914 19.3047 68.9258 19.3359C69.168 19.3594 69.5234 19.375 69.9922 19.3828V21C69.4766 21 68.9766 21 68.4922 21C68.0078 20.9922 67.4219 20.9844 66.7344 20.9766C66.1172 20.9766 65.5781 20.9805 65.1172 20.9883C64.6562 20.9961 64.1914 21 63.7227 21ZM92.8438 21.3398C91.5 21.3398 90.3711 21.1016 89.457 20.625C88.543 20.1484 87.8555 19.4883 87.3945 18.6445C86.9336 17.793 86.7031 16.8242 86.7031 15.7383C86.7031 14.5898 86.9492 13.5938 87.4414 12.75C87.9336 11.9062 88.6289 11.2539 89.5273 10.793C90.4258 10.3242 91.4688 10.0898 92.6562 10.0898C93.8359 10.0898 94.8633 10.3164 95.7383 10.7695C96.6133 11.2227 97.293 11.8906 97.7773 12.7734C98.2695 13.6562 98.5156 14.7383 98.5156 16.0195L97.8594 16.1484H89.7852C89.793 17.3047 90.0977 18.1992 90.6992 18.832C91.3008 19.4648 92.1055 19.7812 93.1133 19.7812C93.832 19.7812 94.4453 19.625 94.9531 19.3125C95.4609 19 95.8281 18.5352 96.0547 17.918L98.3047 18.0586C97.9922 19.1289 97.3555 19.9453 96.3945 20.5078C95.4414 21.0625 94.2578 21.3398 92.8438 21.3398ZM89.8086 14.7891H95.6562C95.625 13.8281 95.3555 13.0586 94.8477 12.4805C94.3477 11.9023 93.6445 11.6133 92.7383 11.6133C91.8789 11.6133 91.1953 11.8984 90.6875 12.4688C90.1875 13.0312 89.8945 13.8047 89.8086 14.7891Z" fill="#6B8929"/>
</svg>
