<svg width="28" height="28" viewBox="0 0 28 28" fill="none" xmlns="http://www.w3.org/2000/svg">
<path d="M15.125 10.625H12.875V8.375H15.125M15.125 19.625H12.875V12.875H15.125M14 2.75C12.5226 2.75 11.0597 3.04099 9.69481 3.60636C8.3299 4.17172 7.08971 5.00039 6.04505 6.04505C3.93526 8.15483 2.75 11.0163 2.75 14C2.75 16.9837 3.93526 19.8452 6.04505 21.955C7.08971 22.9996 8.3299 23.8283 9.69481 24.3936C11.0597 24.959 12.5226 25.25 14 25.25C16.9837 25.25 19.8452 24.0647 21.955 21.955C24.0647 19.8452 25.25 16.9837 25.25 14C25.25 12.5226 24.959 11.0597 24.3936 9.69481C23.8283 8.3299 22.9996 7.08971 21.955 6.04505C20.9103 5.00039 19.6701 4.17172 18.3052 3.60636C16.9403 3.04099 15.4774 2.75 14 2.75Z" fill="#6B8929"/>
</svg>
