<svg width="341" height="24" viewBox="0 0 341 24" fill="none" xmlns="http://www.w3.org/2000/svg">
<path d="M12 2C14.3869 2 16.6761 2.94821 18.364 4.63604C20.0518 6.32387 21 8.61305 21 11C21 14.074 19.324 16.59 17.558 18.395C16.6757 19.2871 15.7129 20.0958 14.682 20.811L14.256 21.101L14.056 21.234L13.679 21.474L13.343 21.679L12.927 21.921C12.6446 22.0822 12.3251 22.1669 12 22.1669C11.6749 22.1669 11.3554 22.0822 11.073 21.921L10.657 21.679L10.137 21.359L9.945 21.234L9.535 20.961C8.42283 20.2085 7.3869 19.3491 6.442 18.395C4.676 16.589 3 14.074 3 11C3 8.61305 3.94821 6.32387 5.63604 4.63604C7.32387 2.94821 9.61305 2 12 2ZM12 8C11.606 8 11.2159 8.0776 10.8519 8.22836C10.488 8.37913 10.1573 8.6001 9.87868 8.87868C9.6001 9.15726 9.37913 9.48797 9.22836 9.85195C9.0776 10.2159 9 10.606 9 11C9 11.394 9.0776 11.7841 9.22836 12.1481C9.37913 12.512 9.6001 12.8427 9.87868 13.1213C10.1573 13.3999 10.488 13.6209 10.8519 13.7716C11.2159 13.9224 11.606 14 12 14C12.7956 14 13.5587 13.6839 14.1213 13.1213C14.6839 12.5587 15 11.7956 15 11C15 10.2044 14.6839 9.44129 14.1213 8.87868C13.5587 8.31607 12.7956 8 12 8Z" fill="white"/>
<path d="M29.6484 18V17.0332H30.1562C30.5599 17.0332 30.8431 17.0039 31.0059 16.9453C31.1751 16.8802 31.276 16.7891 31.3086 16.6719C31.3477 16.5547 31.3672 16.4115 31.3672 16.2422V7.00391C31.3672 6.74349 31.2956 6.57422 31.1523 6.49609C31.0156 6.41797 30.6934 6.37565 30.1855 6.36914C30.1074 6.36914 30.0228 6.36914 29.9316 6.36914C29.847 6.36914 29.7526 6.36914 29.6484 6.36914V5.40234H35.4004C36.4681 5.40234 37.3405 5.55534 38.0176 5.86133C38.7012 6.16732 39.2057 6.59375 39.5312 7.14062C39.8568 7.68099 40.0195 8.30924 40.0195 9.02539C40.0195 9.73503 39.8633 10.36 39.5508 10.9004C39.2448 11.4408 38.7533 11.8639 38.0762 12.1699C37.4056 12.4694 36.5202 12.6191 35.4199 12.6191H33.1543V16.2812C33.1543 16.6458 33.2422 16.8639 33.418 16.9355C33.5938 17.0007 33.916 17.0332 34.3848 17.0332H34.8828V18C34.5312 18 34.1927 17.9967 33.8672 17.9902C33.5482 17.9837 33.138 17.9805 32.6367 17.9805C32.0378 17.9805 31.5039 17.9837 31.0352 17.9902C30.5664 17.9967 30.1042 18 29.6484 18ZM33.1543 11.6133H35.0195C37.181 11.6133 38.2617 10.7604 38.2617 9.05469C38.2617 8.20833 38.0176 7.56055 37.5293 7.11133C37.0475 6.66211 36.2272 6.4375 35.0684 6.4375H33.1543V11.6133ZM45.5664 18.2734C44.6484 18.2734 43.8411 18.0814 43.1445 17.6973C42.4479 17.3132 41.901 16.776 41.5039 16.0859C41.1133 15.3893 40.918 14.5723 40.918 13.6348C40.918 12.6973 41.1133 11.8802 41.5039 11.1836C41.901 10.487 42.4479 9.94987 43.1445 9.57227C43.8477 9.18815 44.6549 8.99609 45.5664 8.99609C46.4844 8.99609 47.2917 9.18815 47.9883 9.57227C48.6914 9.94987 49.2415 10.487 49.6387 11.1836C50.0358 11.8737 50.2344 12.6908 50.2344 13.6348C50.2344 14.5658 50.0358 15.3796 49.6387 16.0762C49.248 16.7728 48.7012 17.3132 47.998 17.6973C47.3014 18.0814 46.4909 18.2734 45.5664 18.2734ZM45.5664 17.2578C46.4648 17.2578 47.1842 16.929 47.7246 16.2715C48.265 15.6139 48.5352 14.7318 48.5352 13.625C48.5352 12.5117 48.265 11.6296 47.7246 10.9785C47.1908 10.3275 46.4714 10.002 45.5664 10.002C44.6615 10.002 43.9421 10.3275 43.4082 10.9785C42.8743 11.623 42.6074 12.5052 42.6074 13.625C42.6074 14.7318 42.8743 15.6139 43.4082 16.2715C43.9421 16.929 44.6615 17.2578 45.5664 17.2578ZM57.7734 18.2051C57.0443 18.2051 56.403 18.0651 55.8496 17.7852C55.2962 17.4987 54.8242 17.0755 54.4336 16.5156V18.0391C54.1927 18.0326 53.8997 18.026 53.5547 18.0195C53.2096 18.0195 52.8743 18.0163 52.5488 18.0098C52.3991 18.0033 52.2526 18 52.1094 18C51.9727 18 51.8457 18 51.7285 18C51.6178 18 51.5202 18 51.4355 18V17.1309C51.5072 17.1309 51.5755 17.1309 51.6406 17.1309C51.7057 17.1309 51.7676 17.1276 51.8262 17.1211C52.1777 17.1081 52.4251 17.0755 52.5684 17.0234C52.7116 16.9714 52.7962 16.8965 52.8223 16.7988C52.8548 16.7012 52.8711 16.584 52.8711 16.4473V6.78906C52.8711 6.52865 52.7507 6.37891 52.5098 6.33984C52.2754 6.29427 51.9141 6.26823 51.4258 6.26172V5.37305C51.5951 5.37305 51.7611 5.37305 51.9238 5.37305C52.0866 5.37305 52.2493 5.37305 52.4121 5.37305C52.7897 5.36654 53.1576 5.36003 53.5156 5.35352C53.8737 5.34701 54.2155 5.34049 54.541 5.33398V10.6074C55.2962 9.5332 56.3672 8.99609 57.7539 8.99609C58.6133 8.99609 59.3652 9.18815 60.0098 9.57227C60.6543 9.95638 61.1523 10.4967 61.5039 11.1934C61.862 11.8835 62.041 12.6973 62.041 13.6348C62.041 14.5397 61.8652 15.3372 61.5137 16.0273C61.1621 16.7109 60.6673 17.2448 60.0293 17.6289C59.3913 18.013 58.6393 18.2051 57.7734 18.2051ZM57.4023 17.1406C58.3073 17.1406 59.0234 16.8216 59.5508 16.1836C60.0846 15.5456 60.3516 14.6764 60.3516 13.5762C60.3516 12.4889 60.0846 11.6263 59.5508 10.9883C59.0234 10.3438 58.3138 10.0215 57.4219 10.0215C56.4974 10.0215 55.7682 10.3438 55.2344 10.9883C54.707 11.6263 54.4434 12.5052 54.4434 13.625C54.4434 14.7318 54.7038 15.5944 55.2246 16.2129C55.752 16.8314 56.4779 17.1406 57.4023 17.1406ZM63.1445 18C63.1445 17.9479 63.1445 17.8828 63.1445 17.8047C63.1445 17.7266 63.1413 17.6452 63.1348 17.5605C63.1348 17.4694 63.1348 17.3848 63.1348 17.3066C63.1348 17.2285 63.1348 17.1634 63.1348 17.1113C63.6296 17.1113 63.9779 17.082 64.1797 17.0234C64.3815 16.9648 64.502 16.877 64.541 16.7598C64.5866 16.6426 64.6094 16.4961 64.6094 16.3203V6.75C64.6094 6.50911 64.4857 6.36914 64.2383 6.33008C63.9909 6.29102 63.6393 6.26823 63.1836 6.26172V5.38281C63.3594 5.38281 63.5286 5.38281 63.6914 5.38281C63.8542 5.3763 64.0169 5.37305 64.1797 5.37305C64.349 5.37305 64.515 5.37305 64.6777 5.37305C64.9251 5.36654 65.1758 5.36328 65.4297 5.36328C65.6901 5.35677 65.9603 5.35026 66.2402 5.34375V16.4277C66.2402 16.7467 66.3639 16.9421 66.6113 17.0137C66.8652 17.0788 67.2428 17.1113 67.7441 17.1113V18C67.3861 18 67.028 18 66.6699 18C66.3184 17.9935 65.9017 17.987 65.4199 17.9805C64.9447 17.9805 64.5345 17.9837 64.1895 17.9902C63.8444 17.9967 63.4961 18 63.1445 18ZM72.4902 18.2051C71.5592 18.2051 70.8138 17.9544 70.2539 17.4531C69.694 16.9518 69.4141 16.3138 69.4141 15.5391C69.4141 14.7057 69.7461 14.0352 70.4102 13.5273C71.0742 13.0195 72.002 12.7656 73.1934 12.7656C73.597 12.7656 74.0072 12.7982 74.4238 12.8633C74.847 12.9219 75.2734 13.0065 75.7031 13.1172V11.6719C75.7031 11.0859 75.5046 10.6367 75.1074 10.3242C74.7168 10.0052 74.1146 9.8457 73.3008 9.8457C71.9661 9.8457 71.1719 10.3861 70.918 11.4668L70.0195 11.3594L70.1465 9.64062C70.5632 9.45182 71.0514 9.29883 71.6113 9.18164C72.1712 9.05794 72.7962 8.99609 73.4863 8.99609C74.8665 8.99609 75.8529 9.24674 76.4453 9.74805C77.0443 10.2493 77.3438 11.0371 77.3438 12.1113V15.8125C77.3438 16.2617 77.3665 16.5775 77.4121 16.7598C77.4577 16.9421 77.5456 17.0495 77.6758 17.082C77.806 17.1146 78.0013 17.1309 78.2617 17.1309H78.7012V18C78.597 17.9935 78.4928 17.9902 78.3887 17.9902C78.2845 17.9902 78.1803 17.9935 78.0762 18C77.972 18 77.8678 18 77.7637 18C77.4121 18.0065 77.0671 18.013 76.7285 18.0195C76.39 18.026 76.0677 18.0326 75.7617 18.0391V16.7012C75.3711 17.196 74.9056 17.5703 74.3652 17.8242C73.8314 18.0781 73.2064 18.2051 72.4902 18.2051ZM72.9883 17.2676C73.4115 17.2676 73.8314 17.1797 74.248 17.0039C74.6647 16.8216 75.0098 16.5547 75.2832 16.2031C75.5632 15.8516 75.7031 15.4121 75.7031 14.8848V13.9277C75.3125 13.8171 74.9414 13.7324 74.5898 13.6738C74.2383 13.6152 73.8965 13.5859 73.5645 13.5859C72.7832 13.5859 72.1647 13.7552 71.709 14.0938C71.2598 14.4258 71.0352 14.8913 71.0352 15.4902C71.0352 16.0241 71.2174 16.4538 71.582 16.7793C71.9466 17.1048 72.4154 17.2676 72.9883 17.2676ZM84.502 18.2734C83.597 18.2734 82.806 18.0846 82.1289 17.707C81.4518 17.3229 80.9277 16.7891 80.5566 16.1055C80.1855 15.4154 80 14.6113 80 13.6934C80 12.821 80.1823 12.0397 80.5469 11.3496C80.9115 10.653 81.416 10.1029 82.0605 9.69922C82.7051 9.29557 83.4505 9.09375 84.2969 9.09375C84.8242 9.09375 85.3223 9.16211 85.791 9.29883C86.2663 9.43555 86.6602 9.69596 86.9727 10.0801L87.2168 9.30859C87.2493 9.30859 87.3307 9.31185 87.4609 9.31836C87.5977 9.31836 87.7311 9.31836 87.8613 9.31836C87.998 9.31836 88.0827 9.32161 88.1152 9.32812V12.375H87.1582C87.1322 11.5938 86.8978 11.0111 86.4551 10.627C86.0189 10.2428 85.4232 10.0508 84.668 10.0508C83.7435 10.0508 83.0208 10.3698 82.5 11.0078C81.9857 11.6458 81.7285 12.5182 81.7285 13.625C81.7285 14.7448 81.9954 15.6335 82.5293 16.291C83.0632 16.9421 83.7826 17.2676 84.6875 17.2676C85.3385 17.2676 85.8822 17.0951 86.3184 16.75C86.7611 16.3984 87.0703 15.9036 87.2461 15.2656L88.3887 15.4609C88.1868 16.3529 87.7441 17.0462 87.0605 17.541C86.3835 18.0293 85.5306 18.2734 84.502 18.2734ZM89.6484 18V17.1113C90.1237 17.1113 90.459 17.0951 90.6543 17.0625C90.8561 17.0234 90.9798 16.9583 91.0254 16.8672C91.071 16.776 91.0938 16.6458 91.0938 16.4766V10.4902C91.0938 10.3079 90.9896 10.2038 90.7812 10.1777C90.5729 10.1517 90.2116 10.1354 89.6973 10.1289C89.6973 9.97917 89.6973 9.83268 89.6973 9.68945C89.6973 9.54622 89.6973 9.40299 89.6973 9.25977C89.9642 9.25977 90.2246 9.25977 90.4785 9.25977C90.7324 9.25977 90.9798 9.25651 91.2207 9.25C91.4811 9.24349 91.735 9.23698 91.9824 9.23047C92.2298 9.22396 92.4805 9.21745 92.7344 9.21094V16.5156C92.7344 16.8086 92.8451 16.9811 93.0664 17.0332C93.2943 17.0853 93.6719 17.1113 94.1992 17.1113V18C94.0299 18 93.8021 18 93.5156 18C93.2357 17.9935 92.946 17.9902 92.6465 17.9902C92.3535 17.9902 92.0996 17.9902 91.8848 17.9902C91.6699 17.9837 91.543 17.9805 91.5039 17.9805C91.1393 17.9805 90.8138 17.9837 90.5273 17.9902C90.2409 17.9967 89.9479 18 89.6484 18ZM91.8359 7.33594C91.5495 7.33594 91.3184 7.2513 91.1426 7.08203C90.9733 6.91276 90.8887 6.69141 90.8887 6.41797C90.8887 6.14453 90.9733 5.92643 91.1426 5.76367C91.3184 5.60091 91.5462 5.51953 91.8262 5.51953C92.1126 5.51953 92.3405 5.60091 92.5098 5.76367C92.679 5.92643 92.7637 6.14779 92.7637 6.42773C92.7637 6.69466 92.679 6.91276 92.5098 7.08203C92.3405 7.2513 92.1159 7.33594 91.8359 7.33594ZM100 18.2734C99.082 18.2734 98.2747 18.0814 97.5781 17.6973C96.8815 17.3132 96.3346 16.776 95.9375 16.0859C95.5469 15.3893 95.3516 14.5723 95.3516 13.6348C95.3516 12.6973 95.5469 11.8802 95.9375 11.1836C96.3346 10.487 96.8815 9.94987 97.5781 9.57227C98.2812 9.18815 99.0885 8.99609 100 8.99609C100.918 8.99609 101.725 9.18815 102.422 9.57227C103.125 9.94987 103.675 10.487 104.072 11.1836C104.469 11.8737 104.668 12.6908 104.668 13.6348C104.668 14.5658 104.469 15.3796 104.072 16.0762C103.682 16.7728 103.135 17.3132 102.432 17.6973C101.735 18.0814 100.924 18.2734 100 18.2734ZM100 17.2578C100.898 17.2578 101.618 16.929 102.158 16.2715C102.699 15.6139 102.969 14.7318 102.969 13.625C102.969 12.5117 102.699 11.6296 102.158 10.9785C101.624 10.3275 100.905 10.002 100 10.002C99.0951 10.002 98.3757 10.3275 97.8418 10.9785C97.3079 11.623 97.041 12.5052 97.041 13.625C97.041 14.7318 97.3079 15.6139 97.8418 16.2715C98.3757 16.929 99.0951 17.2578 100 17.2578ZM105.889 18C105.889 17.9479 105.889 17.8828 105.889 17.8047C105.889 17.7266 105.889 17.6452 105.889 17.5605C105.889 17.4694 105.889 17.3848 105.889 17.3066C105.889 17.2285 105.889 17.1634 105.889 17.1113C106.377 17.1113 106.725 17.0983 106.934 17.0723C107.142 17.0462 107.269 16.9974 107.314 16.9258C107.367 16.8477 107.393 16.7402 107.393 16.6035V10.4512C107.393 10.2884 107.295 10.194 107.1 10.168C106.911 10.1419 106.527 10.1289 105.947 10.1289C105.947 10.0573 105.947 9.96615 105.947 9.85547C105.947 9.74479 105.944 9.63411 105.938 9.52344C105.938 9.41276 105.938 9.32487 105.938 9.25977C106.159 9.25977 106.37 9.25977 106.572 9.25977C106.781 9.25977 106.982 9.25651 107.178 9.25C107.497 9.25 107.803 9.24674 108.096 9.24023C108.395 9.22721 108.688 9.21745 108.975 9.21094V10.5879C109.417 10.1061 109.928 9.73503 110.508 9.47461C111.087 9.20768 111.699 9.07422 112.344 9.07422C113.294 9.07422 114.023 9.33138 114.531 9.8457C115.039 10.3535 115.293 11.151 115.293 12.2383V16.7109C115.293 16.9128 115.394 17.0267 115.596 17.0527C115.798 17.0788 116.152 17.0983 116.66 17.1113V18C116.341 18 116.025 18 115.713 18C115.407 17.9935 115.026 17.987 114.57 17.9805C114.095 17.9805 113.669 17.9837 113.291 17.9902C112.913 17.9967 112.536 18 112.158 18V17.1113C112.653 17.1113 113.001 17.0983 113.203 17.0723C113.411 17.0462 113.535 17.0007 113.574 16.9355C113.62 16.8704 113.643 16.7793 113.643 16.6621V12.8047C113.643 11.9258 113.529 11.2715 113.301 10.8418C113.073 10.4121 112.591 10.1973 111.855 10.1973C111.146 10.1973 110.563 10.36 110.107 10.6855C109.652 11.0111 109.3 11.3301 109.053 11.6426C109.046 11.8835 109.04 12.1276 109.033 12.375C109.027 12.6159 109.023 12.8665 109.023 13.127V16.6523C109.023 16.8802 109.137 17.0137 109.365 17.0527C109.6 17.0918 109.98 17.1113 110.508 17.1113V18C110.169 18 109.834 18 109.502 18C109.176 17.9935 108.776 17.987 108.301 17.9805C107.812 17.9805 107.38 17.9837 107.002 17.9902C106.624 17.9967 106.253 18 105.889 18ZM119.004 20.3633L118.438 19.8359C118.594 19.7253 118.714 19.582 118.799 19.4062C118.89 19.2305 118.962 19.0189 119.014 18.7715C119.066 18.5306 119.108 18.2604 119.141 17.9609L118.486 17.9121L118.711 16.1445H120.918L120.527 18.0098C120.41 18.5697 120.228 19.0579 119.98 19.4746C119.733 19.8913 119.408 20.1875 119.004 20.3633ZM128.086 18V17.0332H128.623C129.033 17.0332 129.323 17.0039 129.492 16.9453C129.661 16.8802 129.762 16.7956 129.795 16.6914C129.827 16.5872 129.844 16.4766 129.844 16.3594V6.51562H127.725C127.236 6.51562 126.888 6.53516 126.68 6.57422C126.471 6.61328 126.341 6.67188 126.289 6.75C126.243 6.82812 126.221 6.92904 126.221 7.05273C126.221 7.24805 126.221 7.47266 126.221 7.72656C126.227 7.97396 126.23 8.22461 126.23 8.47852C126.23 8.73242 126.23 8.96354 126.23 9.17188H125.205V5.40234C125.205 5.40234 125.365 5.4056 125.684 5.41211C126.003 5.41211 126.39 5.41536 126.846 5.42188C127.301 5.42188 127.741 5.42188 128.164 5.42188C128.587 5.42188 128.903 5.42188 129.111 5.42188H132.881C133.18 5.42188 133.535 5.42188 133.945 5.42188C134.355 5.41536 134.762 5.41211 135.166 5.41211C135.576 5.4056 135.928 5.40234 136.221 5.40234V9.17188H135.186V7.16016C135.186 6.97786 135.16 6.84115 135.107 6.75C135.062 6.65885 134.928 6.59701 134.707 6.56445C134.486 6.5319 134.115 6.51562 133.594 6.51562H131.621V16.4668C131.621 16.61 131.637 16.724 131.67 16.8086C131.709 16.8867 131.813 16.9453 131.982 16.9844C132.152 17.0169 132.435 17.0332 132.832 17.0332H133.379V18C133.001 18 132.624 18 132.246 18C131.875 17.9935 131.416 17.987 130.869 17.9805C130.83 17.9805 130.697 17.9837 130.469 17.9902C130.247 17.9902 129.984 17.9902 129.678 17.9902C129.378 17.9902 129.082 17.9935 128.789 18C128.496 18 128.262 18 128.086 18ZM140.752 18.1953C139.932 18.1953 139.32 18.0293 138.916 17.6973C138.512 17.3652 138.245 16.877 138.115 16.2324C137.992 15.5879 137.93 14.8034 137.93 13.8789V10.793C137.93 10.5716 137.897 10.4154 137.832 10.3242C137.773 10.2331 137.643 10.181 137.441 10.168C137.246 10.1484 136.943 10.1387 136.533 10.1387V9.2793C136.729 9.2793 136.911 9.2793 137.08 9.2793C137.256 9.2793 137.425 9.2793 137.588 9.2793C137.751 9.27279 137.91 9.26953 138.066 9.26953C138.301 9.26302 138.538 9.25651 138.779 9.25C139.027 9.24349 139.29 9.23372 139.57 9.2207V14.377C139.57 14.9238 139.606 15.4023 139.678 15.8125C139.756 16.2227 139.915 16.5417 140.156 16.7695C140.404 16.9909 140.778 17.1016 141.279 17.1016C141.982 17.1016 142.575 16.9616 143.057 16.6816C143.545 16.4017 143.91 16.0534 144.15 15.6367C144.163 15.3958 144.17 15.1582 144.17 14.9238C144.17 14.6829 144.17 14.4388 144.17 14.1914V10.8418C144.17 10.6074 144.137 10.4414 144.072 10.3438C144.014 10.2461 143.883 10.1875 143.682 10.168C143.48 10.1484 143.164 10.1387 142.734 10.1387V9.2793C142.982 9.2793 143.232 9.2793 143.486 9.2793C143.74 9.2793 143.997 9.27604 144.258 9.26953C144.518 9.26302 144.775 9.25651 145.029 9.25C145.29 9.23698 145.55 9.22396 145.811 9.21094V16.6328C145.811 16.8737 145.892 17.0169 146.055 17.0625C146.224 17.1081 146.608 17.1309 147.207 17.1309V18C147.018 17.987 146.833 17.9837 146.65 17.9902C146.475 17.9967 146.302 18.0033 146.133 18.0098C145.788 18.0098 145.459 18.013 145.146 18.0195C144.834 18.026 144.531 18.0326 144.238 18.0391C144.238 17.8893 144.238 17.7168 144.238 17.5215C144.238 17.3262 144.238 17.1504 144.238 16.9941C144.238 16.8379 144.238 16.75 144.238 16.7305C143.789 17.2253 143.268 17.5931 142.676 17.834C142.083 18.0749 141.442 18.1953 140.752 18.1953ZM154.316 18.2051C153.587 18.2051 152.946 18.0651 152.393 17.7852C151.839 17.4987 151.367 17.0755 150.977 16.5156V18.0391C150.736 18.0326 150.443 18.026 150.098 18.0195C149.753 18.0195 149.417 18.0163 149.092 18.0098C148.942 18.0033 148.796 18 148.652 18C148.516 18 148.389 18 148.271 18C148.161 18 148.063 18 147.979 18V17.1309C148.05 17.1309 148.118 17.1309 148.184 17.1309C148.249 17.1309 148.311 17.1276 148.369 17.1211C148.721 17.1081 148.968 17.0755 149.111 17.0234C149.255 16.9714 149.339 16.8965 149.365 16.7988C149.398 16.7012 149.414 16.584 149.414 16.4473V6.78906C149.414 6.52865 149.294 6.37891 149.053 6.33984C148.818 6.29427 148.457 6.26823 147.969 6.26172V5.37305C148.138 5.37305 148.304 5.37305 148.467 5.37305C148.63 5.37305 148.792 5.37305 148.955 5.37305C149.333 5.36654 149.701 5.36003 150.059 5.35352C150.417 5.34701 150.758 5.34049 151.084 5.33398V10.6074C151.839 9.5332 152.91 8.99609 154.297 8.99609C155.156 8.99609 155.908 9.18815 156.553 9.57227C157.197 9.95638 157.695 10.4967 158.047 11.1934C158.405 11.8835 158.584 12.6973 158.584 13.6348C158.584 14.5397 158.408 15.3372 158.057 16.0273C157.705 16.7109 157.21 17.2448 156.572 17.6289C155.934 18.013 155.182 18.2051 154.316 18.2051ZM153.945 17.1406C154.85 17.1406 155.566 16.8216 156.094 16.1836C156.628 15.5456 156.895 14.6764 156.895 13.5762C156.895 12.4889 156.628 11.6263 156.094 10.9883C155.566 10.3438 154.857 10.0215 153.965 10.0215C153.04 10.0215 152.311 10.3438 151.777 10.9883C151.25 11.6263 150.986 12.5052 150.986 13.625C150.986 14.7318 151.247 15.5944 151.768 16.2129C152.295 16.8314 153.021 17.1406 153.945 17.1406ZM163.408 18.2051C162.477 18.2051 161.732 17.9544 161.172 17.4531C160.612 16.9518 160.332 16.3138 160.332 15.5391C160.332 14.7057 160.664 14.0352 161.328 13.5273C161.992 13.0195 162.92 12.7656 164.111 12.7656C164.515 12.7656 164.925 12.7982 165.342 12.8633C165.765 12.9219 166.191 13.0065 166.621 13.1172V11.6719C166.621 11.0859 166.423 10.6367 166.025 10.3242C165.635 10.0052 165.033 9.8457 164.219 9.8457C162.884 9.8457 162.09 10.3861 161.836 11.4668L160.938 11.3594L161.064 9.64062C161.481 9.45182 161.969 9.29883 162.529 9.18164C163.089 9.05794 163.714 8.99609 164.404 8.99609C165.785 8.99609 166.771 9.24674 167.363 9.74805C167.962 10.2493 168.262 11.0371 168.262 12.1113V15.8125C168.262 16.2617 168.285 16.5775 168.33 16.7598C168.376 16.9421 168.464 17.0495 168.594 17.082C168.724 17.1146 168.919 17.1309 169.18 17.1309H169.619V18C169.515 17.9935 169.411 17.9902 169.307 17.9902C169.202 17.9902 169.098 17.9935 168.994 18C168.89 18 168.786 18 168.682 18C168.33 18.0065 167.985 18.013 167.646 18.0195C167.308 18.026 166.986 18.0326 166.68 18.0391V16.7012C166.289 17.196 165.824 17.5703 165.283 17.8242C164.749 18.0781 164.124 18.2051 163.408 18.2051ZM163.906 17.2676C164.329 17.2676 164.749 17.1797 165.166 17.0039C165.583 16.8216 165.928 16.5547 166.201 16.2031C166.481 15.8516 166.621 15.4121 166.621 14.8848V13.9277C166.23 13.8171 165.859 13.7324 165.508 13.6738C165.156 13.6152 164.814 13.5859 164.482 13.5859C163.701 13.5859 163.083 13.7552 162.627 14.0938C162.178 14.4258 161.953 14.8913 161.953 15.4902C161.953 16.0241 162.135 16.4538 162.5 16.7793C162.865 17.1048 163.333 17.2676 163.906 17.2676ZM175.566 18.2734C174.648 18.2734 173.841 18.0814 173.145 17.6973C172.448 17.3132 171.901 16.776 171.504 16.0859C171.113 15.3893 170.918 14.5723 170.918 13.6348C170.918 12.6973 171.113 11.8802 171.504 11.1836C171.901 10.487 172.448 9.94987 173.145 9.57227C173.848 9.18815 174.655 8.99609 175.566 8.99609C176.484 8.99609 177.292 9.18815 177.988 9.57227C178.691 9.94987 179.242 10.487 179.639 11.1836C180.036 11.8737 180.234 12.6908 180.234 13.6348C180.234 14.5658 180.036 15.3796 179.639 16.0762C179.248 16.7728 178.701 17.3132 177.998 17.6973C177.301 18.0814 176.491 18.2734 175.566 18.2734ZM175.566 17.2578C176.465 17.2578 177.184 16.929 177.725 16.2715C178.265 15.6139 178.535 14.7318 178.535 13.625C178.535 12.5117 178.265 11.6296 177.725 10.9785C177.191 10.3275 176.471 10.002 175.566 10.002C174.661 10.002 173.942 10.3275 173.408 10.9785C172.874 11.623 172.607 12.5052 172.607 13.625C172.607 14.7318 172.874 15.6139 173.408 16.2715C173.942 16.929 174.661 17.2578 175.566 17.2578ZM182.227 20.3633L181.66 19.8359C181.816 19.7253 181.937 19.582 182.021 19.4062C182.113 19.2305 182.184 19.0189 182.236 18.7715C182.288 18.5306 182.331 18.2604 182.363 17.9609L181.709 17.9121L181.934 16.1445H184.141L183.75 18.0098C183.633 18.5697 183.451 19.0579 183.203 19.4746C182.956 19.8913 182.63 20.1875 182.227 20.3633ZM189.141 18V17.0332H189.648C190.052 17.0332 190.335 17.0039 190.498 16.9453C190.667 16.8802 190.768 16.7891 190.801 16.6719C190.84 16.5547 190.859 16.4115 190.859 16.2422V7.00391C190.859 6.74349 190.788 6.57422 190.645 6.49609C190.508 6.41797 190.186 6.37565 189.678 6.36914C189.6 6.36914 189.515 6.36914 189.424 6.36914C189.339 6.36914 189.245 6.36914 189.141 6.36914V5.40234H194.893C195.96 5.40234 196.833 5.55534 197.51 5.86133C198.193 6.16732 198.698 6.59375 199.023 7.14062C199.349 7.68099 199.512 8.30924 199.512 9.02539C199.512 9.73503 199.355 10.36 199.043 10.9004C198.737 11.4408 198.245 11.8639 197.568 12.1699C196.898 12.4694 196.012 12.6191 194.912 12.6191H192.646V16.2812C192.646 16.6458 192.734 16.8639 192.91 16.9355C193.086 17.0007 193.408 17.0332 193.877 17.0332H194.375V18C194.023 18 193.685 17.9967 193.359 17.9902C193.04 17.9837 192.63 17.9805 192.129 17.9805C191.53 17.9805 190.996 17.9837 190.527 17.9902C190.059 17.9967 189.596 18 189.141 18ZM192.646 11.6133H194.512C196.673 11.6133 197.754 10.7604 197.754 9.05469C197.754 8.20833 197.51 7.56055 197.021 7.11133C196.54 6.66211 195.719 6.4375 194.561 6.4375H192.646V11.6133ZM200.371 18V17.1113C200.859 17.1113 201.208 17.0983 201.416 17.0723C201.624 17.0397 201.751 16.9876 201.797 16.916C201.842 16.8444 201.865 16.75 201.865 16.6328V6.64258C201.865 6.47982 201.777 6.37565 201.602 6.33008C201.426 6.28451 201.188 6.25846 200.889 6.25195C200.824 6.25195 200.752 6.25195 200.674 6.25195C200.596 6.25195 200.514 6.25195 200.43 6.25195V5.37305C200.547 5.37305 200.667 5.3763 200.791 5.38281C200.921 5.38281 201.071 5.38281 201.24 5.38281C201.598 5.38281 201.963 5.37956 202.334 5.37305C202.705 5.36003 203.089 5.34701 203.486 5.33398C203.486 5.63346 203.486 5.95573 203.486 6.30078C203.493 6.63932 203.496 6.99089 203.496 7.35547C203.496 7.71354 203.496 8.07161 203.496 8.42969C203.496 8.78776 203.496 9.13932 203.496 9.48438C203.496 9.82292 203.496 10.1452 203.496 10.4512C203.965 9.9694 204.486 9.61133 205.059 9.37695C205.632 9.14258 206.26 9.02539 206.943 9.02539C207.757 9.02539 208.366 9.19466 208.77 9.5332C209.173 9.86523 209.44 10.3665 209.57 11.0371C209.707 11.7012 209.775 12.5312 209.775 13.5273V16.5254C209.775 16.8249 209.873 16.9974 210.068 17.043C210.264 17.0885 210.628 17.1113 211.162 17.1113V18C210.817 18 210.475 18 210.137 18C209.805 17.9935 209.401 17.987 208.926 17.9805C208.457 17.9805 208.047 17.9837 207.695 17.9902C207.35 17.9967 207.002 18 206.65 18V17.1113C207.223 17.0983 207.611 17.0625 207.812 17.0039C208.021 16.9453 208.125 16.7956 208.125 16.5547V12.8047C208.125 11.8542 208.008 11.1641 207.773 10.7344C207.546 10.3047 207.064 10.0898 206.328 10.0898C205.859 10.0898 205.436 10.181 205.059 10.3633C204.681 10.5391 204.359 10.7539 204.092 11.0078C203.831 11.2617 203.633 11.5026 203.496 11.7305V16.6914C203.496 16.8997 203.597 17.0234 203.799 17.0625C204.001 17.0951 204.395 17.1113 204.98 17.1113V18C204.603 18 204.238 18 203.887 18C203.535 17.9935 203.109 17.987 202.607 17.9805C202.152 17.9805 201.755 17.9837 201.416 17.9902C201.077 17.9967 200.729 18 200.371 18ZM211.973 18V17.1113C212.448 17.1113 212.783 17.0951 212.979 17.0625C213.18 17.0234 213.304 16.9583 213.35 16.8672C213.395 16.776 213.418 16.6458 213.418 16.4766V10.4902C213.418 10.3079 213.314 10.2038 213.105 10.1777C212.897 10.1517 212.536 10.1354 212.021 10.1289C212.021 9.97917 212.021 9.83268 212.021 9.68945C212.021 9.54622 212.021 9.40299 212.021 9.25977C212.288 9.25977 212.549 9.25977 212.803 9.25977C213.057 9.25977 213.304 9.25651 213.545 9.25C213.805 9.24349 214.059 9.23698 214.307 9.23047C214.554 9.22396 214.805 9.21745 215.059 9.21094V16.5156C215.059 16.8086 215.169 16.9811 215.391 17.0332C215.618 17.0853 215.996 17.1113 216.523 17.1113V18C216.354 18 216.126 18 215.84 18C215.56 17.9935 215.27 17.9902 214.971 17.9902C214.678 17.9902 214.424 17.9902 214.209 17.9902C213.994 17.9837 213.867 17.9805 213.828 17.9805C213.464 17.9805 213.138 17.9837 212.852 17.9902C212.565 17.9967 212.272 18 211.973 18ZM214.16 7.33594C213.874 7.33594 213.643 7.2513 213.467 7.08203C213.298 6.91276 213.213 6.69141 213.213 6.41797C213.213 6.14453 213.298 5.92643 213.467 5.76367C213.643 5.60091 213.87 5.51953 214.15 5.51953C214.437 5.51953 214.665 5.60091 214.834 5.76367C215.003 5.92643 215.088 6.14779 215.088 6.42773C215.088 6.69466 215.003 6.91276 214.834 7.08203C214.665 7.2513 214.44 7.33594 214.16 7.33594ZM217.285 18C217.285 17.9479 217.285 17.8828 217.285 17.8047C217.285 17.7266 217.282 17.6452 217.275 17.5605C217.275 17.4694 217.275 17.3848 217.275 17.3066C217.275 17.2285 217.275 17.1634 217.275 17.1113C217.77 17.1113 218.118 17.082 218.32 17.0234C218.522 16.9648 218.643 16.877 218.682 16.7598C218.727 16.6426 218.75 16.4961 218.75 16.3203V6.75C218.75 6.50911 218.626 6.36914 218.379 6.33008C218.132 6.29102 217.78 6.26823 217.324 6.26172V5.38281C217.5 5.38281 217.669 5.38281 217.832 5.38281C217.995 5.3763 218.158 5.37305 218.32 5.37305C218.49 5.37305 218.656 5.37305 218.818 5.37305C219.066 5.36654 219.316 5.36328 219.57 5.36328C219.831 5.35677 220.101 5.35026 220.381 5.34375V16.4277C220.381 16.7467 220.505 16.9421 220.752 17.0137C221.006 17.0788 221.383 17.1113 221.885 17.1113V18C221.527 18 221.169 18 220.811 18C220.459 17.9935 220.042 17.987 219.561 17.9805C219.085 17.9805 218.675 17.9837 218.33 17.9902C217.985 17.9967 217.637 18 217.285 18ZM223.223 18V17.1113C223.698 17.1113 224.033 17.0951 224.229 17.0625C224.43 17.0234 224.554 16.9583 224.6 16.8672C224.645 16.776 224.668 16.6458 224.668 16.4766V10.4902C224.668 10.3079 224.564 10.2038 224.355 10.1777C224.147 10.1517 223.786 10.1354 223.271 10.1289C223.271 9.97917 223.271 9.83268 223.271 9.68945C223.271 9.54622 223.271 9.40299 223.271 9.25977C223.538 9.25977 223.799 9.25977 224.053 9.25977C224.307 9.25977 224.554 9.25651 224.795 9.25C225.055 9.24349 225.309 9.23698 225.557 9.23047C225.804 9.22396 226.055 9.21745 226.309 9.21094V16.5156C226.309 16.8086 226.419 16.9811 226.641 17.0332C226.868 17.0853 227.246 17.1113 227.773 17.1113V18C227.604 18 227.376 18 227.09 18C226.81 17.9935 226.52 17.9902 226.221 17.9902C225.928 17.9902 225.674 17.9902 225.459 17.9902C225.244 17.9837 225.117 17.9805 225.078 17.9805C224.714 17.9805 224.388 17.9837 224.102 17.9902C223.815 17.9967 223.522 18 223.223 18ZM225.41 7.33594C225.124 7.33594 224.893 7.2513 224.717 7.08203C224.548 6.91276 224.463 6.69141 224.463 6.41797C224.463 6.14453 224.548 5.92643 224.717 5.76367C224.893 5.60091 225.12 5.51953 225.4 5.51953C225.687 5.51953 225.915 5.60091 226.084 5.76367C226.253 5.92643 226.338 6.14779 226.338 6.42773C226.338 6.69466 226.253 6.91276 226.084 7.08203C225.915 7.2513 225.69 7.33594 225.41 7.33594ZM228.35 21.9453V21.0664C228.812 21.0534 229.141 21.0306 229.336 20.998C229.57 20.959 229.71 20.8939 229.756 20.8027C229.801 20.7181 229.824 20.6042 229.824 20.4609V10.5391C229.824 10.3307 229.714 10.2135 229.492 10.1875C229.271 10.1549 228.923 10.1354 228.447 10.1289V9.25977C228.649 9.25977 228.848 9.25977 229.043 9.25977C229.238 9.25977 229.434 9.25977 229.629 9.25977C229.922 9.25977 230.215 9.25651 230.508 9.25C230.807 9.24349 231.104 9.23047 231.396 9.21094V10.8223C231.722 10.2754 232.174 9.8457 232.754 9.5332C233.333 9.2207 233.994 9.06445 234.736 9.06445C235.576 9.06445 236.312 9.25326 236.943 9.63086C237.581 10.0085 238.079 10.5358 238.438 11.2129C238.796 11.89 238.975 12.6745 238.975 13.5664C238.975 14.5104 238.796 15.3372 238.438 16.0469C238.086 16.75 237.591 17.2969 236.953 17.6875C236.315 18.0716 235.57 18.2637 234.717 18.2637C234.007 18.2637 233.379 18.1302 232.832 17.8633C232.292 17.5898 231.842 17.1829 231.484 16.6426V20.5C231.484 20.7799 231.569 20.9427 231.738 20.9883C231.914 21.0404 232.249 21.0664 232.744 21.0664H233.086V21.9453C232.995 21.9453 232.829 21.9421 232.588 21.9355C232.347 21.9355 232.087 21.9355 231.807 21.9355C231.527 21.9355 231.279 21.9355 231.064 21.9355C230.85 21.9355 230.723 21.9355 230.684 21.9355C230.645 21.9355 230.518 21.9355 230.303 21.9355C230.094 21.9355 229.854 21.9355 229.58 21.9355C229.307 21.9355 229.053 21.9355 228.818 21.9355C228.59 21.9421 228.434 21.9453 228.35 21.9453ZM234.355 17.209C235.267 17.209 235.986 16.8932 236.514 16.2617C237.048 15.6237 237.314 14.748 237.314 13.6348C237.314 12.5475 237.044 11.6914 236.504 11.0664C235.964 10.4414 235.228 10.1289 234.297 10.1289C233.398 10.1289 232.686 10.4414 232.158 11.0664C231.637 11.6914 231.377 12.541 231.377 13.6152C231.377 14.7155 231.647 15.5911 232.188 16.2422C232.728 16.8867 233.451 17.209 234.355 17.209ZM240.01 21.9453V21.0664C240.472 21.0534 240.801 21.0306 240.996 20.998C241.23 20.959 241.37 20.8939 241.416 20.8027C241.462 20.7181 241.484 20.6042 241.484 20.4609V10.5391C241.484 10.3307 241.374 10.2135 241.152 10.1875C240.931 10.1549 240.583 10.1354 240.107 10.1289V9.25977C240.309 9.25977 240.508 9.25977 240.703 9.25977C240.898 9.25977 241.094 9.25977 241.289 9.25977C241.582 9.25977 241.875 9.25651 242.168 9.25C242.467 9.24349 242.764 9.23047 243.057 9.21094V10.8223C243.382 10.2754 243.835 9.8457 244.414 9.5332C244.993 9.2207 245.654 9.06445 246.396 9.06445C247.236 9.06445 247.972 9.25326 248.604 9.63086C249.242 10.0085 249.74 10.5358 250.098 11.2129C250.456 11.89 250.635 12.6745 250.635 13.5664C250.635 14.5104 250.456 15.3372 250.098 16.0469C249.746 16.75 249.251 17.2969 248.613 17.6875C247.975 18.0716 247.23 18.2637 246.377 18.2637C245.667 18.2637 245.039 18.1302 244.492 17.8633C243.952 17.5898 243.503 17.1829 243.145 16.6426V20.5C243.145 20.7799 243.229 20.9427 243.398 20.9883C243.574 21.0404 243.91 21.0664 244.404 21.0664H244.746V21.9453C244.655 21.9453 244.489 21.9421 244.248 21.9355C244.007 21.9355 243.747 21.9355 243.467 21.9355C243.187 21.9355 242.939 21.9355 242.725 21.9355C242.51 21.9355 242.383 21.9355 242.344 21.9355C242.305 21.9355 242.178 21.9355 241.963 21.9355C241.755 21.9355 241.514 21.9355 241.24 21.9355C240.967 21.9355 240.713 21.9355 240.479 21.9355C240.251 21.9421 240.094 21.9453 240.01 21.9453ZM246.016 17.209C246.927 17.209 247.646 16.8932 248.174 16.2617C248.708 15.6237 248.975 14.748 248.975 13.6348C248.975 12.5475 248.704 11.6914 248.164 11.0664C247.624 10.4414 246.888 10.1289 245.957 10.1289C245.059 10.1289 244.346 10.4414 243.818 11.0664C243.298 11.6914 243.037 12.541 243.037 13.6152C243.037 14.7155 243.307 15.5911 243.848 16.2422C244.388 16.8867 245.111 17.209 246.016 17.209ZM252.012 18V17.1113C252.487 17.1113 252.822 17.0951 253.018 17.0625C253.219 17.0234 253.343 16.9583 253.389 16.8672C253.434 16.776 253.457 16.6458 253.457 16.4766V10.4902C253.457 10.3079 253.353 10.2038 253.145 10.1777C252.936 10.1517 252.575 10.1354 252.061 10.1289C252.061 9.97917 252.061 9.83268 252.061 9.68945C252.061 9.54622 252.061 9.40299 252.061 9.25977C252.327 9.25977 252.588 9.25977 252.842 9.25977C253.096 9.25977 253.343 9.25651 253.584 9.25C253.844 9.24349 254.098 9.23698 254.346 9.23047C254.593 9.22396 254.844 9.21745 255.098 9.21094V16.5156C255.098 16.8086 255.208 16.9811 255.43 17.0332C255.658 17.0853 256.035 17.1113 256.562 17.1113V18C256.393 18 256.165 18 255.879 18C255.599 17.9935 255.309 17.9902 255.01 17.9902C254.717 17.9902 254.463 17.9902 254.248 17.9902C254.033 17.9837 253.906 17.9805 253.867 17.9805C253.503 17.9805 253.177 17.9837 252.891 17.9902C252.604 17.9967 252.311 18 252.012 18ZM254.199 7.33594C253.913 7.33594 253.682 7.2513 253.506 7.08203C253.337 6.91276 253.252 6.69141 253.252 6.41797C253.252 6.14453 253.337 5.92643 253.506 5.76367C253.682 5.60091 253.91 5.51953 254.189 5.51953C254.476 5.51953 254.704 5.60091 254.873 5.76367C255.042 5.92643 255.127 6.14779 255.127 6.42773C255.127 6.69466 255.042 6.91276 254.873 7.08203C254.704 7.2513 254.479 7.33594 254.199 7.33594ZM257.354 18C257.354 17.9479 257.354 17.8828 257.354 17.8047C257.354 17.7266 257.354 17.6452 257.354 17.5605C257.354 17.4694 257.354 17.3848 257.354 17.3066C257.354 17.2285 257.354 17.1634 257.354 17.1113C257.842 17.1113 258.19 17.0983 258.398 17.0723C258.607 17.0462 258.734 16.9974 258.779 16.9258C258.831 16.8477 258.857 16.7402 258.857 16.6035V10.4512C258.857 10.2884 258.76 10.194 258.564 10.168C258.376 10.1419 257.992 10.1289 257.412 10.1289C257.412 10.0573 257.412 9.96615 257.412 9.85547C257.412 9.74479 257.409 9.63411 257.402 9.52344C257.402 9.41276 257.402 9.32487 257.402 9.25977C257.624 9.25977 257.835 9.25977 258.037 9.25977C258.245 9.25977 258.447 9.25651 258.643 9.25C258.962 9.25 259.268 9.24674 259.561 9.24023C259.86 9.22721 260.153 9.21745 260.439 9.21094V10.5879C260.882 10.1061 261.393 9.73503 261.973 9.47461C262.552 9.20768 263.164 9.07422 263.809 9.07422C264.759 9.07422 265.488 9.33138 265.996 9.8457C266.504 10.3535 266.758 11.151 266.758 12.2383V16.7109C266.758 16.9128 266.859 17.0267 267.061 17.0527C267.262 17.0788 267.617 17.0983 268.125 17.1113V18C267.806 18 267.49 18 267.178 18C266.872 17.9935 266.491 17.987 266.035 17.9805C265.56 17.9805 265.133 17.9837 264.756 17.9902C264.378 17.9967 264.001 18 263.623 18V17.1113C264.118 17.1113 264.466 17.0983 264.668 17.0723C264.876 17.0462 265 17.0007 265.039 16.9355C265.085 16.8704 265.107 16.7793 265.107 16.6621V12.8047C265.107 11.9258 264.993 11.2715 264.766 10.8418C264.538 10.4121 264.056 10.1973 263.32 10.1973C262.611 10.1973 262.028 10.36 261.572 10.6855C261.117 11.0111 260.765 11.3301 260.518 11.6426C260.511 11.8835 260.505 12.1276 260.498 12.375C260.492 12.6159 260.488 12.8665 260.488 13.127V16.6523C260.488 16.8802 260.602 17.0137 260.83 17.0527C261.064 17.0918 261.445 17.1113 261.973 17.1113V18C261.634 18 261.299 18 260.967 18C260.641 17.9935 260.241 17.987 259.766 17.9805C259.277 17.9805 258.844 17.9837 258.467 17.9902C258.089 17.9967 257.718 18 257.354 18ZM273.984 18.2734C273.001 18.2734 272.155 18.0814 271.445 17.6973C270.742 17.3132 270.202 16.776 269.824 16.0859C269.447 15.3893 269.258 14.5788 269.258 13.6543C269.258 12.7168 269.45 11.8997 269.834 11.2031C270.218 10.5065 270.758 9.96615 271.455 9.58203C272.152 9.19141 272.962 8.99609 273.887 8.99609C274.824 8.99609 275.632 9.18815 276.309 9.57227C276.986 9.94987 277.507 10.5 277.871 11.2227C278.242 11.9388 278.431 12.8014 278.438 13.8105L277.852 13.9863H270.938C270.951 15.028 271.253 15.8451 271.846 16.4375C272.445 17.0299 273.232 17.3262 274.209 17.3262C274.886 17.3262 275.479 17.1927 275.986 16.9258C276.494 16.6523 276.868 16.2031 277.109 15.5781H278.291C278.031 16.4701 277.52 17.1439 276.758 17.5996C275.996 18.0488 275.072 18.2734 273.984 18.2734ZM270.947 13.1367H276.855C276.777 12.1406 276.481 11.3594 275.967 10.793C275.459 10.2266 274.772 9.94336 273.906 9.94336C273.079 9.94336 272.406 10.2298 271.885 10.8027C271.37 11.3757 271.058 12.1536 270.947 13.1367ZM283.906 18.2051C283.236 18.2051 282.673 18.1237 282.217 17.9609C281.768 17.7917 281.4 17.5345 281.113 17.1895L281.016 17.9219C280.872 17.9219 280.729 17.9219 280.586 17.9219C280.449 17.9154 280.306 17.9121 280.156 17.9121V15.0996H281.104C281.117 15.8353 281.348 16.3984 281.797 16.7891C282.246 17.1732 282.874 17.3652 283.682 17.3652C284.346 17.3652 284.886 17.2318 285.303 16.9648C285.719 16.6914 285.928 16.3236 285.928 15.8613C285.928 15.5163 285.798 15.2428 285.537 15.041C285.277 14.8327 284.932 14.6569 284.502 14.5137C284.079 14.3704 283.613 14.2272 283.105 14.084C282.493 13.8952 281.979 13.6934 281.562 13.4785C281.146 13.2637 280.833 13 280.625 12.6875C280.417 12.375 280.312 11.9844 280.312 11.5156C280.312 10.832 280.596 10.2559 281.162 9.78711C281.735 9.31185 282.5 9.07422 283.457 9.07422C283.991 9.07422 284.495 9.14583 284.971 9.28906C285.446 9.42578 285.83 9.64714 286.123 9.95312C286.13 9.9401 286.149 9.88151 286.182 9.77734C286.214 9.66667 286.247 9.55924 286.279 9.45508C286.312 9.3444 286.328 9.28906 286.328 9.28906C286.328 9.28906 286.383 9.29232 286.494 9.29883C286.605 9.29883 286.719 9.29883 286.836 9.29883C286.96 9.29883 287.035 9.30208 287.061 9.30859V11.9648H286.143C286.117 11.3138 285.898 10.8125 285.488 10.4609C285.078 10.1029 284.492 9.92383 283.73 9.92383C283.079 9.92383 282.594 10.0671 282.275 10.3535C281.956 10.64 281.797 10.9688 281.797 11.3398C281.797 11.7435 282.002 12.056 282.412 12.2773C282.822 12.4922 283.353 12.6842 284.004 12.8535C284.707 13.0358 285.316 13.2344 285.83 13.4492C286.351 13.6576 286.751 13.931 287.031 14.2695C287.311 14.6081 287.451 15.0605 287.451 15.627C287.451 16.1803 287.305 16.6491 287.012 17.0332C286.719 17.4173 286.305 17.7103 285.771 17.9121C285.244 18.1074 284.622 18.2051 283.906 18.2051ZM289.902 20.3633L289.336 19.8359C289.492 19.7253 289.613 19.582 289.697 19.4062C289.788 19.2305 289.86 19.0189 289.912 18.7715C289.964 18.5306 290.007 18.2604 290.039 17.9609L289.385 17.9121L289.609 16.1445H291.816L291.426 18.0098C291.309 18.5697 291.126 19.0579 290.879 19.4746C290.632 19.8913 290.306 20.1875 289.902 20.3633ZM297.549 18C297.542 17.9349 297.539 17.8665 297.539 17.7949C297.539 17.7233 297.539 17.6517 297.539 17.5801C297.539 16.7012 297.666 15.946 297.92 15.3145C298.174 14.6764 298.525 14.1165 298.975 13.6348C299.424 13.1465 299.941 12.694 300.527 12.2773C301.113 11.8607 301.742 11.431 302.412 10.9883C302.822 10.7148 303.161 10.4512 303.428 10.1973C303.695 9.94336 303.893 9.66992 304.023 9.37695C304.16 9.07747 304.229 8.73893 304.229 8.36133C304.229 7.68424 303.991 7.14714 303.516 6.75C303.047 6.34635 302.438 6.14453 301.689 6.14453C300.635 6.14453 299.915 6.3724 299.531 6.82812C299.147 7.28385 298.952 7.92513 298.945 8.75195L297.832 8.72266V6.33008C298.314 5.94596 298.88 5.65625 299.531 5.46094C300.189 5.26562 300.999 5.16797 301.963 5.16797C303.187 5.16797 304.134 5.46419 304.805 6.05664C305.482 6.64258 305.82 7.46615 305.82 8.52734C305.82 9.17839 305.68 9.72201 305.4 10.1582C305.127 10.5879 304.71 11.0046 304.15 11.4082C303.59 11.8118 302.884 12.2969 302.031 12.8633C301.25 13.3841 300.641 13.8789 300.205 14.3477C299.775 14.8099 299.476 15.2526 299.307 15.6758C299.137 16.0924 299.053 16.4928 299.053 16.877H304.131C304.346 16.877 304.499 16.8151 304.59 16.6914C304.681 16.5677 304.736 16.3203 304.756 15.9492C304.782 15.5716 304.795 15.015 304.795 14.2793H305.82V18H297.549ZM312.568 18.2246C311.995 18.2246 311.439 18.153 310.898 18.0098C310.365 17.8665 309.867 17.6615 309.404 17.3945L309.199 14.8848H310.205C310.27 15.653 310.508 16.2389 310.918 16.6426C311.328 17.0397 311.969 17.2383 312.842 17.2383C313.695 17.2383 314.388 16.9616 314.922 16.4082C315.462 15.8483 315.732 15.0475 315.732 14.0059C315.732 13.0618 315.475 12.3164 314.961 11.7695C314.453 11.2227 313.763 10.9492 312.891 10.9492C312.298 10.9492 311.781 11.0664 311.338 11.3008C310.895 11.5286 310.508 11.8737 310.176 12.3359L309.414 12.082V5.40234H316.719V7.69727H315.713V7.30664C315.713 6.92253 315.703 6.70117 315.684 6.64258C315.664 6.57747 315.596 6.54492 315.479 6.54492H310.732L310.537 10.8027C311.312 10.1842 312.22 9.875 313.262 9.875C314.089 9.875 314.808 10.0443 315.42 10.3828C316.032 10.7148 316.507 11.1868 316.846 11.7988C317.184 12.4108 317.354 13.1302 317.354 13.957C317.354 14.9271 317.139 15.7279 316.709 16.3594C316.279 16.9909 315.703 17.4596 314.98 17.7656C314.258 18.0716 313.454 18.2246 312.568 18.2246ZM324.16 18.2246C322.65 18.2246 321.497 17.6745 320.703 16.5742C319.915 15.474 319.521 13.8464 319.521 11.6914C319.521 9.55599 319.915 7.9349 320.703 6.82812C321.491 5.71484 322.643 5.1582 324.16 5.1582C325.671 5.1582 326.82 5.71159 327.607 6.81836C328.395 7.91862 328.789 9.54297 328.789 11.6914C328.789 13.1367 328.61 14.3444 328.252 15.3145C327.9 16.278 327.38 17.0039 326.689 17.4922C325.999 17.9805 325.156 18.2246 324.16 18.2246ZM324.16 17.1992C325.202 17.1992 325.96 16.7272 326.436 15.7832C326.917 14.8392 327.158 13.472 327.158 11.6816C327.158 9.81966 326.908 8.43294 326.406 7.52148C325.911 6.60352 325.163 6.14453 324.16 6.14453C323.158 6.14453 322.406 6.60352 321.904 7.52148C321.41 8.43294 321.162 9.81315 321.162 11.6621C321.162 13.472 321.396 14.849 321.865 15.793C322.334 16.7305 323.099 17.1992 324.16 17.1992ZM334.922 18.2246C334.134 18.2246 333.441 18.1204 332.842 17.9121C332.249 17.6973 331.774 17.3913 331.416 16.9941V15.2559H332.559C332.598 15.9655 332.78 16.4798 333.105 16.7988C333.431 17.1113 334.004 17.2676 334.824 17.2676C336.048 17.2676 336.904 16.8184 337.393 15.9199C337.881 15.0215 338.125 13.7259 338.125 12.0332C337.721 12.528 337.233 12.9056 336.66 13.166C336.087 13.4199 335.465 13.5469 334.795 13.5469C333.981 13.5469 333.271 13.3776 332.666 13.0391C332.067 12.7005 331.602 12.2285 331.27 11.623C330.944 11.0111 330.781 10.3014 330.781 9.49414C330.781 8.60221 330.96 7.83073 331.318 7.17969C331.676 6.52865 332.184 6.02734 332.842 5.67578C333.499 5.32422 334.274 5.14844 335.166 5.14844C336.143 5.14844 336.966 5.36979 337.637 5.8125C338.307 6.25521 338.815 6.93555 339.16 7.85352C339.505 8.76497 339.678 9.93034 339.678 11.3496C339.678 12.6517 339.525 13.8236 339.219 14.8652C338.919 15.9004 338.421 16.7207 337.725 17.3262C337.028 17.9251 336.094 18.2246 334.922 18.2246ZM335.088 12.502C335.804 12.502 336.426 12.2904 336.953 11.8672C337.487 11.444 337.858 10.8385 338.066 10.0508C338.066 9.58854 338.034 9.18164 337.969 8.83008C337.819 7.99023 337.507 7.33594 337.031 6.86719C336.556 6.39193 335.924 6.1543 335.137 6.1543C334.29 6.1543 333.617 6.4375 333.115 7.00391C332.614 7.57031 332.363 8.37435 332.363 9.41602C332.363 10.2819 332.591 11.0143 333.047 11.6133C333.509 12.2057 334.189 12.502 335.088 12.502Z" fill="white"/>
</svg>
