<svg width="164" height="34" viewBox="0 0 164 34" fill="none" xmlns="http://www.w3.org/2000/svg">
<path d="M6.16669 22.6667V14.5109C6.1665 14.4746 6.17561 14.4389 6.19316 14.4071C6.21071 14.3753 6.23611 14.3485 6.26694 14.3294C6.29776 14.3102 6.33299 14.2992 6.36926 14.2975C6.40553 14.2958 6.44162 14.3035 6.47411 14.3197L15.5989 18.8828C16.1891 19.178 16.84 19.3317 17.5 19.3317C18.16 19.3317 18.8109 19.178 19.4012 18.8828L28.5245 14.3211C28.557 14.3046 28.5931 14.2967 28.6294 14.2982C28.6658 14.2996 28.7011 14.3104 28.7321 14.3295C28.7631 14.3485 28.7887 14.3752 28.8064 14.407C28.8242 14.4388 28.8334 14.4745 28.8334 14.5109V22.6667C28.8334 23.4181 28.5348 24.1388 28.0035 24.6701C27.4721 25.2015 26.7515 25.5 26 25.5H9.00002C8.24858 25.5 7.52791 25.2015 6.99655 24.6701C6.4652 24.1388 6.16669 23.4181 6.16669 22.6667Z" fill="#6B8929"/>
<path d="M6.16669 11.3333V12.6182C6.16674 12.6577 6.17777 12.6963 6.19853 12.7299C6.2193 12.7634 6.24899 12.7905 6.28427 12.8081L15.5989 17.4661C16.1891 17.7613 16.84 17.915 17.5 17.915C18.16 17.915 18.8109 17.7613 19.4012 17.4661L28.7158 12.8081C28.7511 12.7905 28.7807 12.7634 28.8015 12.7299C28.8223 12.6963 28.8333 12.6577 28.8334 12.6182V11.3333C28.8334 10.5819 28.5348 9.86122 28.0035 9.32986C27.4721 8.79851 26.7515 8.5 26 8.5H9.00002C8.24857 8.5 7.5279 8.79851 6.99655 9.32986C6.4652 9.86122 6.16669 10.5819 6.16669 11.3333Z" fill="#9FCC3C"/>
<path d="M48.875 24.293C47.0469 24.293 45.5352 23.9492 44.3398 23.2617C43.1445 22.5742 42.2539 21.6328 41.668 20.4375C41.0898 19.2422 40.8008 17.8906 40.8008 16.3828C40.8008 14.8125 41.1172 13.4336 41.75 12.2461C42.3828 11.0586 43.2773 10.1289 44.4336 9.45703C45.5898 8.78516 46.957 8.44922 48.5352 8.44922C49.3164 8.44922 50.0859 8.58203 50.8438 8.84766C51.6016 9.11328 52.2148 9.5 52.6836 10.0078L52.8125 8.76562H54.9922V13.5117H52.9414C52.8711 12.5586 52.5039 11.8047 51.8398 11.25C51.1758 10.6875 50.2617 10.4062 49.0977 10.4062C48.1289 10.4062 47.293 10.6367 46.5898 11.0977C45.8867 11.5586 45.3438 12.2305 44.9609 13.1133C44.5781 13.9961 44.3867 15.0703 44.3867 16.3359C44.3867 17.5859 44.5781 18.6602 44.9609 19.5586C45.3438 20.457 45.8867 21.1445 46.5898 21.6211C47.3008 22.0977 48.1445 22.3359 49.1211 22.3359C50.4492 22.3359 51.4531 22.0664 52.1328 21.5273C52.8125 20.9805 53.1758 20.0156 53.2227 18.6328L55.2734 19.0547L55.1211 22.4414C54.1914 23.1211 53.207 23.6016 52.168 23.8828C51.1367 24.1562 50.0391 24.293 48.875 24.293ZM63.418 24.3398C62.2461 24.3398 61.1953 24.1172 60.2656 23.6719C59.3438 23.2266 58.6133 22.5859 58.0742 21.75C57.5352 20.9062 57.2656 19.8945 57.2656 18.7148C57.2656 17.543 57.5312 16.5391 58.0625 15.7031C58.6016 14.8594 59.332 14.2148 60.2539 13.7695C61.1836 13.3164 62.2383 13.0898 63.418 13.0898C64.5586 13.0898 65.5938 13.3086 66.5234 13.7461C67.4531 14.1836 68.1914 14.8203 68.7383 15.6562C69.293 16.4922 69.5703 17.5117 69.5703 18.7148C69.5703 19.8867 69.3008 20.8945 68.7617 21.7383C68.2227 22.5742 67.4883 23.2188 66.5586 23.6719C65.6289 24.1172 64.582 24.3398 63.418 24.3398ZM63.4062 22.6289C64.3438 22.6289 65.0859 22.2773 65.6328 21.5742C66.1797 20.8633 66.4531 19.8945 66.4531 18.668C66.4531 17.4648 66.1836 16.5156 65.6445 15.8203C65.1055 15.125 64.3672 14.7773 63.4297 14.7773C62.4766 14.7773 61.7305 15.125 61.1914 15.8203C60.6523 16.5156 60.3828 17.4766 60.3828 18.7031C60.3828 19.9141 60.6484 20.8711 61.1797 21.5742C61.7188 22.2773 62.4609 22.6289 63.4062 22.6289ZM71.1758 24C71.1758 23.9609 71.1758 23.8633 71.1758 23.707C71.1758 23.5508 71.1758 23.3789 71.1758 23.1914C71.1758 22.9961 71.1758 22.8242 71.1758 22.6758C71.1758 22.5195 71.1758 22.4219 71.1758 22.3828C71.668 22.375 72.0312 22.3555 72.2656 22.3242C72.5078 22.293 72.6641 22.2188 72.7344 22.1016C72.8125 21.9844 72.8516 21.7969 72.8516 21.5391V15.5391C72.8516 15.2734 72.7266 15.1211 72.4766 15.082C72.2344 15.0352 71.8242 15.0117 71.2461 15.0117C71.2461 14.957 71.2461 14.8086 71.2461 14.5664C71.2461 14.3242 71.2422 14.0859 71.2344 13.8516C71.2344 13.6094 71.2344 13.4609 71.2344 13.4062C71.5469 13.4062 71.8438 13.4102 72.125 13.418C72.4141 13.418 72.6914 13.418 72.957 13.418C73.4414 13.418 73.9141 13.4141 74.375 13.4062C74.8359 13.3906 75.3086 13.375 75.793 13.3594V15.082C76.2617 14.543 76.8516 14.0977 77.5625 13.7461C78.2734 13.3867 79.0664 13.1992 79.9414 13.1836C81.207 13.1836 82.168 13.5117 82.8242 14.168C83.4883 14.8242 83.8203 15.8867 83.8203 17.3555V21.75C83.8203 22.0859 83.9414 22.2734 84.1836 22.3125C84.4258 22.3438 84.8047 22.3672 85.3203 22.3828V24C84.875 24 84.4375 24 84.0078 24C83.5781 23.9922 83.0547 23.9844 82.4375 23.9766C81.8359 23.9766 81.2773 23.9805 80.7617 23.9883C80.2461 23.9961 79.7383 24 79.2383 24V22.3828C79.7461 22.3828 80.1055 22.3633 80.3164 22.3242C80.5273 22.2852 80.6523 22.2109 80.6914 22.1016C80.7383 21.9922 80.7617 21.8281 80.7617 21.6094V17.918C80.7617 16.9961 80.625 16.3008 80.3516 15.832C80.0781 15.3633 79.5469 15.1289 78.7578 15.1289C78.0625 15.1289 77.4922 15.2734 77.0469 15.5625C76.6016 15.8516 76.2617 16.1562 76.0273 16.4766C75.9727 16.7344 75.9336 17.0156 75.9102 17.3203C75.8945 17.6172 75.8867 17.9336 75.8867 18.2695V21.5977C75.8867 21.9883 76.0195 22.2148 76.2852 22.2773C76.5508 22.3398 76.9844 22.375 77.5859 22.3828V24C77.0703 24 76.5664 24 76.0742 24C75.5898 23.9922 75 23.9844 74.3047 23.9766C73.6719 23.9766 73.1133 23.9805 72.6289 23.9883C72.1445 23.9961 71.6602 24 71.1758 24ZM90.8867 24.3164C90.1133 24.3164 89.4922 24.168 89.0234 23.8711C88.5547 23.5742 88.2148 23.1484 88.0039 22.5938C87.8008 22.0391 87.6992 21.3711 87.6992 20.5898V15.0117H85.8711V13.5352C86.0352 13.5273 86.2812 13.5117 86.6094 13.4883C86.9453 13.4648 87.25 13.4414 87.5234 13.418C87.7969 13.3945 87.9336 13.3828 87.9336 13.3828C87.9336 13.3281 87.9531 13.1758 87.9922 12.9258C88.0312 12.668 88.0703 12.3789 88.1094 12.0586C88.1562 11.7383 88.1953 11.4531 88.2266 11.2031C88.2656 10.9453 88.2852 10.793 88.2852 10.7461L90.7344 10.2773V13.4062H93.582V15.0117H90.7461V20.1328C90.7461 20.8516 90.7969 21.4023 90.8984 21.7852C91.0078 22.168 91.3008 22.3594 91.7773 22.3594C92.0352 22.3594 92.2344 22.2695 92.375 22.0898C92.5234 21.9023 92.5977 21.6094 92.5977 21.2109L93.8164 21.0703C93.8164 22.1562 93.5508 22.9688 93.0195 23.5078C92.4883 24.0469 91.7773 24.3164 90.8867 24.3164ZM99.3008 24.2578C98.0352 24.2578 97.0586 23.9414 96.3711 23.3086C95.6914 22.6758 95.3516 21.9023 95.3516 20.9883C95.3516 19.957 95.7812 19.1367 96.6406 18.5273C97.5078 17.918 98.6992 17.6133 100.215 17.6133C100.715 17.6133 101.215 17.6445 101.715 17.707C102.223 17.7695 102.715 17.8633 103.191 17.9883V16.5117C103.191 15.8789 102.977 15.3828 102.547 15.0234C102.117 14.6641 101.453 14.4844 100.555 14.4844C99.0703 14.4844 98.1875 15.0781 97.9062 16.2656L96.2539 16.1016L96.3477 13.8516C96.668 13.7031 97.2148 13.5391 97.9883 13.3594C98.7695 13.1797 99.7266 13.0898 100.859 13.0898C102.766 13.0898 104.137 13.3906 104.973 13.9922C105.816 14.5859 106.238 15.5703 106.238 16.9453V21C106.238 21.4688 106.262 21.8008 106.309 21.9961C106.355 22.1914 106.445 22.3086 106.578 22.3477C106.719 22.3867 106.93 22.4062 107.211 22.4062H107.762V24C107.668 24 107.492 24 107.234 24C106.977 23.9922 106.711 23.9883 106.438 23.9883C106.172 23.9883 105.977 23.9883 105.852 23.9883C105.422 23.9961 105.035 24.0039 104.691 24.0117C104.348 24.0195 103.969 24.0273 103.555 24.0352L103.32 22.4883C102.945 23.0508 102.438 23.4883 101.797 23.8008C101.164 24.1055 100.332 24.2578 99.3008 24.2578ZM100.414 22.7461C100.922 22.7461 101.387 22.6523 101.809 22.4648C102.23 22.2695 102.566 21.9883 102.816 21.6211C103.066 21.2461 103.191 20.7891 103.191 20.25V19.0547C102.816 18.9531 102.449 18.8789 102.09 18.832C101.738 18.7773 101.387 18.75 101.035 18.75C100.184 18.75 99.5156 18.9297 99.0312 19.2891C98.5469 19.6484 98.3047 20.1484 98.3047 20.7891C98.3047 21.3906 98.5039 21.8672 98.9023 22.2188C99.3008 22.5703 99.8047 22.7461 100.414 22.7461ZM114.957 24.3398C113.777 24.3398 112.746 24.1133 111.863 23.6602C110.988 23.1992 110.309 22.5508 109.824 21.7148C109.348 20.8789 109.109 19.8984 109.109 18.7734C109.109 17.6953 109.348 16.7383 109.824 15.9023C110.301 15.0586 110.945 14.3984 111.758 13.9219C112.578 13.4375 113.492 13.1953 114.5 13.1953C115.102 13.1953 115.684 13.2773 116.246 13.4414C116.809 13.6055 117.301 13.8945 117.723 14.3086L117.91 13.418C118.059 13.418 118.242 13.4258 118.461 13.4414C118.68 13.4492 118.902 13.457 119.129 13.4648C119.355 13.4727 119.543 13.4844 119.691 13.5V17.3672H117.957C117.871 16.4844 117.594 15.8281 117.125 15.3984C116.664 14.9688 116.051 14.7539 115.285 14.7539C114.316 14.7539 113.566 15.1172 113.035 15.8438C112.512 16.5703 112.25 17.5352 112.25 18.7383C112.25 19.9648 112.523 20.9375 113.07 21.6562C113.625 22.3672 114.383 22.7227 115.344 22.7227C116.047 22.7227 116.617 22.5234 117.055 22.125C117.5 21.7266 117.797 21.168 117.945 20.4492L120.066 20.7305C119.84 21.8789 119.277 22.7695 118.379 23.4023C117.488 24.0273 116.348 24.3398 114.957 24.3398ZM126.113 24.3164C125.34 24.3164 124.719 24.168 124.25 23.8711C123.781 23.5742 123.441 23.1484 123.23 22.5938C123.027 22.0391 122.926 21.3711 122.926 20.5898V15.0117H121.098V13.5352C121.262 13.5273 121.508 13.5117 121.836 13.4883C122.172 13.4648 122.477 13.4414 122.75 13.418C123.023 13.3945 123.16 13.3828 123.16 13.3828C123.16 13.3281 123.18 13.1758 123.219 12.9258C123.258 12.668 123.297 12.3789 123.336 12.0586C123.383 11.7383 123.422 11.4531 123.453 11.2031C123.492 10.9453 123.512 10.793 123.512 10.7461L125.961 10.2773V13.4062H128.809V15.0117H125.973V20.1328C125.973 20.8516 126.023 21.4023 126.125 21.7852C126.234 22.168 126.527 22.3594 127.004 22.3594C127.262 22.3594 127.461 22.2695 127.602 22.0898C127.75 21.9023 127.824 21.6094 127.824 21.2109L129.043 21.0703C129.043 22.1562 128.777 22.9688 128.246 23.5078C127.715 24.0469 127.004 24.3164 126.113 24.3164ZM143.48 24.293C142.004 24.293 140.816 24.0742 139.918 23.6367C139.02 23.1914 138.371 22.5195 137.973 21.6211C137.574 20.7227 137.375 19.5938 137.375 18.2344V11.3438C137.375 11.1406 137.32 10.9531 137.211 10.7812C137.102 10.6094 136.777 10.5234 136.238 10.5234H135.699V8.74219C135.934 8.74219 136.238 8.74609 136.613 8.75391C136.996 8.76172 137.395 8.76953 137.809 8.77734C138.223 8.77734 138.59 8.77734 138.91 8.77734C139.449 8.77734 139.984 8.77344 140.516 8.76562C141.047 8.75781 141.641 8.75 142.297 8.74219V10.5234H141.852C141.453 10.5234 141.164 10.5781 140.984 10.6875C140.812 10.7891 140.707 10.9258 140.668 11.0977C140.629 11.2617 140.609 11.4414 140.609 11.6367V18.1875C140.609 19.1016 140.707 19.8672 140.902 20.4844C141.098 21.0938 141.438 21.5547 141.922 21.8672C142.406 22.1719 143.082 22.3242 143.949 22.3242C144.793 22.3242 145.438 22.1719 145.883 21.8672C146.336 21.5625 146.645 21.1133 146.809 20.5195C146.98 19.918 147.066 19.1836 147.066 18.3164V11.6016C147.066 11.4062 147.047 11.2266 147.008 11.0625C146.969 10.8984 146.859 10.7695 146.68 10.6758C146.5 10.5742 146.195 10.5234 145.766 10.5234H145.297V8.74219C145.453 8.75 145.695 8.75781 146.023 8.76562C146.352 8.76562 146.699 8.76562 147.066 8.76562C147.441 8.76562 147.762 8.76562 148.027 8.76562C148.246 8.76562 148.5 8.76562 148.789 8.76562C149.086 8.75781 149.426 8.75391 149.809 8.75391C150.191 8.74609 150.625 8.74219 151.109 8.74219V10.5234H150.535C150.152 10.5234 149.883 10.5859 149.727 10.7109C149.578 10.8281 149.492 10.9766 149.469 11.1562C149.445 11.3281 149.434 11.4883 149.434 11.6367V18.1641C149.434 20.1953 148.98 21.7266 148.074 22.7578C147.168 23.7812 145.637 24.293 143.48 24.293ZM157.859 24.2578C157.062 24.2578 156.395 24.1562 155.855 23.9531C155.316 23.75 154.875 23.4492 154.531 23.0508L154.461 23.9648C154.164 23.9648 153.867 23.957 153.57 23.9414C153.281 23.918 152.988 23.9062 152.691 23.9062V20.5664H154.484C154.531 21.332 154.824 21.9102 155.363 22.3008C155.902 22.6836 156.57 22.875 157.367 22.875C158 22.875 158.516 22.7539 158.914 22.5117C159.312 22.2695 159.512 21.9375 159.512 21.5156C159.512 21.1719 159.352 20.8906 159.031 20.6719C158.711 20.4531 158.293 20.2578 157.777 20.0859C157.262 19.9141 156.707 19.7305 156.113 19.5352C155.402 19.293 154.793 19.0391 154.285 18.7734C153.785 18.5 153.402 18.168 153.137 17.7773C152.871 17.3867 152.738 16.8906 152.738 16.2891C152.738 15.3672 153.09 14.6211 153.793 14.0508C154.504 13.4727 155.492 13.1836 156.758 13.1836C157.43 13.1836 158.059 13.2695 158.645 13.4414C159.23 13.6133 159.695 13.8789 160.039 14.2383C160.055 14.1914 160.078 14.0977 160.109 13.957C160.141 13.8164 160.172 13.6836 160.203 13.5586C160.234 13.4336 160.25 13.3711 160.25 13.3711C160.25 13.3711 160.344 13.3789 160.531 13.3945C160.727 13.4023 160.941 13.418 161.176 13.4414C161.41 13.457 161.59 13.4727 161.715 13.4883V16.6406H160.109C160.016 16 159.73 15.4961 159.254 15.1289C158.785 14.7617 158.141 14.5703 157.32 14.5547C156.648 14.5547 156.156 14.6914 155.844 14.9648C155.531 15.2305 155.375 15.5352 155.375 15.8789C155.375 16.293 155.609 16.6133 156.078 16.8398C156.547 17.0586 157.18 17.2812 157.977 17.5078C158.867 17.75 159.625 18.0117 160.25 18.293C160.883 18.5742 161.363 18.9258 161.691 19.3477C162.027 19.7695 162.195 20.3242 162.195 21.0117C162.195 21.7539 161.996 22.3672 161.598 22.8516C161.199 23.3281 160.672 23.6836 160.016 23.918C159.359 24.1445 158.641 24.2578 157.859 24.2578Z" fill="#6B8929"/>
</svg>
