<svg width="35" height="34" viewBox="0 0 35 34" fill="none" xmlns="http://www.w3.org/2000/svg">
<path d="M6.16669 22.6667V14.5109C6.1665 14.4746 6.17561 14.4389 6.19316 14.4071C6.21071 14.3753 6.23611 14.3485 6.26694 14.3294C6.29776 14.3102 6.33299 14.2992 6.36926 14.2975C6.40553 14.2958 6.44162 14.3035 6.47411 14.3197L15.5989 18.8828C16.1891 19.178 16.84 19.3317 17.5 19.3317C18.16 19.3317 18.8109 19.178 19.4012 18.8828L28.5245 14.3211C28.557 14.3046 28.5931 14.2967 28.6294 14.2982C28.6658 14.2996 28.7011 14.3104 28.7321 14.3295C28.7631 14.3485 28.7887 14.3752 28.8064 14.407C28.8242 14.4388 28.8334 14.4745 28.8334 14.5109V22.6667C28.8334 23.4181 28.5348 24.1388 28.0035 24.6701C27.4721 25.2015 26.7515 25.5 26 25.5H9.00002C8.24858 25.5 7.52791 25.2015 6.99655 24.6701C6.4652 24.1388 6.16669 23.4181 6.16669 22.6667Z" fill="#6B8929"/>
<path d="M6.16669 11.3333V12.6182C6.16674 12.6577 6.17777 12.6963 6.19853 12.7299C6.2193 12.7634 6.24899 12.7905 6.28427 12.8081L15.5989 17.4661C16.1891 17.7613 16.84 17.915 17.5 17.915C18.16 17.915 18.8109 17.7613 19.4012 17.4661L28.7158 12.8081C28.7511 12.7905 28.7807 12.7634 28.8015 12.7299C28.8223 12.6963 28.8333 12.6577 28.8334 12.6182V11.3333C28.8334 10.5819 28.5348 9.86122 28.0035 9.32986C27.4721 8.79851 26.7515 8.5 26 8.5H9.00002C8.24857 8.5 7.5279 8.79851 6.99655 9.32986C6.4652 9.86122 6.16669 10.5819 6.16669 11.3333Z" fill="#9FCC3C"/>
</svg>
