<svg width="35" height="34" viewBox="0 0 35 34" fill="none" xmlns="http://www.w3.org/2000/svg">
<path d="M6.167 22.6667V14.5109C6.1668 14.4746 6.17592 14.4389 6.19346 14.4071C6.21101 14.3753 6.23641 14.3485 6.26724 14.3294C6.29807 14.3102 6.3333 14.2992 6.36956 14.2975C6.40583 14.2958 6.44193 14.3035 6.47441 14.3197L15.5992 18.8828C16.1894 19.178 16.8403 19.3317 17.5003 19.3317C18.1603 19.3317 18.8112 19.178 19.4015 18.8828L28.5248 14.3211C28.5573 14.3046 28.5934 14.2967 28.6297 14.2982C28.6661 14.2996 28.7014 14.3104 28.7324 14.3295C28.7634 14.3485 28.789 14.3752 28.8067 14.407C28.8245 14.4388 28.8337 14.4745 28.8337 14.5109V22.6667C28.8337 23.4181 28.5352 24.1388 28.0038 24.6701C27.4724 25.2015 26.7518 25.5 26.0003 25.5H9.00033C8.24888 25.5 7.52821 25.2015 6.99686 24.6701C6.46551 24.1388 6.167 23.4181 6.167 22.6667Z" fill="#6B8929"/>
<path d="M6.16699 11.3333V12.6182C6.16705 12.6577 6.17807 12.6963 6.19884 12.7299C6.21961 12.7634 6.24929 12.7905 6.28458 12.8081L15.5992 17.4661C16.1894 17.7613 16.8403 17.915 17.5003 17.915C18.1603 17.915 18.8112 17.7613 19.4015 17.4661L28.7161 12.8081C28.7514 12.7905 28.781 12.7634 28.8018 12.7299C28.8226 12.6963 28.8336 12.6577 28.8337 12.6182V11.3333C28.8337 10.5819 28.5351 9.86122 28.0038 9.32986C27.4724 8.79851 26.7518 8.5 26.0003 8.5H9.00033C8.24888 8.5 7.52821 8.79851 6.99686 9.32986C6.4655 9.86122 6.16699 10.5819 6.16699 11.3333Z" fill="#9FCC3C"/>
</svg>
