<svg width="284" height="24" viewBox="0 0 284 24" fill="none" xmlns="http://www.w3.org/2000/svg">
<path d="M6.375 18.5V10.0982C6.375 9.16374 6.375 8.69649 6.58937 8.30449C6.80287 7.91249 7.19575 7.65961 7.98237 7.15386L9.80412 5.98311C10.2635 5.68824 10.4928 5.54036 10.75 5.54036C11.0072 5.54036 11.2365 5.68824 11.6967 5.98311L13.5176 7.15386C14.3043 7.65961 14.6971 7.91249 14.9106 8.30449C15.125 8.69649 15.125 9.16374 15.125 10.0982V18.5M10.75 10.625H10.7579M18.625 18.5V13.3917C18.625 11.3871 17.5225 11.2244 15.125 10.625M2.875 18.5V13.3917C2.875 11.3871 3.9775 11.2244 6.375 10.625M2 18.5H19.5M10.75 18.5V15M10.75 5.37499V3.60924M10.75 3.60924V1.84874C10.75 1.43399 10.75 1.22661 10.8777 1.09799C11.2802 0.692862 12.9375 1.65011 13.5675 2.03861C14.0995 2.36586 14.25 3.02036 14.25 3.60924H10.75Z" stroke="white" stroke-width="1.5" stroke-linecap="round" stroke-linejoin="round"/>
<path d="M32.041 18.2344C31.1686 18.2344 30.4134 18.1107 29.7754 17.8633C29.1374 17.6159 28.6458 17.2806 28.3008 16.8574V18C28.1576 18 28.0046 18 27.8418 18C27.6855 18 27.5326 18 27.3828 18C27.2396 18 27.1159 18 27.0117 18V14.0156H28.1836C28.1836 14.0612 28.1836 14.11 28.1836 14.1621C28.1836 14.2077 28.1868 14.2533 28.1934 14.2988C28.2454 15.1647 28.5286 15.8548 29.043 16.3691C29.5638 16.8835 30.3841 17.1406 31.5039 17.1406C32.3698 17.1406 33.0729 16.9258 33.6133 16.4961C34.1536 16.0664 34.4238 15.4967 34.4238 14.7871C34.4238 14.3184 34.2969 13.9342 34.043 13.6348C33.7956 13.3353 33.4603 13.0846 33.0371 12.8828C32.6139 12.681 32.1387 12.4954 31.6113 12.3262C31.084 12.1569 30.5469 11.9681 30 11.7598C29.0365 11.3952 28.3073 10.9655 27.8125 10.4707C27.3242 9.9694 27.0801 9.30534 27.0801 8.47852C27.0801 7.86003 27.2396 7.30013 27.5586 6.79883C27.8841 6.29753 28.3464 5.90039 28.9453 5.60742C29.5443 5.31445 30.2572 5.16797 31.084 5.16797C31.7285 5.16797 32.321 5.23958 32.8613 5.38281C33.4082 5.52604 33.9388 5.81901 34.4531 6.26172C34.4531 6.14453 34.4531 5.98177 34.4531 5.77344C34.4531 5.55859 34.4531 5.45117 34.4531 5.45117C34.5573 5.45117 34.6777 5.45117 34.8145 5.45117C34.9512 5.45117 35.0911 5.45443 35.2344 5.46094C35.3841 5.46094 35.5273 5.46094 35.6641 5.46094V8.81055H34.5215C34.515 8.73893 34.5085 8.67057 34.502 8.60547C34.502 8.54036 34.502 8.47526 34.502 8.41016C34.4759 7.73307 34.1829 7.19596 33.623 6.79883C33.0697 6.40169 32.3372 6.20312 31.4258 6.20312C30.599 6.20312 29.9512 6.39518 29.4824 6.7793C29.0137 7.16341 28.7793 7.65169 28.7793 8.24414C28.7793 8.70638 28.9095 9.08724 29.1699 9.38672C29.4368 9.67969 29.7917 9.92708 30.2344 10.1289C30.6836 10.3242 31.1849 10.5098 31.7383 10.6855C32.2982 10.8548 32.8711 11.0501 33.457 11.2715C33.9974 11.4733 34.4727 11.7207 34.8828 12.0137C35.293 12.3066 35.612 12.6615 35.8398 13.0781C36.0742 13.4948 36.1914 13.9993 36.1914 14.5918C36.1914 15.2754 36.0189 15.8939 35.6738 16.4473C35.3288 16.9941 34.8438 17.4303 34.2188 17.7559C33.6003 18.0749 32.8743 18.2344 32.041 18.2344ZM41.0938 18.2051C40.1628 18.2051 39.4173 17.9544 38.8574 17.4531C38.2975 16.9518 38.0176 16.3138 38.0176 15.5391C38.0176 14.7057 38.3496 14.0352 39.0137 13.5273C39.6777 13.0195 40.6055 12.7656 41.7969 12.7656C42.2005 12.7656 42.6107 12.7982 43.0273 12.8633C43.4505 12.9219 43.877 13.0065 44.3066 13.1172V11.6719C44.3066 11.0859 44.1081 10.6367 43.7109 10.3242C43.3203 10.0052 42.7181 9.8457 41.9043 9.8457C40.5697 9.8457 39.7754 10.3861 39.5215 11.4668L38.623 11.3594L38.75 9.64062C39.1667 9.45182 39.6549 9.29883 40.2148 9.18164C40.7747 9.05794 41.3997 8.99609 42.0898 8.99609C43.4701 8.99609 44.4564 9.24674 45.0488 9.74805C45.6478 10.2493 45.9473 11.0371 45.9473 12.1113V15.8125C45.9473 16.2617 45.9701 16.5775 46.0156 16.7598C46.0612 16.9421 46.1491 17.0495 46.2793 17.082C46.4095 17.1146 46.6048 17.1309 46.8652 17.1309H47.3047V18C47.2005 17.9935 47.0964 17.9902 46.9922 17.9902C46.888 17.9902 46.7839 17.9935 46.6797 18C46.5755 18 46.4714 18 46.3672 18C46.0156 18.0065 45.6706 18.013 45.332 18.0195C44.9935 18.026 44.6712 18.0326 44.3652 18.0391V16.7012C43.9746 17.196 43.5091 17.5703 42.9688 17.8242C42.4349 18.0781 41.8099 18.2051 41.0938 18.2051ZM41.5918 17.2676C42.015 17.2676 42.4349 17.1797 42.8516 17.0039C43.2682 16.8216 43.6133 16.5547 43.8867 16.2031C44.1667 15.8516 44.3066 15.4121 44.3066 14.8848V13.9277C43.916 13.8171 43.5449 13.7324 43.1934 13.6738C42.8418 13.6152 42.5 13.5859 42.168 13.5859C41.3867 13.5859 40.7682 13.7552 40.3125 14.0938C39.8633 14.4258 39.6387 14.8913 39.6387 15.4902C39.6387 16.0241 39.821 16.4538 40.1855 16.7793C40.5501 17.1048 41.0189 17.2676 41.5918 17.2676ZM48.2422 18C48.2422 17.9479 48.2422 17.8828 48.2422 17.8047C48.2422 17.7266 48.2422 17.6452 48.2422 17.5605C48.2422 17.4694 48.2422 17.3848 48.2422 17.3066C48.2422 17.2285 48.2422 17.1634 48.2422 17.1113C48.7305 17.1113 49.0788 17.0983 49.2871 17.0723C49.4954 17.0462 49.6224 16.9974 49.668 16.9258C49.7201 16.8477 49.7461 16.7402 49.7461 16.6035V10.4512C49.7461 10.2884 49.6484 10.194 49.4531 10.168C49.2643 10.1419 48.8802 10.1289 48.3008 10.1289C48.3008 10.0573 48.3008 9.96615 48.3008 9.85547C48.3008 9.74479 48.2975 9.63411 48.291 9.52344C48.291 9.41276 48.291 9.32487 48.291 9.25977C48.5124 9.25977 48.724 9.25977 48.9258 9.25977C49.1341 9.25977 49.3359 9.25651 49.5312 9.25C49.8503 9.25 50.1562 9.24674 50.4492 9.24023C50.7487 9.22721 51.0417 9.21745 51.3281 9.21094V10.5879C51.7708 10.1061 52.2819 9.73503 52.8613 9.47461C53.4408 9.20768 54.0527 9.07422 54.6973 9.07422C55.6478 9.07422 56.377 9.33138 56.8848 9.8457C57.3926 10.3535 57.6465 11.151 57.6465 12.2383V16.7109C57.6465 16.9128 57.7474 17.0267 57.9492 17.0527C58.151 17.0788 58.5059 17.0983 59.0137 17.1113V18C58.6947 18 58.3789 18 58.0664 18C57.7604 17.9935 57.3796 17.987 56.9238 17.9805C56.4486 17.9805 56.0221 17.9837 55.6445 17.9902C55.2669 17.9967 54.8893 18 54.5117 18V17.1113C55.0065 17.1113 55.3548 17.0983 55.5566 17.0723C55.765 17.0462 55.8887 17.0007 55.9277 16.9355C55.9733 16.8704 55.9961 16.7793 55.9961 16.6621V12.8047C55.9961 11.9258 55.8822 11.2715 55.6543 10.8418C55.4264 10.4121 54.9447 10.1973 54.209 10.1973C53.4993 10.1973 52.9167 10.36 52.4609 10.6855C52.0052 11.0111 51.6536 11.3301 51.4062 11.6426C51.3997 11.8835 51.3932 12.1276 51.3867 12.375C51.3802 12.6159 51.377 12.8665 51.377 13.127V16.6523C51.377 16.8802 51.4909 17.0137 51.7188 17.0527C51.9531 17.0918 52.334 17.1113 52.8613 17.1113V18C52.5228 18 52.1875 18 51.8555 18C51.5299 17.9935 51.1296 17.987 50.6543 17.9805C50.166 17.9805 49.7331 17.9837 49.3555 17.9902C48.9779 17.9967 48.6068 18 48.2422 18ZM62.7832 18V17.0332C63.2194 17.0267 63.5352 17.0137 63.7305 16.9941C63.9323 16.9746 64.0723 16.916 64.1504 16.8184C64.235 16.7207 64.3197 16.5579 64.4043 16.3301C64.4173 16.304 64.4922 16.112 64.6289 15.7539C64.7656 15.3893 64.9447 14.9206 65.166 14.3477C65.3874 13.7682 65.6283 13.1367 65.8887 12.4531C66.1491 11.7695 66.4095 11.0892 66.6699 10.4121C66.9368 9.72852 67.1777 9.10026 67.3926 8.52734C67.6139 7.94792 67.793 7.47917 67.9297 7.12109C68.0729 6.75651 68.1478 6.5612 68.1543 6.53516L68.5449 5.40234H70.8008C70.8008 5.40234 70.8691 5.58789 71.0059 5.95898C71.1491 6.33008 71.3346 6.82161 71.5625 7.43359C71.7969 8.03906 72.054 8.70964 72.334 9.44531C72.6139 10.1745 72.8939 10.9069 73.1738 11.6426C73.4603 12.3783 73.7207 13.0586 73.9551 13.6836C74.1895 14.3021 74.3815 14.8066 74.5312 15.1973C74.681 15.5814 74.7591 15.7832 74.7656 15.8027C74.8828 16.1087 74.9805 16.3464 75.0586 16.5156C75.1367 16.6849 75.2279 16.8086 75.332 16.8867C75.4362 16.9583 75.5859 17.0039 75.7812 17.0234C75.9766 17.0365 76.25 17.043 76.6016 17.043V18C76.2435 18 75.8822 17.9967 75.5176 17.9902C75.1595 17.9837 74.7884 17.9805 74.4043 17.9805C73.9876 17.9805 73.584 17.9805 73.1934 17.9805C72.8027 17.9805 72.3177 17.987 71.7383 18V17.0625C71.888 17.0625 72.0215 17.0625 72.1387 17.0625C72.2559 17.0625 72.3633 17.0592 72.4609 17.0527C72.7539 17.0462 72.9492 17.0267 73.0469 16.9941C73.151 16.9551 73.2031 16.89 73.2031 16.7988C73.2031 16.7663 73.1966 16.724 73.1836 16.6719C73.1706 16.6133 73.1543 16.5514 73.1348 16.4863L72.0996 13.3809H66.9922C66.9857 13.3939 66.9466 13.5046 66.875 13.7129C66.8034 13.9212 66.7155 14.1751 66.6113 14.4746C66.5072 14.7741 66.3997 15.0768 66.2891 15.3828C66.1849 15.6823 66.097 15.9362 66.0254 16.1445C65.9538 16.3464 65.918 16.4505 65.918 16.457C65.8529 16.6198 65.8203 16.737 65.8203 16.8086C65.8203 16.9323 65.8854 17.0072 66.0156 17.0332C66.1523 17.0592 66.377 17.0723 66.6895 17.0723C66.7871 17.0723 66.8945 17.0723 67.0117 17.0723C67.1289 17.0723 67.2559 17.0723 67.3926 17.0723V18C67.0345 18 66.6699 17.9967 66.2988 17.9902C65.9342 17.9837 65.5697 17.9805 65.2051 17.9805C64.8079 17.9805 64.4368 17.9805 64.0918 17.9805C63.7467 17.9805 63.3105 17.987 62.7832 18ZM67.3633 12.3945H71.7383L69.5508 6.32031L67.3633 12.3945ZM76.8066 18C76.8066 17.9479 76.8066 17.8828 76.8066 17.8047C76.8066 17.7266 76.8034 17.6452 76.7969 17.5605C76.7969 17.4694 76.7969 17.3848 76.7969 17.3066C76.7969 17.2285 76.7969 17.1634 76.7969 17.1113C77.2917 17.1113 77.64 17.082 77.8418 17.0234C78.0436 16.9648 78.1641 16.877 78.2031 16.7598C78.2487 16.6426 78.2715 16.4961 78.2715 16.3203V6.75C78.2715 6.50911 78.1478 6.36914 77.9004 6.33008C77.653 6.29102 77.3014 6.26823 76.8457 6.26172V5.38281C77.0215 5.38281 77.1908 5.38281 77.3535 5.38281C77.5163 5.3763 77.679 5.37305 77.8418 5.37305C78.0111 5.37305 78.1771 5.37305 78.3398 5.37305C78.5872 5.36654 78.8379 5.36328 79.0918 5.36328C79.3522 5.35677 79.6224 5.35026 79.9023 5.34375V16.4277C79.9023 16.7467 80.026 16.9421 80.2734 17.0137C80.5273 17.0788 80.9049 17.1113 81.4062 17.1113V18C81.0482 18 80.6901 18 80.332 18C79.9805 17.9935 79.5638 17.987 79.082 17.9805C78.6068 17.9805 78.1966 17.9837 77.8516 17.9902C77.5065 17.9967 77.1582 18 76.8066 18ZM88.9355 18.2051C88.2064 18.2051 87.5651 18.0651 87.0117 17.7852C86.4583 17.4987 85.9863 17.0755 85.5957 16.5156V18.0391C85.3548 18.0326 85.0618 18.026 84.7168 18.0195C84.3717 18.0195 84.0365 18.0163 83.7109 18.0098C83.5612 18.0033 83.4147 18 83.2715 18C83.1348 18 83.0078 18 82.8906 18C82.7799 18 82.6823 18 82.5977 18V17.1309C82.6693 17.1309 82.7376 17.1309 82.8027 17.1309C82.8678 17.1309 82.9297 17.1276 82.9883 17.1211C83.3398 17.1081 83.5872 17.0755 83.7305 17.0234C83.8737 16.9714 83.9583 16.8965 83.9844 16.7988C84.0169 16.7012 84.0332 16.584 84.0332 16.4473V6.78906C84.0332 6.52865 83.9128 6.37891 83.6719 6.33984C83.4375 6.29427 83.0762 6.26823 82.5879 6.26172V5.37305C82.7572 5.37305 82.9232 5.37305 83.0859 5.37305C83.2487 5.37305 83.4115 5.37305 83.5742 5.37305C83.9518 5.36654 84.3197 5.36003 84.6777 5.35352C85.0358 5.34701 85.3776 5.34049 85.7031 5.33398V10.6074C86.4583 9.5332 87.5293 8.99609 88.916 8.99609C89.7754 8.99609 90.5273 9.18815 91.1719 9.57227C91.8164 9.95638 92.3145 10.4967 92.666 11.1934C93.0241 11.8835 93.2031 12.6973 93.2031 13.6348C93.2031 14.5397 93.0273 15.3372 92.6758 16.0273C92.3242 16.7109 91.8294 17.2448 91.1914 17.6289C90.5534 18.013 89.8014 18.2051 88.9355 18.2051ZM88.5645 17.1406C89.4694 17.1406 90.1855 16.8216 90.7129 16.1836C91.2467 15.5456 91.5137 14.6764 91.5137 13.5762C91.5137 12.4889 91.2467 11.6263 90.7129 10.9883C90.1855 10.3438 89.4759 10.0215 88.584 10.0215C87.6595 10.0215 86.9303 10.3438 86.3965 10.9883C85.8691 11.6263 85.6055 12.5052 85.6055 13.625C85.6055 14.7318 85.8659 15.5944 86.3867 16.2129C86.9141 16.8314 87.64 17.1406 88.5645 17.1406ZM99.5801 18.2734C98.597 18.2734 97.7507 18.0814 97.041 17.6973C96.3379 17.3132 95.7975 16.776 95.4199 16.0859C95.0423 15.3893 94.8535 14.5788 94.8535 13.6543C94.8535 12.7168 95.0456 11.8997 95.4297 11.2031C95.8138 10.5065 96.3542 9.96615 97.0508 9.58203C97.7474 9.19141 98.5579 8.99609 99.4824 8.99609C100.42 8.99609 101.227 9.18815 101.904 9.57227C102.581 9.94987 103.102 10.5 103.467 11.2227C103.838 11.9388 104.027 12.8014 104.033 13.8105L103.447 13.9863H96.5332C96.5462 15.028 96.849 15.8451 97.4414 16.4375C98.0404 17.0299 98.8281 17.3262 99.8047 17.3262C100.482 17.3262 101.074 17.1927 101.582 16.9258C102.09 16.6523 102.464 16.2031 102.705 15.5781H103.887C103.626 16.4701 103.115 17.1439 102.354 17.5996C101.592 18.0488 100.667 18.2734 99.5801 18.2734ZM96.543 13.1367H102.451C102.373 12.1406 102.077 11.3594 101.562 10.793C101.055 10.2266 100.368 9.94336 99.502 9.94336C98.6751 9.94336 98.0013 10.2298 97.4805 10.8027C96.9661 11.3757 96.6536 12.1536 96.543 13.1367ZM105.322 18V17.1113C105.824 17.1113 106.178 17.0951 106.387 17.0625C106.595 17.0299 106.722 16.9681 106.768 16.877C106.813 16.7858 106.836 16.6523 106.836 16.4766V10.5781C106.836 10.3503 106.745 10.2201 106.562 10.1875C106.387 10.1484 105.99 10.1289 105.371 10.1289V9.25977C105.469 9.25977 105.625 9.25977 105.84 9.25977C106.061 9.25977 106.266 9.26302 106.455 9.26953C106.644 9.26953 106.738 9.26953 106.738 9.26953C107.005 9.26953 107.279 9.26302 107.559 9.25C107.839 9.23698 108.125 9.22721 108.418 9.2207V10.998C108.73 10.3926 109.167 9.91732 109.727 9.57227C110.286 9.22721 110.944 9.05469 111.699 9.05469C111.992 9.05469 112.288 9.07422 112.588 9.11328V11.2422C112.49 11.2422 112.393 11.2422 112.295 11.2422C112.197 11.2422 112.1 11.2422 112.002 11.2422C111.872 10.9297 111.709 10.6823 111.514 10.5C111.325 10.3112 111.058 10.2168 110.713 10.2168C110.075 10.2168 109.548 10.5163 109.131 11.1152C108.721 11.7142 108.509 12.4889 108.496 13.4395C108.496 13.4395 108.496 13.5436 108.496 13.752C108.496 13.9538 108.496 14.2077 108.496 14.5137C108.496 14.8132 108.496 15.1191 108.496 15.4316C108.496 15.7376 108.496 15.998 108.496 16.2129C108.496 16.4277 108.496 16.5449 108.496 16.5645C108.496 16.8444 108.617 17.0072 108.857 17.0527C109.098 17.0918 109.535 17.1113 110.166 17.1113V18C109.756 18 109.355 17.9967 108.965 17.9902C108.574 17.9837 108.099 17.9805 107.539 17.9805C107.057 17.9805 106.654 17.9837 106.328 17.9902C106.009 17.9967 105.674 18 105.322 18ZM116.797 18.2246C116.191 18.2246 115.729 18.0977 115.41 17.8438C115.098 17.5833 114.886 17.2188 114.775 16.75C114.665 16.2812 114.609 15.7344 114.609 15.1094V10.1289H113.008V9.35742C113.223 9.35091 113.467 9.33789 113.74 9.31836C114.02 9.29232 114.261 9.26953 114.463 9.25C114.671 9.23047 114.775 9.2207 114.775 9.2207C114.782 9.1556 114.795 9.01237 114.814 8.79102C114.84 8.56315 114.867 8.31901 114.893 8.05859C114.919 7.79167 114.941 7.56055 114.961 7.36523C114.98 7.16341 114.99 7.05599 114.99 7.04297L116.23 6.78906V9.25977H118.574V10.1289H116.24V15.0215C116.24 15.679 116.276 16.2031 116.348 16.5938C116.419 16.9844 116.686 17.1797 117.148 17.1797C117.337 17.1797 117.507 17.1016 117.656 16.9453C117.812 16.7891 117.891 16.5156 117.891 16.125L118.779 16.0371C118.779 16.7988 118.581 17.3555 118.184 17.707C117.793 18.0521 117.331 18.2246 116.797 18.2246ZM124.717 18.2734C123.799 18.2734 122.992 18.0814 122.295 17.6973C121.598 17.3132 121.051 16.776 120.654 16.0859C120.264 15.3893 120.068 14.5723 120.068 13.6348C120.068 12.6973 120.264 11.8802 120.654 11.1836C121.051 10.487 121.598 9.94987 122.295 9.57227C122.998 9.18815 123.805 8.99609 124.717 8.99609C125.635 8.99609 126.442 9.18815 127.139 9.57227C127.842 9.94987 128.392 10.487 128.789 11.1836C129.186 11.8737 129.385 12.6908 129.385 13.6348C129.385 14.5658 129.186 15.3796 128.789 16.0762C128.398 16.7728 127.852 17.3132 127.148 17.6973C126.452 18.0814 125.641 18.2734 124.717 18.2734ZM124.717 17.2578C125.615 17.2578 126.335 16.929 126.875 16.2715C127.415 15.6139 127.686 14.7318 127.686 13.625C127.686 12.5117 127.415 11.6296 126.875 10.9785C126.341 10.3275 125.622 10.002 124.717 10.002C123.812 10.002 123.092 10.3275 122.559 10.9785C122.025 11.623 121.758 12.5052 121.758 13.625C121.758 14.7318 122.025 15.6139 122.559 16.2715C123.092 16.929 123.812 17.2578 124.717 17.2578ZM134.57 18V17.0332H135.176C135.566 17.0332 135.833 17.0072 135.977 16.9551C136.126 16.8965 136.211 16.8053 136.23 16.6816C136.25 16.5579 136.26 16.4017 136.26 16.2129V7.07227C136.26 6.74674 136.178 6.54818 136.016 6.47656C135.859 6.40495 135.592 6.36914 135.215 6.36914H134.639V5.40234C134.899 5.40885 135.169 5.41536 135.449 5.42188C135.729 5.42188 136.003 5.42188 136.27 5.42188C136.543 5.42188 136.797 5.42188 137.031 5.42188C137.064 5.42188 137.165 5.42188 137.334 5.42188C137.503 5.41536 137.692 5.41211 137.9 5.41211C138.115 5.41211 138.307 5.41211 138.477 5.41211C138.652 5.4056 138.763 5.40234 138.809 5.40234C138.809 5.40234 138.877 5.5944 139.014 5.97852C139.157 6.35612 139.342 6.85742 139.57 7.48242C139.805 8.10742 140.059 8.79427 140.332 9.54297C140.605 10.2917 140.879 11.0404 141.152 11.7891C141.426 12.5378 141.676 13.2246 141.904 13.8496C142.139 14.4746 142.324 14.9792 142.461 15.3633C142.604 15.7409 142.676 15.9297 142.676 15.9297C142.689 15.8906 142.764 15.679 142.9 15.2949C143.044 14.9043 143.229 14.403 143.457 13.791C143.685 13.1725 143.932 12.4987 144.199 11.7695C144.473 11.0404 144.743 10.3112 145.01 9.58203C145.283 8.84635 145.534 8.17253 145.762 7.56055C145.99 6.94206 146.175 6.4375 146.318 6.04688C146.462 5.65625 146.54 5.44141 146.553 5.40234C146.598 5.40234 146.722 5.4056 146.924 5.41211C147.132 5.41211 147.363 5.41536 147.617 5.42188C147.878 5.42188 148.109 5.42513 148.311 5.43164C148.512 5.43164 148.633 5.43164 148.672 5.43164C148.893 5.43164 149.128 5.43164 149.375 5.43164C149.622 5.42513 149.87 5.42188 150.117 5.42188C150.365 5.41536 150.586 5.40885 150.781 5.40234V6.36914H150.176C149.661 6.36914 149.359 6.42773 149.268 6.54492C149.183 6.6556 149.141 6.82161 149.141 7.04297C149.141 7.04297 149.141 7.20898 149.141 7.54102C149.141 7.87305 149.141 8.3125 149.141 8.85938C149.141 9.39974 149.141 9.99544 149.141 10.6465C149.141 11.291 149.141 11.9388 149.141 12.5898C149.141 13.2344 149.141 13.8268 149.141 14.3672C149.141 14.9076 149.141 15.3438 149.141 15.6758C149.141 16.0013 149.141 16.1641 149.141 16.1641C149.141 16.5807 149.209 16.8314 149.346 16.916C149.482 16.9941 149.772 17.0332 150.215 17.0332H150.811V18C150.355 18 149.915 17.9967 149.492 17.9902C149.069 17.9837 148.548 17.9805 147.93 17.9805C147.454 17.9805 147.07 17.9837 146.777 17.9902C146.491 17.9967 146.185 18 145.859 18V17.0332H146.445C146.966 17.0332 147.275 16.9518 147.373 16.7891C147.471 16.6198 147.52 16.4082 147.52 16.1543V6.28125C147.52 6.28125 147.474 6.39844 147.383 6.63281C147.298 6.86719 147.194 7.13737 147.07 7.44336C146.953 7.74935 146.849 8.01953 146.758 8.25391C146.673 8.48828 146.631 8.60547 146.631 8.60547L143.096 18H141.992C141.81 17.5182 141.621 17.0234 141.426 16.5156C141.23 16.0078 141.032 15.4902 140.83 14.9629C140.635 14.429 140.436 13.8952 140.234 13.3613C140.039 12.821 139.84 12.2871 139.639 11.7598C139.443 11.2259 139.248 10.7018 139.053 10.1875C138.864 9.67318 138.678 9.17513 138.496 8.69336C138.418 8.47852 138.337 8.26693 138.252 8.05859C138.174 7.85026 138.096 7.64844 138.018 7.45312C137.946 7.2513 137.874 7.05599 137.803 6.86719C137.731 6.67839 137.66 6.49609 137.588 6.32031V16.2324C137.588 16.61 137.646 16.8379 137.764 16.916C137.881 16.9941 138.167 17.0332 138.623 17.0332H139.209V18C138.877 18 138.558 17.9967 138.252 17.9902C137.952 17.9837 137.562 17.9805 137.08 17.9805C136.559 17.9805 136.107 17.9837 135.723 17.9902C135.345 17.9967 134.961 18 134.57 18ZM155.273 18.2051C154.342 18.2051 153.597 17.9544 153.037 17.4531C152.477 16.9518 152.197 16.3138 152.197 15.5391C152.197 14.7057 152.529 14.0352 153.193 13.5273C153.857 13.0195 154.785 12.7656 155.977 12.7656C156.38 12.7656 156.79 12.7982 157.207 12.8633C157.63 12.9219 158.057 13.0065 158.486 13.1172V11.6719C158.486 11.0859 158.288 10.6367 157.891 10.3242C157.5 10.0052 156.898 9.8457 156.084 9.8457C154.749 9.8457 153.955 10.3861 153.701 11.4668L152.803 11.3594L152.93 9.64062C153.346 9.45182 153.835 9.29883 154.395 9.18164C154.954 9.05794 155.579 8.99609 156.27 8.99609C157.65 8.99609 158.636 9.24674 159.229 9.74805C159.827 10.2493 160.127 11.0371 160.127 12.1113V15.8125C160.127 16.2617 160.15 16.5775 160.195 16.7598C160.241 16.9421 160.329 17.0495 160.459 17.082C160.589 17.1146 160.785 17.1309 161.045 17.1309H161.484V18C161.38 17.9935 161.276 17.9902 161.172 17.9902C161.068 17.9902 160.964 17.9935 160.859 18C160.755 18 160.651 18 160.547 18C160.195 18.0065 159.85 18.013 159.512 18.0195C159.173 18.026 158.851 18.0326 158.545 18.0391V16.7012C158.154 17.196 157.689 17.5703 157.148 17.8242C156.615 18.0781 155.99 18.2051 155.273 18.2051ZM155.771 17.2676C156.195 17.2676 156.615 17.1797 157.031 17.0039C157.448 16.8216 157.793 16.5547 158.066 16.2031C158.346 15.8516 158.486 15.4121 158.486 14.8848V13.9277C158.096 13.8171 157.725 13.7324 157.373 13.6738C157.021 13.6152 156.68 13.5859 156.348 13.5859C155.566 13.5859 154.948 13.7552 154.492 14.0938C154.043 14.4258 153.818 14.8913 153.818 15.4902C153.818 16.0241 154.001 16.4538 154.365 16.7793C154.73 17.1048 155.199 17.2676 155.771 17.2676ZM167.217 22.1602C166.533 22.1602 165.921 22.069 165.381 21.8867C164.847 21.7044 164.313 21.4635 163.779 21.1641L163.857 18.8789C163.864 18.8789 163.942 18.8789 164.092 18.8789C164.242 18.8789 164.388 18.8789 164.531 18.8789C164.681 18.8789 164.756 18.8789 164.756 18.8789C164.867 19.6536 165.153 20.2396 165.615 20.6367C166.077 21.0404 166.693 21.2422 167.461 21.2422C168.288 21.2422 168.968 21.0078 169.502 20.5391C170.042 20.0703 170.316 19.2923 170.322 18.2051C170.322 18.1986 170.322 18.1009 170.322 17.9121C170.322 17.7233 170.322 17.5052 170.322 17.2578C170.322 17.0104 170.322 16.7923 170.322 16.6035C170.322 16.4082 170.322 16.3105 170.322 16.3105C169.964 16.8639 169.499 17.2839 168.926 17.5703C168.353 17.8503 167.715 17.9902 167.012 17.9902C166.159 17.9902 165.41 17.8079 164.766 17.4434C164.121 17.0788 163.62 16.5677 163.262 15.9102C162.91 15.2461 162.734 14.4714 162.734 13.5859C162.734 12.694 162.917 11.9095 163.281 11.2324C163.646 10.5488 164.15 10.015 164.795 9.63086C165.446 9.24674 166.195 9.05469 167.041 9.05469C167.77 9.05469 168.418 9.22396 168.984 9.5625C169.557 9.90104 170.042 10.3535 170.439 10.9199V9.2207C170.732 9.23372 171.022 9.24674 171.309 9.25977C171.602 9.26628 171.891 9.26953 172.178 9.26953C172.432 9.26953 172.653 9.26953 172.842 9.26953C173.037 9.26302 173.229 9.25977 173.418 9.25977V10.1387C173.314 10.1387 173.216 10.1387 173.125 10.1387C173.034 10.1387 172.949 10.1419 172.871 10.1484C172.422 10.168 172.155 10.2331 172.07 10.3438C171.986 10.4479 171.943 10.627 171.943 10.8809V17.3945C171.943 18.612 171.751 19.5658 171.367 20.2559C170.99 20.9525 170.449 21.444 169.746 21.7305C169.043 22.0169 168.2 22.1602 167.217 22.1602ZM167.402 17.0234C168.294 17.0234 169.01 16.7012 169.551 16.0566C170.098 15.4121 170.371 14.5658 170.371 13.5176C170.371 12.502 170.098 11.6816 169.551 11.0566C169.004 10.4251 168.281 10.1094 167.383 10.1094C166.497 10.1094 165.785 10.4284 165.244 11.0664C164.704 11.7044 164.434 12.5475 164.434 13.5957C164.434 14.6439 164.701 15.4772 165.234 16.0957C165.775 16.7142 166.497 17.0234 167.402 17.0234ZM174.16 18C174.16 17.9479 174.16 17.8828 174.16 17.8047C174.16 17.7266 174.16 17.6452 174.16 17.5605C174.16 17.4694 174.16 17.3848 174.16 17.3066C174.16 17.2285 174.16 17.1634 174.16 17.1113C174.648 17.1113 174.997 17.0983 175.205 17.0723C175.413 17.0462 175.54 16.9974 175.586 16.9258C175.638 16.8477 175.664 16.7402 175.664 16.6035V10.4512C175.664 10.2884 175.566 10.194 175.371 10.168C175.182 10.1419 174.798 10.1289 174.219 10.1289C174.219 10.0573 174.219 9.96615 174.219 9.85547C174.219 9.74479 174.215 9.63411 174.209 9.52344C174.209 9.41276 174.209 9.32487 174.209 9.25977C174.43 9.25977 174.642 9.25977 174.844 9.25977C175.052 9.25977 175.254 9.25651 175.449 9.25C175.768 9.25 176.074 9.24674 176.367 9.24023C176.667 9.22721 176.96 9.21745 177.246 9.21094V10.5879C177.689 10.1061 178.2 9.73503 178.779 9.47461C179.359 9.20768 179.971 9.07422 180.615 9.07422C181.566 9.07422 182.295 9.33138 182.803 9.8457C183.311 10.3535 183.564 11.151 183.564 12.2383V16.7109C183.564 16.9128 183.665 17.0267 183.867 17.0527C184.069 17.0788 184.424 17.0983 184.932 17.1113V18C184.613 18 184.297 18 183.984 18C183.678 17.9935 183.298 17.987 182.842 17.9805C182.367 17.9805 181.94 17.9837 181.562 17.9902C181.185 17.9967 180.807 18 180.43 18V17.1113C180.924 17.1113 181.273 17.0983 181.475 17.0723C181.683 17.0462 181.807 17.0007 181.846 16.9355C181.891 16.8704 181.914 16.7793 181.914 16.6621V12.8047C181.914 11.9258 181.8 11.2715 181.572 10.8418C181.344 10.4121 180.863 10.1973 180.127 10.1973C179.417 10.1973 178.835 10.36 178.379 10.6855C177.923 11.0111 177.572 11.3301 177.324 11.6426C177.318 11.8835 177.311 12.1276 177.305 12.375C177.298 12.6159 177.295 12.8665 177.295 13.127V16.6523C177.295 16.8802 177.409 17.0137 177.637 17.0527C177.871 17.0918 178.252 17.1113 178.779 17.1113V18C178.441 18 178.105 18 177.773 18C177.448 17.9935 177.048 17.987 176.572 17.9805C176.084 17.9805 175.651 17.9837 175.273 17.9902C174.896 17.9967 174.525 18 174.16 18ZM190.713 18.2734C189.795 18.2734 188.988 18.0814 188.291 17.6973C187.594 17.3132 187.048 16.776 186.65 16.0859C186.26 15.3893 186.064 14.5723 186.064 13.6348C186.064 12.6973 186.26 11.8802 186.65 11.1836C187.048 10.487 187.594 9.94987 188.291 9.57227C188.994 9.18815 189.801 8.99609 190.713 8.99609C191.631 8.99609 192.438 9.18815 193.135 9.57227C193.838 9.94987 194.388 10.487 194.785 11.1836C195.182 11.8737 195.381 12.6908 195.381 13.6348C195.381 14.5658 195.182 15.3796 194.785 16.0762C194.395 16.7728 193.848 17.3132 193.145 17.6973C192.448 18.0814 191.637 18.2734 190.713 18.2734ZM190.713 17.2578C191.611 17.2578 192.331 16.929 192.871 16.2715C193.411 15.6139 193.682 14.7318 193.682 13.625C193.682 12.5117 193.411 11.6296 192.871 10.9785C192.337 10.3275 191.618 10.002 190.713 10.002C189.808 10.002 189.089 10.3275 188.555 10.9785C188.021 11.623 187.754 12.5052 187.754 13.625C187.754 14.7318 188.021 15.6139 188.555 16.2715C189.089 16.929 189.808 17.2578 190.713 17.2578ZM199.6 18V17.0332C200.036 17.0267 200.352 17.0137 200.547 16.9941C200.749 16.9746 200.889 16.916 200.967 16.8184C201.051 16.7207 201.136 16.5579 201.221 16.3301C201.234 16.304 201.309 16.112 201.445 15.7539C201.582 15.3893 201.761 14.9206 201.982 14.3477C202.204 13.7682 202.445 13.1367 202.705 12.4531C202.965 11.7695 203.226 11.0892 203.486 10.4121C203.753 9.72852 203.994 9.10026 204.209 8.52734C204.43 7.94792 204.609 7.47917 204.746 7.12109C204.889 6.75651 204.964 6.5612 204.971 6.53516L205.361 5.40234H207.617C207.617 5.40234 207.686 5.58789 207.822 5.95898C207.965 6.33008 208.151 6.82161 208.379 7.43359C208.613 8.03906 208.87 8.70964 209.15 9.44531C209.43 10.1745 209.71 10.9069 209.99 11.6426C210.277 12.3783 210.537 13.0586 210.771 13.6836C211.006 14.3021 211.198 14.8066 211.348 15.1973C211.497 15.5814 211.576 15.7832 211.582 15.8027C211.699 16.1087 211.797 16.3464 211.875 16.5156C211.953 16.6849 212.044 16.8086 212.148 16.8867C212.253 16.9583 212.402 17.0039 212.598 17.0234C212.793 17.0365 213.066 17.043 213.418 17.043V18C213.06 18 212.699 17.9967 212.334 17.9902C211.976 17.9837 211.605 17.9805 211.221 17.9805C210.804 17.9805 210.4 17.9805 210.01 17.9805C209.619 17.9805 209.134 17.987 208.555 18V17.0625C208.704 17.0625 208.838 17.0625 208.955 17.0625C209.072 17.0625 209.18 17.0592 209.277 17.0527C209.57 17.0462 209.766 17.0267 209.863 16.9941C209.967 16.9551 210.02 16.89 210.02 16.7988C210.02 16.7663 210.013 16.724 210 16.6719C209.987 16.6133 209.971 16.5514 209.951 16.4863L208.916 13.3809H203.809C203.802 13.3939 203.763 13.5046 203.691 13.7129C203.62 13.9212 203.532 14.1751 203.428 14.4746C203.324 14.7741 203.216 15.0768 203.105 15.3828C203.001 15.6823 202.913 15.9362 202.842 16.1445C202.77 16.3464 202.734 16.4505 202.734 16.457C202.669 16.6198 202.637 16.737 202.637 16.8086C202.637 16.9323 202.702 17.0072 202.832 17.0332C202.969 17.0592 203.193 17.0723 203.506 17.0723C203.604 17.0723 203.711 17.0723 203.828 17.0723C203.945 17.0723 204.072 17.0723 204.209 17.0723V18C203.851 18 203.486 17.9967 203.115 17.9902C202.751 17.9837 202.386 17.9805 202.021 17.9805C201.624 17.9805 201.253 17.9805 200.908 17.9805C200.563 17.9805 200.127 17.987 199.6 18ZM204.18 12.3945H208.555L206.367 6.32031L204.18 12.3945ZM218.516 18.2734C217.611 18.2734 216.82 18.0846 216.143 17.707C215.465 17.3229 214.941 16.7891 214.57 16.1055C214.199 15.4154 214.014 14.6113 214.014 13.6934C214.014 12.821 214.196 12.0397 214.561 11.3496C214.925 10.653 215.43 10.1029 216.074 9.69922C216.719 9.29557 217.464 9.09375 218.311 9.09375C218.838 9.09375 219.336 9.16211 219.805 9.29883C220.28 9.43555 220.674 9.69596 220.986 10.0801L221.23 9.30859C221.263 9.30859 221.344 9.31185 221.475 9.31836C221.611 9.31836 221.745 9.31836 221.875 9.31836C222.012 9.31836 222.096 9.32161 222.129 9.32812V12.375H221.172C221.146 11.5938 220.911 11.0111 220.469 10.627C220.033 10.2428 219.437 10.0508 218.682 10.0508C217.757 10.0508 217.035 10.3698 216.514 11.0078C215.999 11.6458 215.742 12.5182 215.742 13.625C215.742 14.7448 216.009 15.6335 216.543 16.291C217.077 16.9421 217.796 17.2676 218.701 17.2676C219.352 17.2676 219.896 17.0951 220.332 16.75C220.775 16.3984 221.084 15.9036 221.26 15.2656L222.402 15.4609C222.201 16.3529 221.758 17.0462 221.074 17.541C220.397 18.0293 219.544 18.2734 218.516 18.2734ZM227.07 18.2051C226.139 18.2051 225.394 17.9544 224.834 17.4531C224.274 16.9518 223.994 16.3138 223.994 15.5391C223.994 14.7057 224.326 14.0352 224.99 13.5273C225.654 13.0195 226.582 12.7656 227.773 12.7656C228.177 12.7656 228.587 12.7982 229.004 12.8633C229.427 12.9219 229.854 13.0065 230.283 13.1172V11.6719C230.283 11.0859 230.085 10.6367 229.688 10.3242C229.297 10.0052 228.695 9.8457 227.881 9.8457C226.546 9.8457 225.752 10.3861 225.498 11.4668L224.6 11.3594L224.727 9.64062C225.143 9.45182 225.632 9.29883 226.191 9.18164C226.751 9.05794 227.376 8.99609 228.066 8.99609C229.447 8.99609 230.433 9.24674 231.025 9.74805C231.624 10.2493 231.924 11.0371 231.924 12.1113V15.8125C231.924 16.2617 231.947 16.5775 231.992 16.7598C232.038 16.9421 232.126 17.0495 232.256 17.082C232.386 17.1146 232.581 17.1309 232.842 17.1309H233.281V18C233.177 17.9935 233.073 17.9902 232.969 17.9902C232.865 17.9902 232.76 17.9935 232.656 18C232.552 18 232.448 18 232.344 18C231.992 18.0065 231.647 18.013 231.309 18.0195C230.97 18.026 230.648 18.0326 230.342 18.0391V16.7012C229.951 17.196 229.486 17.5703 228.945 17.8242C228.411 18.0781 227.786 18.2051 227.07 18.2051ZM227.568 17.2676C227.992 17.2676 228.411 17.1797 228.828 17.0039C229.245 16.8216 229.59 16.5547 229.863 16.2031C230.143 15.8516 230.283 15.4121 230.283 14.8848V13.9277C229.893 13.8171 229.521 13.7324 229.17 13.6738C228.818 13.6152 228.477 13.5859 228.145 13.5859C227.363 13.5859 226.745 13.7552 226.289 14.0938C225.84 14.4258 225.615 14.8913 225.615 15.4902C225.615 16.0241 225.798 16.4538 226.162 16.7793C226.527 17.1048 226.995 17.2676 227.568 17.2676ZM238.809 18.2051C237.956 18.2051 237.21 18.0163 236.572 17.6387C235.934 17.2611 235.439 16.7305 235.088 16.0469C234.736 15.3633 234.561 14.5658 234.561 13.6543C234.561 12.7233 234.74 11.9095 235.098 11.2129C235.456 10.5163 235.957 9.97591 236.602 9.5918C237.246 9.20117 237.992 9.00586 238.838 9.00586C240.257 9.00586 241.331 9.54622 242.061 10.627V6.64258C242.061 6.47331 241.973 6.36914 241.797 6.33008C241.621 6.29102 241.325 6.26823 240.908 6.26172C240.843 6.26172 240.775 6.26172 240.703 6.26172C240.632 6.26172 240.557 6.26172 240.479 6.26172V5.37305C240.641 5.37305 240.801 5.37305 240.957 5.37305C241.113 5.37305 241.27 5.37305 241.426 5.37305C241.829 5.36654 242.223 5.36003 242.607 5.35352C242.998 5.34701 243.363 5.34049 243.701 5.33398V16.75C243.701 16.8997 243.773 16.9974 243.916 17.043C244.059 17.0885 244.336 17.1178 244.746 17.1309C244.805 17.1309 244.867 17.1309 244.932 17.1309C244.997 17.1309 245.065 17.1309 245.137 17.1309V18C244.954 18.0065 244.769 18.0065 244.58 18C244.398 18 244.212 18.0033 244.023 18.0098C243.698 18.0098 243.376 18.013 243.057 18.0195C242.744 18.026 242.441 18.0326 242.148 18.0391C242.148 18.026 242.148 17.9154 242.148 17.707C242.148 17.4987 242.145 17.2741 242.139 17.0332C242.139 16.7923 242.135 16.6198 242.129 16.5156C241.764 17.069 241.302 17.4889 240.742 17.7754C240.182 18.0618 239.538 18.2051 238.809 18.2051ZM239.18 17.1406C240.091 17.1406 240.807 16.8281 241.328 16.2031C241.855 15.5781 242.119 14.7253 242.119 13.6445C242.119 12.5573 241.846 11.6816 241.299 11.0176C240.758 10.3535 240.042 10.0215 239.15 10.0215C238.278 10.0215 237.572 10.3503 237.031 11.0078C236.497 11.6654 236.23 12.5378 236.23 13.625C236.23 14.6992 236.497 15.5553 237.031 16.1934C237.565 16.8249 238.281 17.1406 239.18 17.1406ZM251.006 18.2734C250.023 18.2734 249.176 18.0814 248.467 17.6973C247.764 17.3132 247.223 16.776 246.846 16.0859C246.468 15.3893 246.279 14.5788 246.279 13.6543C246.279 12.7168 246.471 11.8997 246.855 11.2031C247.24 10.5065 247.78 9.96615 248.477 9.58203C249.173 9.19141 249.984 8.99609 250.908 8.99609C251.846 8.99609 252.653 9.18815 253.33 9.57227C254.007 9.94987 254.528 10.5 254.893 11.2227C255.264 11.9388 255.452 12.8014 255.459 13.8105L254.873 13.9863H247.959C247.972 15.028 248.275 15.8451 248.867 16.4375C249.466 17.0299 250.254 17.3262 251.23 17.3262C251.908 17.3262 252.5 17.1927 253.008 16.9258C253.516 16.6523 253.89 16.2031 254.131 15.5781H255.312C255.052 16.4701 254.541 17.1439 253.779 17.5996C253.018 18.0488 252.093 18.2734 251.006 18.2734ZM247.969 13.1367H253.877C253.799 12.1406 253.503 11.3594 252.988 10.793C252.48 10.2266 251.794 9.94336 250.928 9.94336C250.101 9.94336 249.427 10.2298 248.906 10.8027C248.392 11.3757 248.079 12.1536 247.969 13.1367ZM256.699 18V17.1113C257.174 17.1113 257.513 17.0918 257.715 17.0527C257.917 17.0137 258.037 16.9551 258.076 16.877C258.122 16.7923 258.145 16.6882 258.145 16.5645V10.5781C258.145 10.3633 258.04 10.2363 257.832 10.1973C257.624 10.1517 257.262 10.1289 256.748 10.1289V9.25977C256.878 9.25977 257.005 9.26302 257.129 9.26953C257.259 9.26953 257.415 9.26953 257.598 9.26953C257.943 9.26953 258.291 9.26302 258.643 9.25C258.994 9.23698 259.346 9.22721 259.697 9.2207V10.666C260.133 10.1517 260.641 9.75781 261.221 9.48438C261.807 9.20443 262.445 9.06445 263.135 9.06445C263.714 9.06445 264.229 9.20443 264.678 9.48438C265.133 9.76432 265.475 10.1745 265.703 10.7148C266.178 10.181 266.709 9.77409 267.295 9.49414C267.881 9.21419 268.499 9.07422 269.15 9.07422C269.945 9.07422 270.54 9.24023 270.938 9.57227C271.341 9.9043 271.608 10.373 271.738 10.9785C271.875 11.5775 271.943 12.2839 271.943 13.0977V16.6816C271.943 16.8965 272.041 17.0202 272.236 17.0527C272.432 17.0788 272.796 17.0983 273.33 17.1113V18C272.972 18 272.611 17.9967 272.246 17.9902C271.882 17.9837 271.465 17.9805 270.996 17.9805C270.547 17.9805 270.16 17.9837 269.834 17.9902C269.508 17.9967 269.176 18 268.838 18V17.1113C269.398 17.0983 269.782 17.069 269.99 17.0234C270.199 16.9714 270.303 16.8184 270.303 16.5645V12.7949C270.303 11.9225 270.195 11.2682 269.98 10.832C269.766 10.3958 269.29 10.1777 268.555 10.1777C267.949 10.1777 267.435 10.3177 267.012 10.5977C266.595 10.8776 266.234 11.2227 265.928 11.6328C265.915 11.8672 265.905 12.1048 265.898 12.3457C265.892 12.5866 265.889 12.834 265.889 13.0879V16.6328C265.889 16.8672 265.98 17.0039 266.162 17.043C266.351 17.0755 266.719 17.0983 267.266 17.1113V18C266.94 18 266.618 18 266.299 18C265.986 17.9935 265.602 17.987 265.146 17.9805C264.671 17.9805 264.251 17.9837 263.887 17.9902C263.522 17.9967 263.158 18 262.793 18V17.1113C263.346 17.0983 263.724 17.0658 263.926 17.0137C264.134 16.9616 264.238 16.8151 264.238 16.5742V12.7949C264.238 11.9421 264.134 11.2845 263.926 10.8223C263.717 10.36 263.242 10.1289 262.5 10.1289C261.882 10.1289 261.374 10.2656 260.977 10.5391C260.579 10.8125 260.199 11.1706 259.834 11.6133C259.827 11.6198 259.821 11.7077 259.814 11.877C259.808 12.0462 259.801 12.2643 259.795 12.5312C259.795 12.7591 259.792 13.0098 259.785 13.2832C259.785 13.5566 259.782 13.8366 259.775 14.123C259.775 14.4095 259.775 14.6895 259.775 14.9629C259.775 15.2363 259.775 15.4837 259.775 15.7051C259.775 16.1999 259.788 16.5449 259.814 16.7402C259.847 16.9355 259.964 17.0462 260.166 17.0723C260.374 17.0983 260.739 17.1113 261.26 17.1113V18C260.921 18 260.586 18 260.254 18C259.928 17.9935 259.528 17.987 259.053 17.9805C258.577 17.9805 258.158 17.9837 257.793 17.9902C257.428 17.9967 257.064 18 256.699 18ZM276.25 21.9453C275.97 21.9453 275.697 21.9062 275.43 21.8281C275.163 21.75 275.003 21.7044 274.951 21.6914L275.02 20.6562C275.117 20.6693 275.303 20.6953 275.576 20.7344C275.856 20.7799 276.081 20.8027 276.25 20.8027C276.517 20.8027 276.764 20.6758 276.992 20.4219C277.227 20.1745 277.487 19.7318 277.773 19.0938L278.145 18.1172C278.145 18.1172 278.066 17.9544 277.91 17.6289C277.76 17.2969 277.562 16.8672 277.314 16.3398C277.074 15.8125 276.813 15.2493 276.533 14.6504C276.253 14.0514 275.983 13.4785 275.723 12.9316C275.469 12.3783 275.254 11.9128 275.078 11.5352C274.902 11.1576 274.798 10.9329 274.766 10.8613C274.622 10.5553 274.492 10.3665 274.375 10.2949C274.258 10.2168 274.01 10.1777 273.633 10.1777H273.291C273.291 10.1257 273.291 10.0605 273.291 9.98242C273.291 9.89779 273.288 9.8099 273.281 9.71875C273.281 9.6276 273.281 9.54297 273.281 9.46484C273.281 9.38021 273.281 9.31185 273.281 9.25977C273.646 9.25977 274.01 9.26302 274.375 9.26953C274.74 9.27604 275.081 9.2793 275.4 9.2793C275.706 9.2793 276.051 9.27604 276.436 9.26953C276.826 9.26302 277.266 9.25977 277.754 9.25977V10.1484H276.895C276.732 10.1484 276.595 10.1777 276.484 10.2363C276.374 10.2884 276.318 10.3926 276.318 10.5488C276.318 10.8092 276.406 11.125 276.582 11.4961C276.758 11.8607 276.917 12.196 277.061 12.502L278.926 16.4863L281.035 11.2617C281.159 10.9688 281.224 10.7474 281.23 10.5977C281.224 10.4089 281.136 10.2884 280.967 10.2363C280.804 10.1777 280.426 10.1484 279.834 10.1484V9.25977C280.173 9.25977 280.498 9.26302 280.811 9.26953C281.13 9.27604 281.445 9.2793 281.758 9.2793C282.103 9.2793 282.458 9.27604 282.822 9.26953C283.187 9.26302 283.555 9.25977 283.926 9.25977C283.926 9.31185 283.926 9.37695 283.926 9.45508C283.926 9.5332 283.926 9.61784 283.926 9.70898C283.926 9.79362 283.926 9.875 283.926 9.95312C283.932 10.0312 283.936 10.0964 283.936 10.1484C283.564 10.1484 283.291 10.1712 283.115 10.2168C282.946 10.2559 282.816 10.3438 282.725 10.4805C282.64 10.6172 282.533 10.8288 282.402 11.1152L279.033 19.0449C278.721 19.7806 278.428 20.36 278.154 20.7832C277.881 21.2064 277.594 21.5059 277.295 21.6816C276.995 21.8574 276.647 21.9453 276.25 21.9453Z" fill="white"/>
</svg>
